<?xml version="1.0" encoding="UTF-8"?>
<!DOCTYPE svg PUBLIC "-//W3C//DTD SVG 1.1//EN" "http://www.w3.org/Graphics/SVG/1.1/DTD/svg11.dtd">
<svg xmlns="http://www.w3.org/2000/svg" version="1.1" width="96px" height="96px" style="shape-rendering:geometricPrecision; text-rendering:geometricPrecision; image-rendering:optimizeQuality; fill-rule:evenodd; clip-rule:evenodd" xmlns:xlink="http://www.w3.org/1999/xlink">
<g><path style="opacity:0.771" fill="#0e0e0e" d="M 7.5,-0.5 C 34.1667,-0.5 60.8333,-0.5 87.5,-0.5C 90.7608,1.09021 93.4274,3.42355 95.5,6.5C 95.5,33.8333 95.5,61.1667 95.5,88.5C 93.4274,91.5765 90.7608,93.9098 87.5,95.5C 60.8333,95.5 34.1667,95.5 7.5,95.5C 4.09299,93.0967 1.42632,90.0967 -0.5,86.5C -0.5,60.5 -0.5,34.5 -0.5,8.5C 1.08358,4.58053 3.75025,1.58053 7.5,-0.5 Z"/></g>
<g><path style="opacity:1" fill="#fbfbfb" d="M 8.5,1.5 C 34.5021,1.33336 60.5021,1.50003 86.5,2C 88.5873,2.79217 90.4207,3.95884 92,5.5C 93.6489,32.7466 93.9822,60.08 93,87.5C 91.7494,90.3807 89.5827,92.214 86.5,93C 60.5,93.6667 34.5,93.6667 8.5,93C 6.37623,91.8783 4.5429,90.3783 3,88.5C 2.33333,61.1667 2.33333,33.8333 3,6.5C 4.72969,4.59809 6.56303,2.93142 8.5,1.5 Z"/></g>
<g><path style="opacity:1" fill="#030303" d="M 46.5,16.5 C 48.5922,16.5614 50.0922,17.5614 51,19.5C 59.414,34.6635 68.0807,49.6635 77,64.5C 78.7411,67.3093 79.9078,70.3093 80.5,73.5C 58.5913,73.827 36.758,73.4937 15,72.5C 25.1788,53.8255 35.6788,35.1589 46.5,16.5 Z"/></g>
<g><path style="opacity:1" fill="#eaebeb" d="M 44.5,35.5 C 46.8333,35.5 49.1667,35.5 51.5,35.5C 51.6231,42.5293 51.2897,49.5293 50.5,56.5C 48.5,56.5 46.5,56.5 44.5,56.5C 44.5,49.5 44.5,42.5 44.5,35.5 Z"/></g>
<g><path style="opacity:1" fill="#f6f7f7" d="M 44.5,60.5 C 46.5,60.5 48.5,60.5 50.5,60.5C 50.5,62.5 50.5,64.5 50.5,66.5C 50.5,64.5 50.5,62.5 50.5,60.5C 48.5,60.5 46.5,60.5 44.5,60.5 Z"/></g>
<g><path style="opacity:1" fill="#8c8e91" d="M 44.5,60.5 C 46.6074,59.5318 48.9407,59.1984 51.5,59.5C 51.8016,62.0593 51.4682,64.3926 50.5,66.5C 50.5,64.5 50.5,62.5 50.5,60.5C 48.5,60.5 46.5,60.5 44.5,60.5 Z"/></g>
</svg>
