<?xml version="1.0" encoding="UTF-8"?>
<!DOCTYPE svg PUBLIC "-//W3C//DTD SVG 1.1//EN" "http://www.w3.org/Graphics/SVG/1.1/DTD/svg11.dtd">
<svg xmlns="http://www.w3.org/2000/svg" version="1.1" width="96px" height="96px" style="shape-rendering:geometricPrecision; text-rendering:geometricPrecision; image-rendering:optimizeQuality; fill-rule:evenodd; clip-rule:evenodd" xmlns:xlink="http://www.w3.org/1999/xlink">
<g><path style="opacity:0.777" fill="#0e0e0e" d="M 6.5,-0.5 C 33.8333,-0.5 61.1667,-0.5 88.5,-0.5C 91.9773,1.64005 94.3106,4.64005 95.5,8.5C 95.5,34.5 95.5,60.5 95.5,86.5C 93.4134,90.9217 90.08,93.9217 85.5,95.5C 60.1667,95.5 34.8333,95.5 9.5,95.5C 5.03744,94.2659 1.70411,91.5992 -0.5,87.5C -0.5,60.5 -0.5,33.5 -0.5,6.5C 1.5,3.83333 3.83333,1.5 6.5,-0.5 Z"/></g>
<g><path style="opacity:1" fill="#fafafa" d="M 6.5,1.5 C 33.1687,1.33336 59.8354,1.50003 86.5,2C 90,2.83333 92.1667,5 93,8.5C 93.6667,34.1667 93.6667,59.8333 93,85.5C 92.2078,87.5873 91.0412,89.4207 89.5,91C 61.9199,92.6491 34.2533,92.9825 6.5,92C 5,90.5 3.5,89 2,87.5C 1.33333,60.8333 1.33333,34.1667 2,7.5C 3.33203,5.34004 4.83203,3.34004 6.5,1.5 Z"/></g>
<g><path style="opacity:1" fill="#090909" d="M 64.5,6.5 C 73.9211,15.8059 76.0878,26.8059 71,39.5C 69.503,43.1649 67.503,46.4983 65,49.5C 60.3333,44.8333 55.6667,40.1667 51,35.5C 50.3333,44.1667 50.3333,52.8333 51,61.5C 53.5838,69.3176 54.9171,77.3176 55,85.5C 53,86.8333 51,86.8333 49,85.5C 46.5879,76.2732 44.7546,66.9398 43.5,57.5C 42.1667,57.5 40.8333,57.5 39.5,57.5C 38.2451,66.9412 36.4118,76.2745 34,85.5C 32,88.1667 30,88.1667 28,85.5C 28.5454,76.7616 29.8788,68.0949 32,59.5C 32.4998,50.5062 32.6664,41.5062 32.5,32.5C 36.1817,32.6653 39.8484,32.4986 43.5,32C 45.886,30.1127 47.0527,27.6127 47,24.5C 53.0362,18.6314 58.8695,12.6314 64.5,6.5 Z"/></g>
<g><path style="opacity:1" fill="#070707" d="M 37.5,10.5 C 46.3058,10.464 48.6391,14.2974 44.5,22C 36.9377,24.4502 33.4377,21.6169 34,13.5C 35.1451,12.3636 36.3117,11.3636 37.5,10.5 Z"/></g>
<g><path style="opacity:1" fill="#eff0f0" d="M 69.5,22.5 C 66.7425,23.8182 63.5758,24.4848 60,24.5C 56.6482,24.4982 53.4815,24.1649 50.5,23.5C 54.479,18.8544 58.8123,14.521 63.5,10.5C 67.0888,13.6776 69.0888,17.6776 69.5,22.5 Z"/></g>
<g><path style="opacity:1" fill="#8e9093" d="M 69.5,22.5 C 70.404,23.209 70.7373,24.209 70.5,25.5C 63.4684,25.8303 56.4684,25.497 49.5,24.5C 49.6236,23.8933 49.9569,23.56 50.5,23.5C 53.4815,24.1649 56.6482,24.4982 60,24.5C 63.5758,24.4848 66.7425,23.8182 69.5,22.5 Z"/></g>
<g><path style="opacity:1" fill="#030303" d="M 22.5,25.5 C 29.8333,25.5 37.1667,25.5 44.5,25.5C 44.7135,27.1439 44.3802,28.6439 43.5,30C 36.8333,30.6667 30.1667,30.6667 23.5,30C 22.6198,28.6439 22.2865,27.1439 22.5,25.5 Z"/></g>
<g><path style="opacity:1" fill="#f7f8f8" d="M 50.5,30.5 C 56.8333,30.5 63.1667,30.5 69.5,30.5C 69.3711,36.0973 67.5378,41.0973 64,45.5C 58.9002,40.9076 54.4002,35.9076 50.5,30.5 Z"/></g>
</svg>
