<?xml version="1.0" encoding="UTF-8"?>
<!DOCTYPE svg PUBLIC "-//W3C//DTD SVG 1.1//EN" "http://www.w3.org/Graphics/SVG/1.1/DTD/svg11.dtd">
<svg xmlns="http://www.w3.org/2000/svg" version="1.1" width="96px" height="96px" style="shape-rendering:geometricPrecision; text-rendering:geometricPrecision; image-rendering:optimizeQuality; fill-rule:evenodd; clip-rule:evenodd" xmlns:xlink="http://www.w3.org/1999/xlink">
<g><path style="opacity:0.824" fill="#0a0a0a" d="M 6.5,-0.5 C 33.8333,-0.5 61.1667,-0.5 88.5,-0.5C 91.5497,1.54906 93.883,4.21573 95.5,7.5C 95.5,33.8333 95.5,60.1667 95.5,86.5C 93.4378,90.8947 90.1045,93.8947 85.5,95.5C 59.8333,95.5 34.1667,95.5 8.5,95.5C 4.47409,93.9871 1.47409,91.3204 -0.5,87.5C -0.5,60.5 -0.5,33.5 -0.5,6.5C 1.5,3.83333 3.83333,1.5 6.5,-0.5 Z"/></g>
<g><path style="opacity:1" fill="#fafafa" d="M 8.5,1.5 C 34.5021,1.33336 60.5021,1.50003 86.5,2C 88.6238,3.12173 90.4571,4.62173 92,6.5C 92.6667,33.5 92.6667,60.5 92,87.5C 90.8333,88.6667 89.6667,89.8333 88.5,91C 61.5868,92.6487 34.5868,92.982 7.5,92C 4.61931,90.7494 2.78597,88.5827 2,85.5C 1.33333,59.8333 1.33333,34.1667 2,8.5C 3.42497,5.3937 5.59164,3.06036 8.5,1.5 Z"/></g>
<g><path style="opacity:1" fill="#696a6c" d="M 49.5,5.5 C 48.1667,5.5 46.8333,5.5 45.5,5.5C 45.5,7.5 45.5,9.5 45.5,11.5C 44.5,11.5 43.5,11.5 42.5,11.5C 44.1484,9.54409 44.8151,7.21076 44.5,4.5C 46.4147,4.21552 48.0813,4.54885 49.5,5.5 Z"/></g>
<g><path style="opacity:1" fill="#060606" d="M 49.5,5.5 C 49.5,7.5 49.5,9.5 49.5,11.5C 61.4169,12.4189 68.0835,18.7522 69.5,30.5C 64.8468,31.0008 60.5135,30.3342 56.5,28.5C 56.5,23.8333 54.1667,21.5 49.5,21.5C 49.1707,27.5368 49.5041,33.5368 50.5,39.5C 70.1119,44.3847 75.2786,55.718 66,73.5C 61.5425,77.2124 56.3758,79.379 50.5,80C 49.5495,83.0567 49.2161,86.2234 49.5,89.5C 47.8333,89.5 46.1667,89.5 44.5,89.5C 44.5,86.5 44.5,83.5 44.5,80.5C 30.656,79.6567 23.656,72.3234 23.5,58.5C 28.1532,57.9992 32.4865,58.6658 36.5,60.5C 36.2775,65.5999 38.6108,68.5999 43.5,69.5C 43.56,70.0431 43.8933,70.3764 44.5,70.5C 45.8181,63.6778 45.8181,57.0112 44.5,50.5C 26.9583,46.7557 21.4583,36.4224 28,19.5C 31.5049,14.3326 36.3382,11.666 42.5,11.5C 43.5,11.5 44.5,11.5 45.5,11.5C 45.5,9.5 45.5,7.5 45.5,5.5C 46.8333,5.5 48.1667,5.5 49.5,5.5 Z"/></g>
<g><path style="opacity:1" fill="#f4f4f4" d="M 41.5,21.5 C 42.5,21.5 43.5,21.5 44.5,21.5C 44.8282,26.8746 44.4948,32.2079 43.5,37.5C 37.7984,34.9668 35.9651,30.6335 38,24.5C 39.1451,23.3636 40.3117,22.3636 41.5,21.5 Z"/></g>
<g><path style="opacity:1" fill="#666769" d="M 56.5,28.5 C 60.5135,30.3342 64.8468,31.0008 69.5,30.5C 65.3656,31.4849 61.0323,31.8182 56.5,31.5C 56.5,30.5 56.5,29.5 56.5,28.5 Z"/></g>
<g><path style="opacity:1" fill="#606163" d="M 44.5,50.5 C 45.8181,57.0112 45.8181,63.6778 44.5,70.5C 43.8933,70.3764 43.56,70.0431 43.5,69.5C 44.4902,63.3554 44.8235,57.0221 44.5,50.5 Z"/></g>
<g><path style="opacity:1" fill="#f4f5f5" d="M 49.5,52.5 C 57.0643,53.7188 59.5643,58.0521 57,65.5C 55.2845,68.3974 52.7845,69.7307 49.5,69.5C 49.5,63.8333 49.5,58.1667 49.5,52.5 Z"/></g>
<g><path style="opacity:1" fill="#909294" d="M 23.5,58.5 C 27.6344,57.5151 31.9677,57.1818 36.5,57.5C 36.5,58.5 36.5,59.5 36.5,60.5C 32.4865,58.6658 28.1532,57.9992 23.5,58.5 Z"/></g>
</svg>
