<?xml version="1.0" encoding="UTF-8"?>
<!DOCTYPE svg PUBLIC "-//W3C//DTD SVG 1.1//EN" "http://www.w3.org/Graphics/SVG/1.1/DTD/svg11.dtd">
<svg xmlns="http://www.w3.org/2000/svg" version="1.1" width="96px" height="96px" style="shape-rendering:geometricPrecision; text-rendering:geometricPrecision; image-rendering:optimizeQuality; fill-rule:evenodd; clip-rule:evenodd" xmlns:xlink="http://www.w3.org/1999/xlink">
<g><path style="opacity:0.799" fill="#151516" d="M 8.5,-0.5 C 34.1667,-0.5 59.8333,-0.5 85.5,-0.5C 90.5,1.16667 93.8333,4.5 95.5,9.5C 95.5,34.8333 95.5,60.1667 95.5,85.5C 94.6589,89.8397 92.3255,93.173 88.5,95.5C 61.1667,95.5 33.8333,95.5 6.5,95.5C 3.56772,94.2003 1.23438,92.2003 -0.5,89.5C -0.5,61.8333 -0.5,34.1667 -0.5,6.5C 1.64005,3.02275 4.64005,0.689416 8.5,-0.5 Z"/></g>
<g><path style="opacity:1" fill="#fbfbfb" d="M 6.5,2.5 C 33.5021,2.33336 60.5021,2.50003 87.5,3C 88.9308,3.46524 90.0975,4.29857 91,5.5C 92.6491,33.0801 92.9825,60.7467 92,88.5C 90.8333,90.3333 89.3333,91.8333 87.5,93C 60.5,93.6667 33.5,93.6667 6.5,93C 5.33333,91.8333 4.16667,90.6667 3,89.5C 1.3511,62.2534 1.01777,34.92 2,7.5C 3.05915,5.34079 4.55915,3.67413 6.5,2.5 Z"/></g>
<g><path style="opacity:1" fill="#181818" d="M 42.5,19.5 C 46.8461,19.3343 51.1794,19.501 55.5,20C 57.7515,23.1676 59.7515,26.5009 61.5,30C 60.0563,30.7805 58.723,30.6139 57.5,29.5C 56.7657,27.1851 55.4324,25.3518 53.5,24C 49.8333,23.6667 46.1667,23.3333 42.5,23C 41.3157,21.8545 41.3157,20.6879 42.5,19.5 Z"/></g>
<g><path style="opacity:1" fill="#0c0c0c" d="M 65.5,24.5 C 66.8333,24.5 68.1667,24.5 69.5,24.5C 69.5,27.5 69.5,30.5 69.5,33.5C 63.8917,32.3328 62.5584,29.3328 65.5,24.5 Z"/></g>
<g><path style="opacity:1" fill="#040405" d="M 59.5,60.5 C 51.8333,60.5 44.1667,60.5 36.5,60.5C 36.7373,59.209 36.404,58.209 35.5,57.5C 34.5998,53.4186 32.5998,49.9186 29.5,47C 24.2375,44.2455 18.7375,42.0789 13,40.5C 11.7425,40.1501 11.4092,39.4835 12,38.5C 13.3894,36.7727 15.0561,35.4394 17,34.5C 27.3333,37.8333 37.6667,41.1667 48,44.5C 51.6698,40.9968 55.1698,37.3302 58.5,33.5C 63.751,35.3061 69.0843,36.8061 74.5,38C 78.1668,39.1043 81.5001,40.7709 84.5,43C 74.208,41.233 66.3746,44.733 61,53.5C 60.023,55.74 59.523,58.0733 59.5,60.5 Z"/></g>
<g><path style="opacity:1" fill="#060607" d="M 15.5,49.5 C 28.1955,49.0255 33.6955,55.0255 32,67.5C 28.4411,74.1079 22.9411,76.6079 15.5,75C 8.54738,71.1579 6.04738,65.3246 8,57.5C 10.0282,54.3078 12.5282,51.6411 15.5,49.5 Z"/></g>
<g><path style="opacity:1" fill="#070708" d="M 69.5,52.5 C 82.0452,50.8766 87.2118,56.2099 85,68.5C 80.3773,75.9397 74.2106,77.4397 66.5,73C 60.381,64.9961 61.381,58.1628 69.5,52.5 Z"/></g>
<g><path style="opacity:1" fill="#e9e9ea" d="M 18.5,57.5 C 23.9885,57.504 25.8219,60.1707 24,65.5C 17.5343,69.0556 14.8676,67.0556 16,59.5C 16.9947,58.9341 17.828,58.2674 18.5,57.5 Z"/></g>
<g><path style="opacity:1" fill="#e7e7e8" d="M 71.5,59.5 C 78.2248,59.2044 79.8915,61.8711 76.5,67.5C 70.0383,68.0199 68.3716,65.3532 71.5,59.5 Z"/></g>
<g><path style="opacity:1" fill="#929497" d="M 35.5,57.5 C 36.404,58.209 36.7373,59.209 36.5,60.5C 44.1667,60.5 51.8333,60.5 59.5,60.5C 51.6841,61.4924 43.6841,61.8257 35.5,61.5C 35.5,60.1667 35.5,58.8333 35.5,57.5 Z"/></g>
</svg>
