<?xml version="1.0" encoding="UTF-8"?>
<!DOCTYPE svg PUBLIC "-//W3C//DTD SVG 1.1//EN" "http://www.w3.org/Graphics/SVG/1.1/DTD/svg11.dtd">
<svg xmlns="http://www.w3.org/2000/svg" version="1.1" width="96px" height="96px" style="shape-rendering:geometricPrecision; text-rendering:geometricPrecision; image-rendering:optimizeQuality; fill-rule:evenodd; clip-rule:evenodd" xmlns:xlink="http://www.w3.org/1999/xlink">
<g><path style="opacity:0.796" fill="#010102" d="M 8.5,-0.5 C 34.5,-0.5 60.5,-0.5 86.5,-0.5C 90.7425,0.741084 93.7425,3.40775 95.5,7.5C 95.5,34.1667 95.5,60.8333 95.5,87.5C 93.9098,90.7608 91.5765,93.4274 88.5,95.5C 61.5,95.5 34.5,95.5 7.5,95.5C 3.85875,93.8588 1.19208,91.1921 -0.5,87.5C -0.5,60.8333 -0.5,34.1667 -0.5,7.5C 1.58053,3.75025 4.58053,1.08358 8.5,-0.5 Z"/></g>
<g><path style="opacity:1" fill="#f8f8f8" d="M 8.5,1.5 C 34.5021,1.33336 60.5021,1.50003 86.5,2C 88.96,3.4578 91.1266,5.29113 93,7.5C 93.6667,34.1667 93.6667,60.8333 93,87.5C 91.8333,90 90,91.8333 87.5,93C 60.8333,93.6667 34.1667,93.6667 7.5,93C 5,91.8333 3.16667,90 2,87.5C 1.33333,61.1667 1.33333,34.8333 2,8.5C 3.69406,5.64238 5.86073,3.30904 8.5,1.5 Z"/></g>
<g><path style="opacity:1" fill="#050505" d="M 44.5,11.5 C 55.6629,9.89319 65.6629,12.3932 74.5,19C 78.8679,23.033 82.8679,27.3663 86.5,32C 80.3682,30.4307 75.0348,31.9307 70.5,36.5C 62.0789,26.5706 52.0789,18.7373 40.5,13C 42.0581,12.79 43.3915,12.29 44.5,11.5 Z"/></g>
<g><path style="opacity:1" fill="#050506" d="M 32.5,14.5 C 33.552,14.3505 34.552,14.5172 35.5,15C 31.5473,25.3642 29.8806,36.1975 30.5,47.5C 21.6616,46.501 14.1616,49.1677 8,55.5C 9.62326,41.0842 15.4566,28.5842 25.5,18C 27.9252,16.7874 30.2585,15.6207 32.5,14.5 Z"/></g>
<g><path style="opacity:1" fill="#0e0e0f" d="M 38.5,16.5 C 49.2998,20.7465 58.6331,27.2465 66.5,36C 63.0207,35.0293 59.354,34.5293 55.5,34.5C 53.1667,34.6667 50.8333,34.8333 48.5,35C 48.0426,35.414 47.7093,35.914 47.5,36.5C 53.9108,53.4013 59.9108,70.4013 65.5,87.5C 64.5,87.5 63.5,87.5 62.5,87.5C 57.4961,71.3214 51.9961,55.3214 46,39.5C 44.4117,37.0323 42.5784,36.8657 40.5,39C 37.9598,41.2047 35.7932,43.7047 34,46.5C 32.3667,35.8798 33.8667,25.8798 38.5,16.5 Z"/></g>
</svg>
