<?xml version="1.0" encoding="UTF-8"?>
<!DOCTYPE svg PUBLIC "-//W3C//DTD SVG 1.1//EN" "http://www.w3.org/Graphics/SVG/1.1/DTD/svg11.dtd">
<svg xmlns="http://www.w3.org/2000/svg" version="1.1" width="96px" height="96px" style="shape-rendering:geometricPrecision; text-rendering:geometricPrecision; image-rendering:optimizeQuality; fill-rule:evenodd; clip-rule:evenodd" xmlns:xlink="http://www.w3.org/1999/xlink">
<g><path style="opacity:0.802" fill="#0e0e0f" d="M 6.5,-0.5 C 33.8333,-0.5 61.1667,-0.5 88.5,-0.5C 91.9773,1.64005 94.3106,4.64005 95.5,8.5C 95.5,34.1667 95.5,59.8333 95.5,85.5C 93.8333,90.5 90.5,93.8333 85.5,95.5C 60.1667,95.5 34.8333,95.5 9.5,95.5C 5.03744,94.2659 1.70411,91.5992 -0.5,87.5C -0.5,60.5 -0.5,33.5 -0.5,6.5C 1.16667,3.5 3.5,1.16667 6.5,-0.5 Z"/></g>
<g><path style="opacity:1" fill="#f9f9f9" d="M 6.5,1.5 C 33.1687,1.33336 59.8354,1.50003 86.5,2C 90,2.83333 92.1667,5 93,8.5C 93.6667,34.1667 93.6667,59.8333 93,85.5C 92.2078,87.5873 91.0412,89.4207 89.5,91C 61.9199,92.6491 34.2533,92.9825 6.5,92C 5.33333,90.8333 4.16667,89.6667 3,88.5C 1.35133,61.5868 1.018,34.5868 2,7.5C 3.33203,5.34004 4.83203,3.34004 6.5,1.5 Z"/></g>
<g><path style="opacity:1" fill="#0c0c0c" d="M 52.5,22.5 C 51.8333,21.1667 50.8333,20.1667 49.5,19.5C 47.9461,12.2235 50.9461,9.3902 58.5,11C 63.8233,18.4258 61.8233,22.2592 52.5,22.5 Z"/></g>
<g><path style="opacity:1" fill="#070707" d="M 48.5,20.5 C 49.1667,21.8333 50.1667,22.8333 51.5,23.5C 52.9009,26.6339 54.5675,29.6339 56.5,32.5C 60.7956,33.3275 65.1289,33.8275 69.5,34C 70.8333,35.3333 70.8333,36.6667 69.5,38C 64.5,38.6667 59.5,38.6667 54.5,38C 52.3799,35.5913 50.3799,33.0913 48.5,30.5C 44.8089,32.6486 42.6422,35.6486 42,39.5C 44.8349,40.9164 47.5015,42.583 50,44.5C 50.6667,52.1667 50.6667,59.8333 50,67.5C 47.7328,68.9348 45.7328,68.6015 44,66.5C 43.6667,61.1667 43.3333,55.8333 43,50.5C 38.5,48 34,45.5 29.5,43C 27.5561,40.8471 27.0561,38.3471 28,35.5C 33.1667,30.3333 38.3333,25.1667 43.5,20C 45.3869,19.2204 47.0536,19.3871 48.5,20.5 Z"/></g>
<g><path style="opacity:1" fill="#949597" d="M 49.5,19.5 C 50.8333,20.1667 51.8333,21.1667 52.5,22.5C 51.8333,22.5 51.5,22.8333 51.5,23.5C 50.1667,22.8333 49.1667,21.8333 48.5,20.5C 49.1667,20.5 49.5,20.1667 49.5,19.5 Z"/></g>
<g><path style="opacity:1" fill="#151516" d="M 15.5,47.5 C 31.8327,45.3429 39.666,52.3429 39,68.5C 34.6541,78.2573 27.1541,82.0907 16.5,80C 6.07284,74.0519 3.23951,65.5519 8,54.5C 10.3959,51.9334 12.8959,49.6 15.5,47.5 Z"/></g>
<g><path style="opacity:1" fill="#121212" d="M 65.5,47.5 C 83.8764,46.2695 91.0431,54.6029 87,72.5C 81.6336,79.9243 74.4669,82.4243 65.5,80C 56.3312,74.4957 53.4978,66.6624 57,56.5C 59.3622,52.9734 62.1955,49.9734 65.5,47.5 Z"/></g>
<g><path style="opacity:1" fill="#f8f8f8" d="M 16.5,50.5 C 25.8466,48.4227 32.3466,51.756 36,60.5C 36.1881,72.9738 30.0215,78.4738 17.5,77C 6.00944,68.455 5.6761,59.6217 16.5,50.5 Z"/></g>
<g><path style="opacity:1" fill="#f9f9f9" d="M 68.5,50.5 C 81.7121,50.2089 87.2121,56.5422 85,69.5C 79.4998,77.6643 72.3332,79.4976 63.5,75C 57.9231,69.1463 57.0898,62.6463 61,55.5C 63.1699,53.1769 65.6699,51.5103 68.5,50.5 Z"/></g>
</svg>
