<?xml version="1.0" encoding="UTF-8"?>
<!DOCTYPE svg PUBLIC "-//W3C//DTD SVG 1.1//EN" "http://www.w3.org/Graphics/SVG/1.1/DTD/svg11.dtd">
<svg xmlns="http://www.w3.org/2000/svg" version="1.1" width="96px" height="96px" style="shape-rendering:geometricPrecision; text-rendering:geometricPrecision; image-rendering:optimizeQuality; fill-rule:evenodd; clip-rule:evenodd" xmlns:xlink="http://www.w3.org/1999/xlink">
<g><path style="opacity:0.8" fill="#010101" d="M 8.5,-0.5 C 34.5,-0.5 60.5,-0.5 86.5,-0.5C 90.3599,0.689416 93.3599,3.02275 95.5,6.5C 95.5,33.8333 95.5,61.1667 95.5,88.5C 93.5,91.1667 91.1667,93.5 88.5,95.5C 61.5,95.5 34.5,95.5 7.5,95.5C 3.40775,93.7425 0.741084,90.7425 -0.5,86.5C -0.5,60.8333 -0.5,35.1667 -0.5,9.5C 1.07835,4.91997 4.07835,1.58664 8.5,-0.5 Z"/></g>
<g><path style="opacity:1" fill="#f6f6f6" d="M 9.5,1.5 C 35.1688,1.33336 60.8355,1.50003 86.5,2C 89.1707,3.24999 91.3374,5.08333 93,7.5C 93.6667,34.1667 93.6667,60.8333 93,87.5C 92.2155,89.286 91.0488,90.786 89.5,92C 62.2534,93.6489 34.92,93.9822 7.5,93C 5.08333,91.3374 3.24999,89.1707 2,86.5C 1.33333,60.8333 1.33333,35.1667 2,9.5C 3.35318,5.64987 5.85318,2.9832 9.5,1.5 Z"/></g>
<g><path style="opacity:1" fill="#040404" d="M 45.5,17.5 C 46.2891,17.7828 46.9558,18.2828 47.5,19C 45.9571,20.8783 44.1238,22.3783 42,23.5C 41.4092,24.4835 41.7425,25.1501 43,25.5C 57.9178,29.3147 72.7511,33.3147 87.5,37.5C 87.8333,38.1667 88.1667,38.8333 88.5,39.5C 87.031,43.0428 86.031,46.7095 85.5,50.5C 65.4992,45.7503 45.8325,39.917 26.5,33C 22.2813,29.398 20.7813,24.898 22,19.5C 26.5249,21.2293 31.1916,22.5626 36,23.5C 39.7596,22.3739 42.9263,20.3739 45.5,17.5 Z"/></g>
<g><path style="opacity:1" fill="#19191a" d="M 8.5,34.5 C 20.8306,37.9344 33.1639,41.4344 45.5,45C 44.646,46.0217 43.646,46.8551 42.5,47.5C 31.6085,44.0202 20.6085,40.8535 9.5,38C 8.66337,36.9887 8.33003,35.8221 8.5,34.5 Z"/></g>
<g><path style="opacity:1" fill="#030303" d="M 9.5,78.5 C 9.17311,68.985 9.50644,59.6517 10.5,50.5C 22.8581,53.8391 35.1914,57.0057 47.5,60C 44.1966,56.205 43.6966,52.0383 46,47.5C 51.2,44.4333 55.8667,45.1 60,49.5C 61.5585,56.1957 59.0585,60.3623 52.5,62C 64.4337,65.4789 76.4337,68.6456 88.5,71.5C 88.5,73.8333 88.5,76.1667 88.5,78.5C 84.7759,78.1373 81.1093,77.4707 77.5,76.5C 74.1667,77.1667 70.8333,77.8333 67.5,78.5C 64.5,77.8333 61.5,77.1667 58.5,76.5C 54.8333,77.1667 51.1667,77.8333 47.5,78.5C 44.5,77.8333 41.5,77.1667 38.5,76.5C 35.1255,76.9581 31.7921,77.6248 28.5,78.5C 25.2079,77.6248 21.8745,76.9581 18.5,76.5C 15.494,77.1792 12.494,77.8458 9.5,78.5 Z"/></g>
<g><path style="opacity:1" fill="#626365" d="M 10.5,50.5 C 9.50644,59.6517 9.17311,68.985 9.5,78.5C 8.17747,68.992 8.17747,59.3254 9.5,49.5C 10.1067,49.6236 10.44,49.9569 10.5,50.5 Z"/></g>
<g><path style="opacity:1" fill="#e4e5e6" d="M 50.5,49.5 C 55.3276,49.3852 56.6609,51.5519 54.5,56C 48.7377,56.4178 47.4044,54.2511 50.5,49.5 Z"/></g>
<g><path style="opacity:1" fill="#1d1e1e" d="M 62.5,49.5 C 69.7975,51.6263 77.1309,53.6263 84.5,55.5C 84.5,56.5 84.5,57.5 84.5,58.5C 77.6579,56.3917 70.6579,54.5584 63.5,53C 62.6634,51.9887 62.33,50.8221 62.5,49.5 Z"/></g>
</svg>
