<?xml version="1.0" encoding="UTF-8"?>
<!DOCTYPE svg PUBLIC "-//W3C//DTD SVG 1.1//EN" "http://www.w3.org/Graphics/SVG/1.1/DTD/svg11.dtd">
<svg xmlns="http://www.w3.org/2000/svg" version="1.1" width="96px" height="96px" style="shape-rendering:geometricPrecision; text-rendering:geometricPrecision; image-rendering:optimizeQuality; fill-rule:evenodd; clip-rule:evenodd" xmlns:xlink="http://www.w3.org/1999/xlink">
<g><path style="opacity:0.8" fill="#0e0e0e" d="M 7.5,-0.5 C 34.5,-0.5 61.5,-0.5 88.5,-0.5C 91.1667,1.5 93.5,3.83333 95.5,6.5C 95.5,33.8333 95.5,61.1667 95.5,88.5C 93.4509,91.5497 90.7843,93.883 87.5,95.5C 61.1667,95.5 34.8333,95.5 8.5,95.5C 4.1053,93.4378 1.1053,90.1045 -0.5,85.5C -0.5,59.8333 -0.5,34.1667 -0.5,8.5C 1.01289,4.47409 3.67955,1.47409 7.5,-0.5 Z"/></g>
<g><path style="opacity:1" fill="#f9f9f9" d="M 8.5,1.5 C 34.8354,1.33336 61.1688,1.50003 87.5,2C 89.286,2.78451 90.786,3.95118 92,5.5C 93.6487,32.4132 93.982,59.4132 93,86.5C 92.1667,90 90,92.1667 86.5,93C 60.5,93.6667 34.5,93.6667 8.5,93C 6.71398,92.2155 5.21398,91.0488 4,89.5C 2.35088,61.9199 2.01755,34.2533 3,6.5C 4.72969,4.59809 6.56303,2.93142 8.5,1.5 Z"/></g>
<g><path style="opacity:1" fill="#0c0c0c" d="M 41.5,27.5 C 47.487,26.9773 49.487,29.4773 47.5,35C 43.0496,37.4418 40.383,36.1084 39.5,31C 39.9783,29.6974 40.645,28.5307 41.5,27.5 Z"/></g>
<g><path style="opacity:1" fill="#030304" d="M 34.5,28.5 C 35.8734,28.3433 37.2068,28.51 38.5,29C 35.9841,31.6833 33.3174,34.1833 30.5,36.5C 49.3936,39.2134 68.3936,40.8801 87.5,41.5C 87.3718,45.8814 87.7051,50.2147 88.5,54.5C 82.4126,51.8872 76.2459,51.8872 70,54.5C 63.651,51.9041 57.3177,51.9041 51,54.5C 44.3359,51.834 37.6693,51.834 31,54.5C 26.6302,52.4234 22.1302,52.0901 17.5,53.5C 15.9707,53.4712 14.804,52.8045 14,51.5C 10.9845,46.4749 8.81785,41.1415 7.5,35.5C 14.1491,36.3797 20.8157,36.5464 27.5,36C 30.0386,33.6303 32.3719,31.1303 34.5,28.5 Z"/></g>
<g><path style="opacity:1" fill="#0c0c0c" d="M 82.5,33.5 C 82.5,35.1667 82.5,36.8333 82.5,38.5C 80.1667,38.5 77.8333,38.5 75.5,38.5C 73.5,38.5 71.5,38.5 69.5,38.5C 69.2436,36.2075 69.5769,34.0408 70.5,32C 74.7561,31.3478 78.7561,31.8478 82.5,33.5 Z"/></g>
<g><path style="opacity:1" fill="#959799" d="M 82.5,33.5 C 83.4614,35.2646 83.7947,37.2646 83.5,39.5C 80.6146,39.8064 77.9479,39.4731 75.5,38.5C 77.8333,38.5 80.1667,38.5 82.5,38.5C 82.5,36.8333 82.5,35.1667 82.5,33.5 Z"/></g>
<g><path style="opacity:1" fill="#0d0e0e" d="M 16.5,66.5 C 15.5,66.5 14.5,66.5 13.5,66.5C 13.1849,63.7892 13.8516,61.4559 15.5,59.5C 21.2361,58.1358 26.9028,58.4692 32.5,60.5C 35.4287,59.5371 38.4287,58.8704 41.5,58.5C 44.5713,58.8704 47.5713,59.5371 50.5,60.5C 56.8333,57.8333 63.1667,57.8333 69.5,60.5C 75.8471,57.8363 82.1804,57.8363 88.5,60.5C 88.5,62.5 88.5,64.5 88.5,66.5C 64.4947,67.5491 40.4947,67.5491 16.5,66.5 Z"/></g>
<g><path style="opacity:1" fill="#929497" d="M 15.5,59.5 C 13.8516,61.4559 13.1849,63.7892 13.5,66.5C 14.5,66.5 15.5,66.5 16.5,66.5C 15.4324,67.4345 14.099,67.7678 12.5,67.5C 12.5,64.8333 12.5,62.1667 12.5,59.5C 13.5,59.5 14.5,59.5 15.5,59.5 Z"/></g>
</svg>
