<?xml version="1.0" encoding="UTF-8"?>
<!DOCTYPE svg PUBLIC "-//W3C//DTD SVG 1.1//EN" "http://www.w3.org/Graphics/SVG/1.1/DTD/svg11.dtd">
<svg xmlns="http://www.w3.org/2000/svg" version="1.1" width="96px" height="96px" style="shape-rendering:geometricPrecision; text-rendering:geometricPrecision; image-rendering:optimizeQuality; fill-rule:evenodd; clip-rule:evenodd" xmlns:xlink="http://www.w3.org/1999/xlink">
<g><path style="opacity:0.782" fill="#161617" d="M 6.5,-0.5 C 33.5,-0.5 60.5,-0.5 87.5,-0.5C 91.3043,1.966 93.971,5.29934 95.5,9.5C 95.5,34.5 95.5,59.5 95.5,84.5C 94.3374,89.6632 91.3374,93.3299 86.5,95.5C 60.1667,95.5 33.8333,95.5 7.5,95.5C 4.23924,93.9098 1.57257,91.5765 -0.5,88.5C -0.5,61.1667 -0.5,33.8333 -0.5,6.5C 1.5,3.83333 3.83333,1.5 6.5,-0.5 Z"/></g>
<g><path style="opacity:1" fill="#f8f8f8" d="M 7.5,1.5 C 33.8354,1.33336 60.1688,1.50003 86.5,2C 88.6238,3.12173 90.4571,4.62173 92,6.5C 92.6667,33.5 92.6667,60.5 92,87.5C 90.8333,90 89,91.8333 86.5,93C 60.1667,93.6667 33.8333,93.6667 7.5,93C 5.71398,92.2155 4.21398,91.0488 3,89.5C 1.35088,61.9199 1.01755,34.2533 2,6.5C 3.72969,4.59809 5.56303,2.93142 7.5,1.5 Z"/></g>
<g><path style="opacity:1" fill="#0f0f0f" d="M 32.5,11.5 C 39.706,11.2021 42.8727,14.5355 42,21.5C 37.3333,28.1667 32.6667,28.1667 28,21.5C 27.3333,19.8333 27.3333,18.1667 28,16.5C 29.7073,14.9625 31.2073,13.2959 32.5,11.5 Z"/></g>
<g><path style="opacity:1" fill="#030303" d="M 8.5,66.5 C 8.5,61.1667 8.5,55.8333 8.5,50.5C 9.83333,50.5 11.1667,50.5 12.5,50.5C 12.5,49.1667 12.5,47.8333 12.5,46.5C 15.862,39.6098 19.862,33.1098 24.5,27C 26.5,26.3333 28.5,26.3333 30.5,27C 34.761,29.0467 38.9276,31.2133 43,33.5C 45.4771,31.2222 47.4771,28.5555 49,25.5C 50.7261,24.4238 52.5594,24.2571 54.5,25C 55.0585,25.7247 55.3918,26.5581 55.5,27.5C 53.2716,32.2888 50.7716,36.9555 48,41.5C 45.9361,42.5914 43.7695,42.7581 41.5,42C 39.6297,40.6338 37.6297,39.4672 35.5,38.5C 33.4197,40.9928 31.5864,43.6595 30,46.5C 29.2506,47.635 29.4173,48.635 30.5,49.5C 41.4534,50.6439 52.4534,50.8105 63.5,50C 66.7676,49.064 69.101,47.064 70.5,44C 78.8314,42.9856 83.8314,46.6523 85.5,55C 85.1517,58.9078 83.8183,62.4078 81.5,65.5C 80.0615,64.9366 78.5615,64.6032 77,64.5C 73.7341,65.464 70.4008,66.1307 67,66.5C 63.758,66.0724 60.5913,65.4058 57.5,64.5C 54.4087,65.4058 51.242,66.0724 48,66.5C 44.4671,65.9822 40.9671,65.3155 37.5,64.5C 34.2987,65.0182 31.1321,65.6849 28,66.5C 24.5199,65.7289 21.0199,65.0622 17.5,64.5C 14.4175,64.8795 11.4175,65.5462 8.5,66.5 Z"/></g>
<g><path style="opacity:1" fill="#909295" d="M 12.5,46.5 C 12.5,47.8333 12.5,49.1667 12.5,50.5C 11.1667,50.5 9.83333,50.5 8.5,50.5C 8.5,55.8333 8.5,61.1667 8.5,66.5C 7.51114,61.0247 7.1778,55.358 7.5,49.5C 8.83333,49.5 10.1667,49.5 11.5,49.5C 11.2627,48.209 11.596,47.209 12.5,46.5 Z"/></g>
<g><path style="opacity:1" fill="#111111" d="M 8.5,81.5 C 8.13152,78.4669 8.79818,75.8002 10.5,73.5C 12.8647,72.4055 15.3647,71.7388 18,71.5C 24.6037,74.1122 31.2703,74.1122 38,71.5C 40.846,72.6444 43.846,73.3111 47,73.5C 53.8317,72.1967 60.6651,72.1967 67.5,73.5C 70.7268,73.5517 73.7268,72.885 76.5,71.5C 80.0968,72.5888 83.7634,73.2555 87.5,73.5C 87.5,76.1667 87.5,78.8333 87.5,81.5C 84.0414,80.6917 80.5414,80.025 77,79.5C 73.5992,79.8693 70.2659,80.536 67,81.5C 60.191,78.8651 53.3577,78.8651 46.5,81.5C 40.4233,78.9251 34.2566,78.9251 28,81.5C 21.4556,78.8608 14.9556,78.8608 8.5,81.5 Z"/></g>
<g><path style="opacity:1" fill="#8f9194" d="M 10.5,73.5 C 8.79818,75.8002 8.13152,78.4669 8.5,81.5C 7.52693,79.0521 7.1936,76.3854 7.5,73.5C 8.5,73.5 9.5,73.5 10.5,73.5 Z"/></g>
</svg>
