<?xml version="1.0" encoding="UTF-8"?>
<!DOCTYPE svg PUBLIC "-//W3C//DTD SVG 1.1//EN" "http://www.w3.org/Graphics/SVG/1.1/DTD/svg11.dtd">
<svg xmlns="http://www.w3.org/2000/svg" version="1.1" width="96px" height="96px" style="shape-rendering:geometricPrecision; text-rendering:geometricPrecision; image-rendering:optimizeQuality; fill-rule:evenodd; clip-rule:evenodd" xmlns:xlink="http://www.w3.org/1999/xlink">
<g><path style="opacity:0.802" fill="#0e0e0e" d="M 7.5,-0.5 C 33.8333,-0.5 60.1667,-0.5 86.5,-0.5C 90.9217,1.58664 93.9217,4.91997 95.5,9.5C 95.5,34.8333 95.5,60.1667 95.5,85.5C 94.2659,89.9626 91.5992,93.2959 87.5,95.5C 60.5,95.5 33.5,95.5 6.5,95.5C 3.83333,93.5 1.5,91.1667 -0.5,88.5C -0.5,61.1667 -0.5,33.8333 -0.5,6.5C 1.54906,3.45031 4.21573,1.11698 7.5,-0.5 Z"/></g>
<g><path style="opacity:1" fill="#f8f8f8" d="M 8.5,1.5 C 34.1688,1.33336 59.8355,1.50003 85.5,2C 87.5873,2.79217 89.4207,3.95884 91,5.5C 92.6491,33.0801 92.9825,60.7467 92,88.5C 90.5,90 89,91.5 87.5,93C 60.8333,93.6667 34.1667,93.6667 7.5,93C 5.71398,92.2155 4.21398,91.0488 3,89.5C 1.3511,62.2534 1.01777,34.92 2,7.5C 3.49363,4.68648 5.6603,2.68648 8.5,1.5 Z"/></g>
<g><path style="opacity:1" fill="#040404" d="M 35.5,10.5 C 44.1709,10.1785 46.5042,13.8452 42.5,21.5C 35.2023,23.7009 32.0356,21.0343 33,13.5C 34.045,12.6266 34.8783,11.6266 35.5,10.5 Z"/></g>
<g><path style="opacity:1" fill="#020202" d="M 77.5,11.5 C 79.717,12.3686 82.0504,12.702 84.5,12.5C 84.6666,35.5024 84.5,58.5024 84,81.5C 83.5,82 83,82.5 82.5,83C 65.5033,83.4999 48.5033,83.6666 31.5,83.5C 31.5,82.1667 31.5,80.8333 31.5,79.5C 38.2546,78.4768 44.9213,77.1434 51.5,75.5C 51.3184,73.4086 51.6518,71.4086 52.5,69.5C 57.5468,68.5474 62.0468,66.5474 66,63.5C 66.6667,61.8333 66.6667,60.1667 66,58.5C 64.2054,54.9484 62.7054,51.2817 61.5,47.5C 62.8398,42.3135 64.6731,37.3135 67,32.5C 69.3333,31.1667 71.6667,29.8333 74,28.5C 75.3615,22.8589 76.5281,17.1922 77.5,11.5 Z"/></g>
<g><path style="opacity:1" fill="#0a0a0a" d="M 19.5,19.5 C 23.9836,19.2887 25.8169,21.2887 25,25.5C 22.3653,30.2983 19.5319,34.9649 16.5,39.5C 12.3623,41.188 10.529,39.8547 11,35.5C 14.1133,30.2713 16.9466,24.938 19.5,19.5 Z"/></g>
<g><path style="opacity:1" fill="#070707" d="M 30.5,23.5 C 33.2165,23.6785 35.8832,24.1785 38.5,25C 41.1667,28.3333 43.8333,31.6667 46.5,35C 49.6478,36.6047 52.9811,37.6047 56.5,38C 59.473,39.2242 60.1397,41.2242 58.5,44C 53.7498,44.2018 49.0831,43.5352 44.5,42C 42.5,41.3333 41.1667,40 40.5,38C 39.8333,37.3333 39.1667,37.3333 38.5,38C 36.8262,41.0159 35.1595,44.0159 33.5,47C 37.1919,49.2668 41.0253,51.4335 45,53.5C 46.1662,59.4911 46.8329,65.4911 47,71.5C 45.1917,73.3959 43.025,73.8959 40.5,73C 39.304,68.1248 37.9707,63.2915 36.5,58.5C 33.357,57.0649 30.1904,55.7315 27,54.5C 26.8272,59.5836 26.1606,64.5836 25,69.5C 22.7263,73.7136 20.7263,78.0469 19,82.5C 15.1464,86.7207 12.313,86.0541 10.5,80.5C 16.9266,68.7496 19.4266,56.0829 18,42.5C 21.6933,35.7589 25.8599,29.4256 30.5,23.5 Z"/></g>
</svg>
