<?xml version="1.0" encoding="UTF-8"?>
<!DOCTYPE svg PUBLIC "-//W3C//DTD SVG 1.1//EN" "http://www.w3.org/Graphics/SVG/1.1/DTD/svg11.dtd">
<svg xmlns="http://www.w3.org/2000/svg" version="1.1" width="96px" height="96px" style="shape-rendering:geometricPrecision; text-rendering:geometricPrecision; image-rendering:optimizeQuality; fill-rule:evenodd; clip-rule:evenodd" xmlns:xlink="http://www.w3.org/1999/xlink">
<g><path style="opacity:0.8" fill="#0e0e0e" d="M 7.5,-0.5 C 34.1667,-0.5 60.8333,-0.5 87.5,-0.5C 90.7608,1.09021 93.4274,3.42355 95.5,6.5C 95.5,33.8333 95.5,61.1667 95.5,88.5C 93.4274,91.5765 90.7608,93.9098 87.5,95.5C 60.8333,95.5 34.1667,95.5 7.5,95.5C 3.65807,93.0035 0.991401,89.6702 -0.5,85.5C -0.5,60.1667 -0.5,34.8333 -0.5,9.5C 0.72221,5.07787 3.38888,1.74454 7.5,-0.5 Z"/></g>
<g><path style="opacity:1" fill="#f7f7f7" d="M 8.5,1.5 C 34.8354,1.33336 61.1688,1.50003 87.5,2C 89.286,2.78451 90.786,3.95118 92,5.5C 93.6489,32.7466 93.9822,60.08 93,87.5C 91.7494,90.3807 89.5827,92.214 86.5,93C 60.5,93.6667 34.5,93.6667 8.5,93C 6.71398,92.2155 5.21398,91.0488 4,89.5C 2.35088,61.9199 2.01755,34.2533 3,6.5C 4.72969,4.59809 6.56303,2.93142 8.5,1.5 Z"/></g>
<g><path style="opacity:1" fill="#101111" d="M 65.5,7.5 C 73.8514,7.73932 76.1847,11.5727 72.5,19C 65.388,21.5545 61.888,19.0545 62,11.5C 63.3756,10.2949 64.5423,8.9616 65.5,7.5 Z"/></g>
<g><path style="opacity:1" fill="#060607" d="M 44.5,18.5 C 50.5092,18.3338 56.5092,18.5005 62.5,19C 66.0152,22.6824 69.6819,26.1824 73.5,29.5C 76.3174,27.1833 78.9841,24.6833 81.5,22C 84.2371,20.9202 85.9037,21.7536 86.5,24.5C 83.4224,29.0844 79.7557,33.2511 75.5,37C 74.1667,37.6667 72.8333,37.6667 71.5,37C 69.6152,34.7776 67.4485,32.9443 65,31.5C 62.0664,34.4336 59.0664,37.4336 56,40.5C 55.3333,41.1667 55.3333,41.8333 56,42.5C 59.7585,45.751 62.9251,49.4177 65.5,53.5C 63.2407,62.039 60.9073,70.539 58.5,79C 56.5594,79.7429 54.7261,79.5762 53,78.5C 53.4087,71.1302 54.0754,63.7969 55,56.5C 52.5,54 50,51.5 47.5,49C 43.4123,51.0485 39.7456,54.0485 36.5,58C 28.8333,58.6667 21.1667,58.6667 13.5,58C 10.8333,55.6667 10.8333,53.3333 13.5,51C 19.1667,50.6667 24.8333,50.3333 30.5,50C 37.7357,42.1873 44.7357,34.1873 51.5,26C 49.5,25.3333 47.5,25.3333 45.5,26C 42.6872,29.6472 39.6872,33.1472 36.5,36.5C 30.1167,37.8968 28.95,35.8968 33,30.5C 37.0887,26.575 40.922,22.575 44.5,18.5 Z"/></g>
<g><path style="opacity:1" fill="#1a1a1a" d="M 86.5,29.5 C 87.675,29.281 88.675,29.6143 89.5,30.5C 81.5,46.5 73.5,62.5 65.5,78.5C 64.635,79.5827 63.635,79.7494 62.5,79C 70.6395,62.5547 78.6395,46.0547 86.5,29.5 Z"/></g>
<g><path style="opacity:1" fill="#000000" d="M 7.5,35.5 C 14.9131,34.8721 21.9131,35.5388 28.5,37.5C 21.0869,38.1279 14.0869,37.4612 7.5,35.5 Z"/></g>
<g><path style="opacity:1" fill="#909294" d="M 7.5,35.5 C 14.0869,37.4612 21.0869,38.1279 28.5,37.5C 21.3524,38.4916 14.0191,38.825 6.5,38.5C 6.26269,37.209 6.59603,36.209 7.5,35.5 Z"/></g>
<g><path style="opacity:1" fill="#1a1a1b" d="M 6.5,54.5 C 13.6315,61.1307 20.6315,67.9641 27.5,75C 29.3839,75.2163 31.0506,75.883 32.5,77C 30.728,78.4868 28.728,78.8201 26.5,78C 21,72.5 15.5,67 10,61.5C 7.77429,59.7153 6.60762,57.3819 6.5,54.5 Z"/></g>
<g><path style="opacity:1" fill="#020202" d="M 87.5,79.5 C 90.0168,81.0771 90.0168,82.9104 87.5,85C 65.1592,85.8331 42.8259,85.6664 20.5,84.5C 42.159,83.6669 63.8256,83.1669 85.5,83C 86.8228,82.1841 87.4894,81.0174 87.5,79.5 Z"/></g>
</svg>
