<?xml version="1.0" encoding="UTF-8"?>
<!DOCTYPE svg PUBLIC "-//W3C//DTD SVG 1.1//EN" "http://www.w3.org/Graphics/SVG/1.1/DTD/svg11.dtd">
<svg xmlns="http://www.w3.org/2000/svg" version="1.1" width="96px" height="97px" style="shape-rendering:geometricPrecision; text-rendering:geometricPrecision; image-rendering:optimizeQuality; fill-rule:evenodd; clip-rule:evenodd" xmlns:xlink="http://www.w3.org/1999/xlink">
<g><path style="opacity:0.723" fill="#1a1b1b" d="M 10.5,-0.5 C 35.1667,-0.5 59.8333,-0.5 84.5,-0.5C 90.0588,0.724425 93.7255,4.05776 95.5,9.5C 95.5,35.1667 95.5,60.8333 95.5,86.5C 93.7255,91.9422 90.0588,95.2756 84.5,96.5C 59.8333,96.5 35.1667,96.5 10.5,96.5C 6.07774,95.45 2.41108,93.1167 -0.5,89.5C -0.5,61.8333 -0.5,34.1667 -0.5,6.5C 2.41108,2.88334 6.07774,0.550008 10.5,-0.5 Z"/></g>
<g><path style="opacity:1" fill="#fefefe" d="M 6.5,2.5 C 33.5021,2.33336 60.5021,2.50003 87.5,3C 88.5786,3.95604 89.7453,4.78937 91,5.5C 92.1506,19.5765 92.6506,33.7431 92.5,48C 92.3333,61.5 92.1667,75 92,88.5C 91.0701,90.5524 89.5701,92.0524 87.5,93C 60.5,93.6667 33.5,93.6667 6.5,93C 5.33333,91.8333 4.16667,90.6667 3,89.5C 1.3511,62.2534 1.01777,34.92 2,7.5C 3.70733,5.96252 5.20733,4.29585 6.5,2.5 Z"/></g>
<g><path style="opacity:1" fill="#000000" d="M 55.5,18.5 C 55.5,25.1667 55.5,31.8333 55.5,38.5C 62.1667,38.5 68.8333,38.5 75.5,38.5C 75.5,44.8333 75.5,51.1667 75.5,57.5C 69.1667,57.5 62.8333,57.5 56.5,57.5C 55.5098,63.6446 55.1765,69.9779 55.5,76.5C 49.1667,76.5 42.8333,76.5 36.5,76.5C 36.5,70.1667 36.5,63.8333 36.5,57.5C 30.1667,57.5 23.8333,57.5 17.5,57.5C 17.5,51.1667 17.5,44.8333 17.5,38.5C 24.1667,38.5 30.8333,38.5 37.5,38.5C 37.7947,36.2646 37.4614,34.2646 36.5,32.5C 36.5,27.8333 36.5,23.1667 36.5,18.5C 42.8333,18.5 49.1667,18.5 55.5,18.5 Z"/></g>
<g><path style="opacity:1" fill="#818385" d="M 55.5,18.5 C 56.4902,24.6446 56.8235,30.9779 56.5,37.5C 63.0221,37.1765 69.3554,37.5098 75.5,38.5C 68.8333,38.5 62.1667,38.5 55.5,38.5C 55.5,31.8333 55.5,25.1667 55.5,18.5 Z"/></g>
<g><path style="opacity:1" fill="#b0b2b4" d="M 36.5,32.5 C 37.4614,34.2646 37.7947,36.2646 37.5,38.5C 30.8333,38.5 24.1667,38.5 17.5,38.5C 17.5,44.8333 17.5,51.1667 17.5,57.5C 16.5093,51.021 16.176,44.3543 16.5,37.5C 23.1667,37.5 29.8333,37.5 36.5,37.5C 36.5,35.8333 36.5,34.1667 36.5,32.5 Z"/></g>
<g><path style="opacity:1" fill="#626365" d="M 56.5,57.5 C 56.5,64.1667 56.5,70.8333 56.5,77.5C 49.6457,77.824 42.979,77.4907 36.5,76.5C 42.8333,76.5 49.1667,76.5 55.5,76.5C 55.1765,69.9779 55.5098,63.6446 56.5,57.5 Z"/></g>
</svg>
