<?xml version="1.0" encoding="UTF-8"?>
<!DOCTYPE svg PUBLIC "-//W3C//DTD SVG 1.1//EN" "http://www.w3.org/Graphics/SVG/1.1/DTD/svg11.dtd">
<svg xmlns="http://www.w3.org/2000/svg" version="1.1" width="96px" height="96px" style="shape-rendering:geometricPrecision; text-rendering:geometricPrecision; image-rendering:optimizeQuality; fill-rule:evenodd; clip-rule:evenodd" xmlns:xlink="http://www.w3.org/1999/xlink">
<g><path style="opacity:0.782" fill="#161617" d="M 10.5,-0.5 C 35.1667,-0.5 59.8333,-0.5 84.5,-0.5C 89.259,0.582438 92.9256,3.2491 95.5,7.5C 95.5,34.5 95.5,61.5 95.5,88.5C 93.5,91.1667 91.1667,93.5 88.5,95.5C 61.1667,95.5 33.8333,95.5 6.5,95.5C 3.42355,93.4274 1.09021,90.7608 -0.5,87.5C -0.5,61.1667 -0.5,34.8333 -0.5,8.5C 1.67009,3.66258 5.33676,0.662583 10.5,-0.5 Z"/></g>
<g><path style="opacity:1" fill="#fafafa" d="M 7.5,2.5 C 34.1687,2.33336 60.8354,2.50003 87.5,3C 89.286,3.78451 90.786,4.95118 92,6.5C 93.6487,33.4132 93.982,60.4132 93,87.5C 92.2155,89.286 91.0488,90.786 89.5,92C 62.2534,93.6489 34.92,93.9822 7.5,93C 5,91.8333 3.16667,90 2,87.5C 1.33333,61.1667 1.33333,34.8333 2,8.5C 3.35968,5.97739 5.19301,3.97739 7.5,2.5 Z"/></g>
<g><path style="opacity:1" fill="#131314" d="M 71.5,12.5 C 75.8461,12.3343 80.1794,12.501 84.5,13C 85.7112,13.8928 85.7112,14.7261 84.5,15.5C 78.0583,14.1434 71.725,14.6434 65.5,17C 59.3395,19.577 53.6729,22.9104 48.5,27C 39.6014,35.0357 30.6014,43.369 21.5,52C 15.0195,54.2699 11.3528,52.1032 10.5,45.5C 10.4062,43.0884 11.4062,41.255 13.5,40C 16.6019,37.9636 19.9352,36.9636 23.5,37C 20.9598,39.2047 18.7932,41.7047 17,44.5C 16.3946,42.5188 15.3946,42.1854 14,43.5C 13.1712,48.5903 15.3378,50.4236 20.5,49C 26.0313,43.134 31.8647,37.634 38,32.5C 38.3104,27.8585 40.8104,25.6918 45.5,26C 53.3285,19.5879 61.9952,15.0879 71.5,12.5 Z"/></g>
<g><path style="opacity:1" fill="#050505" d="M 71.5,42.5 C 76.1667,42.5 80.8333,42.5 85.5,42.5C 85.5,55.8333 85.5,69.1667 85.5,82.5C 73.4824,82.93 61.8157,81.0967 50.5,77C 44.4044,74.4501 38.7378,71.1168 33.5,67C 53.0443,68.1906 54.0443,65.1906 36.5,58C 36.0426,57.586 35.7093,57.086 35.5,56.5C 39.3318,53.7497 43.3318,51.2497 47.5,49C 55.5257,46.5068 63.5257,44.3401 71.5,42.5 Z"/></g>
<g><path style="opacity:1" fill="#e4e4e5" d="M 53.5,53.5 C 57.35,53.7007 58.35,55.5341 56.5,59C 51.2894,59.5464 50.2894,57.713 53.5,53.5 Z"/></g>
</svg>
