<?xml version="1.0" encoding="UTF-8"?>
<!DOCTYPE svg PUBLIC "-//W3C//DTD SVG 1.1//EN" "http://www.w3.org/Graphics/SVG/1.1/DTD/svg11.dtd">
<svg xmlns="http://www.w3.org/2000/svg" version="1.1" width="96px" height="96px" style="shape-rendering:geometricPrecision; text-rendering:geometricPrecision; image-rendering:optimizeQuality; fill-rule:evenodd; clip-rule:evenodd" xmlns:xlink="http://www.w3.org/1999/xlink">
<g><path style="opacity:0.795" fill="#010101" d="M 6.5,-0.5 C 33.8333,-0.5 61.1667,-0.5 88.5,-0.5C 91.5497,1.54906 93.883,4.21573 95.5,7.5C 95.5,33.8333 95.5,60.1667 95.5,86.5C 93.8333,90.8333 90.8333,93.8333 86.5,95.5C 60.5,95.5 34.5,95.5 8.5,95.5C 4.25752,94.2589 1.25752,91.5922 -0.5,87.5C -0.5,60.5 -0.5,33.5 -0.5,6.5C 1.5,3.83333 3.83333,1.5 6.5,-0.5 Z"/></g>
<g><path style="opacity:1" fill="#f9f9f9" d="M 7.5,1.5 C 34.1687,1.33336 60.8354,1.50003 87.5,2C 90,3.16667 91.8333,5 93,7.5C 93.6667,33.8333 93.6667,60.1667 93,86.5C 91.8783,88.6238 90.3783,90.4571 88.5,92C 61.9202,93.6484 35.2536,93.9818 8.5,93C 6.37623,91.8783 4.5429,90.3783 3,88.5C 1.35133,61.5868 1.018,34.5868 2,7.5C 3.35968,4.97739 5.19301,2.97739 7.5,1.5 Z"/></g>
<g><path style="opacity:1" fill="#131313" d="M 27.5,26.5 C 28.9187,27.4511 30.5853,27.7845 32.5,27.5C 32.5,21.1667 32.5,14.8333 32.5,8.5C 33.5,8.5 34.5,8.5 35.5,8.5C 35.5,14.5 35.5,20.5 35.5,26.5C 36.9187,27.4511 38.5853,27.7845 40.5,27.5C 40.5,21.1667 40.5,14.8333 40.5,8.5C 41.5,8.5 42.5,8.5 43.5,8.5C 43.9172,17.9146 43.4172,27.2479 42,36.5C 41,37.1667 40,37.8333 39,38.5C 38.6667,53.1667 38.3333,67.8333 38,82.5C 35.2455,86.3662 32.5788,86.3662 30,82.5C 29.8328,67.822 29.3328,53.1553 28.5,38.5C 27.1861,37.6872 26.0195,36.6872 25,35.5C 24.5002,26.5062 24.3336,17.5062 24.5,8.5C 25.5,8.5 26.5,8.5 27.5,8.5C 27.5,14.5 27.5,20.5 27.5,26.5 Z"/></g>
<g><path style="opacity:1" fill="#050506" d="M 59.5,8.5 C 61.8568,8.33669 64.1902,8.50335 66.5,9C 67.1258,9.75044 67.6258,10.5838 68,11.5C 68.6667,35.5 68.6667,59.5 68,83.5C 65.4082,84.9817 63.0749,84.6483 61,82.5C 60.5002,73.1726 60.3335,63.8393 60.5,54.5C 59.1667,54.5 57.8333,54.5 56.5,54.5C 56.3334,40.1628 56.5001,25.8295 57,11.5C 58.045,10.6266 58.8783,9.62656 59.5,8.5 Z"/></g>
<g><path style="opacity:1" fill="#b4b5b7" d="M 32.5,8.5 C 32.5,14.8333 32.5,21.1667 32.5,27.5C 30.5853,27.7845 28.9187,27.4511 27.5,26.5C 28.8333,26.5 30.1667,26.5 31.5,26.5C 31.1771,20.31 31.5104,14.31 32.5,8.5 Z"/></g>
<g><path style="opacity:1" fill="#b4b5b7" d="M 40.5,8.5 C 40.5,14.8333 40.5,21.1667 40.5,27.5C 38.5853,27.7845 36.9187,27.4511 35.5,26.5C 36.8333,26.5 38.1667,26.5 39.5,26.5C 39.1771,20.31 39.5104,14.31 40.5,8.5 Z"/></g>
</svg>
