<?xml version="1.0" encoding="UTF-8"?>
<!DOCTYPE svg PUBLIC "-//W3C//DTD SVG 1.1//EN" "http://www.w3.org/Graphics/SVG/1.1/DTD/svg11.dtd">
<svg xmlns="http://www.w3.org/2000/svg" version="1.1" width="96px" height="96px" style="shape-rendering:geometricPrecision; text-rendering:geometricPrecision; image-rendering:optimizeQuality; fill-rule:evenodd; clip-rule:evenodd" xmlns:xlink="http://www.w3.org/1999/xlink">
<g><path style="opacity:0.8" fill="#151616" d="M 10.5,-0.5 C 35.5,-0.5 60.5,-0.5 85.5,-0.5C 89.9221,0.72221 93.2555,3.38888 95.5,7.5C 95.5,34.5 95.5,61.5 95.5,88.5C 93.5,91.1667 91.1667,93.5 88.5,95.5C 61.5,95.5 34.5,95.5 7.5,95.5C 3.40076,93.2959 0.734096,89.9626 -0.5,85.5C -0.5,60.1667 -0.5,34.8333 -0.5,9.5C 1.27449,4.05776 4.94116,0.724425 10.5,-0.5 Z"/></g>
<g><path style="opacity:1" fill="#fcfcfc" d="M 7.5,2.5 C 34.1687,2.33336 60.8354,2.50003 87.5,3C 89.286,3.78451 90.786,4.95118 92,6.5C 93.6484,33.0798 93.9818,59.7464 93,86.5C 92.6541,88.8477 91.4875,90.6811 89.5,92C 62.2287,93.6405 34.8953,93.9739 7.5,93C 6,91.5 4.5,90 3,88.5C 2.33333,61.5 2.33333,34.5 3,7.5C 4.36569,5.63834 5.86569,3.97167 7.5,2.5 Z"/></g>
<g><path style="opacity:1" fill="#0a0a0a" d="M 35.5,6.5 C 48.1182,14.6114 60.6182,22.9447 73,31.5C 73.7112,33.3668 73.2112,34.8668 71.5,36C 66.173,36.9435 60.8397,37.7768 55.5,38.5C 56.726,47.0689 58.726,55.4023 61.5,63.5C 60.3333,71.5005 59.1666,79.5005 58,87.5C 56,90.1667 54,90.1667 52,87.5C 52.3333,78.8333 52.6667,70.1667 53,61.5C 46.7519,70.328 40.7519,79.328 35,88.5C 29.6667,90.8333 27.6667,89.1667 29,83.5C 34.9093,75.2589 40.4093,66.7589 45.5,58C 43.9402,51.1512 42.2735,44.3179 40.5,37.5C 40.8333,36.8333 41.1667,36.1667 41.5,35.5C 49.8298,33.7138 58.1632,31.8804 66.5,30C 57.672,23.7519 48.672,17.7519 39.5,12C 37.2413,12.4387 34.908,12.9387 32.5,13.5C 32.6878,10.7939 33.6878,8.46052 35.5,6.5 Z"/></g>
<g><path style="opacity:1" fill="#131314" d="M 39.5,20.5 C 47.5495,20.4574 49.8828,23.9574 46.5,31C 42.6123,33.2225 39.1123,32.7225 36,29.5C 34.9804,25.5532 36.1471,22.5532 39.5,20.5 Z"/></g>
</svg>
