<?xml version="1.0" encoding="UTF-8"?>
<!DOCTYPE svg PUBLIC "-//W3C//DTD SVG 1.1//EN" "http://www.w3.org/Graphics/SVG/1.1/DTD/svg11.dtd">
<svg xmlns="http://www.w3.org/2000/svg" version="1.1" width="88px" height="88px" style="shape-rendering:geometricPrecision; text-rendering:geometricPrecision; image-rendering:optimizeQuality; fill-rule:evenodd; clip-rule:evenodd" xmlns:xlink="http://www.w3.org/1999/xlink">
<g><path style="opacity:0.947" fill="#424242" d="M 60.5,35.5 C 59.8333,35.5 59.5,35.8333 59.5,36.5C 56.438,39.9665 53.1047,42.2998 49.5,43.5C 48.5,43.5 47.5,43.5 46.5,43.5C 44.5,43.5 42.5,43.5 40.5,43.5C 30.3093,41.3051 24.6426,34.9718 23.5,24.5C 26.7124,7.13191 36.7124,1.29858 53.5,7C 63.2819,14.628 65.6152,24.128 60.5,35.5 Z"/></g>
<g><path style="opacity:1" fill="#f7f7f7" d="M 34.5,13.5 C 40.4685,13.6049 41.8018,16.1049 38.5,21C 32.4034,21.1475 31.0701,18.6475 34.5,13.5 Z"/></g>
<g><path style="opacity:0.004" fill="#fefffe" d="M 85.5,33.5 C 86.5983,34.6009 86.765,35.9343 86,37.5C 85.51,36.2068 85.3433,34.8734 85.5,33.5 Z"/></g>
<g><path style="opacity:0.18" fill="#060606" d="M 60.5,35.5 C 66.1555,34.9685 71.8222,35.8019 77.5,38C 86.7447,47.4327 86.7447,56.9327 77.5,66.5C 71.6211,69.8106 65.2877,71.3106 58.5,71C 57.2949,72.3756 55.9616,73.5423 54.5,74.5C 53.0048,74.9887 51.6715,75.6554 50.5,76.5C 49.1667,76.5 47.8333,76.5 46.5,76.5C 46.2786,73.7212 46.612,71.0545 47.5,68.5C 48.8469,65.5684 48.5135,62.9017 46.5,60.5C 46.2307,56.0685 46.564,51.7352 47.5,47.5C 48.1667,46.1667 48.8333,44.8333 49.5,43.5C 53.1047,42.2998 56.438,39.9665 59.5,36.5C 60.1667,36.5 60.5,36.1667 60.5,35.5 Z"/></g>
<g><path style="opacity:0.004" fill="#fefffe" d="M 85.5,40.5 C 86.525,40.8966 86.6917,41.5632 86,42.5C 85.5357,41.9056 85.369,41.2389 85.5,40.5 Z"/></g>
<g><path style="opacity:0.004" fill="#fefffe" d="M 85.5,43.5 C 86.8333,44.1667 86.8333,44.1667 85.5,43.5 Z"/></g>
<g><path style="opacity:0.004" fill="#fefffe" d="M 85.5,46.5 C 86.5735,47.2506 86.7401,48.2506 86,49.5C 85.5172,48.552 85.3505,47.552 85.5,46.5 Z"/></g>
<g><path style="opacity:0.999" fill="#d3d4d4" d="M 45.5,80.5 C 44.1667,81.8333 42.8333,81.8333 41.5,80.5C 41.5,69.1667 41.5,57.8333 41.5,46.5C 42.8221,46.33 43.9887,46.6634 45,47.5C 45.4998,58.495 45.6665,69.495 45.5,80.5 Z"/></g>
<g><path style="opacity:0.004" fill="#fefffe" d="M 85.5,50.5 C 86.8333,51.1667 86.8333,51.1667 85.5,50.5 Z"/></g>
<g><path style="opacity:0.004" fill="#fefffe" d="M 85.5,52.5 C 86.5983,53.6009 86.765,54.9343 86,56.5C 85.51,55.2068 85.3433,53.8734 85.5,52.5 Z"/></g>
<g><path style="opacity:0.749" fill="#b5b6b8" d="M 40.5,43.5 C 42.5,43.5 44.5,43.5 46.5,43.5C 46.2322,45.099 46.5655,46.4324 47.5,47.5C 46.564,51.7352 46.2307,56.0685 46.5,60.5C 46.1936,63.3854 46.5269,66.0521 47.5,68.5C 46.612,71.0545 46.2786,73.7212 46.5,76.5C 46.7678,78.099 46.4345,79.4324 45.5,80.5C 45.6665,69.495 45.4998,58.495 45,47.5C 43.9887,46.6634 42.8221,46.33 41.5,46.5C 41.5,57.8333 41.5,69.1667 41.5,80.5C 40.596,79.791 40.2627,78.791 40.5,77.5C 40.5,76.1667 40.5,74.8333 40.5,73.5C 40.5,63.5 40.5,53.5 40.5,43.5 Z"/></g>
<g><path style="opacity:0.004" fill="#fefffe" d="M 85.5,59.5 C 86.8333,60.1667 86.8333,60.1667 85.5,59.5 Z"/></g>
<g><path style="opacity:0.004" fill="#fefffe" d="M 85.5,61.5 C 86.5735,62.2506 86.7401,63.2506 86,64.5C 85.5172,63.552 85.3505,62.552 85.5,61.5 Z"/></g>
<g><path style="opacity:0.004" fill="#fefffe" d="M 85.5,65.5 C 86.525,65.8966 86.6917,66.5632 86,67.5C 85.5357,66.9056 85.369,66.2389 85.5,65.5 Z"/></g>
<g><path style="opacity:0.004" fill="#fefffe" d="M 85.5,68.5 C 86.5735,69.2506 86.7401,70.2506 86,71.5C 85.5172,70.552 85.3505,69.552 85.5,68.5 Z"/></g>
<g><path style="opacity:0.004" fill="#000000" d="M 85.5,72.5 C 86.5735,73.2506 86.7401,74.2506 86,75.5C 85.5172,74.552 85.3505,73.552 85.5,72.5 Z"/></g>
<g><path style="opacity:0.125" fill="#616161" d="M 40.5,73.5 C 40.5,74.8333 40.5,76.1667 40.5,77.5C 36.3228,76.8416 34.8228,78.5082 36,82.5C 41,85.1667 46,85.1667 51,82.5C 50.8651,80.5753 50.6984,78.5753 50.5,76.5C 51.6715,75.6554 53.0048,74.9887 54.5,74.5C 58.4465,76.2791 59.9465,79.2791 59,83.5C 56.4862,85.0042 53.9862,86.3376 51.5,87.5C 46.5,87.5 41.5,87.5 36.5,87.5C 33.8245,86.6446 31.1579,85.478 28.5,84C 25.7907,80.6946 26.4573,78.028 30.5,76C 33.7679,74.8497 37.1012,74.0164 40.5,73.5 Z"/></g>
<g><path style="opacity:0.004" fill="#fefffe" d="M 85.5,76.5 C 86.525,76.8966 86.6917,77.5632 86,78.5C 85.5357,77.9056 85.369,77.2389 85.5,76.5 Z"/></g>
<g><path style="opacity:0.004" fill="#3b3b3b" d="M 85.5,79.5 C 86.5735,80.2506 86.7401,81.2506 86,82.5C 85.5172,81.552 85.3505,80.552 85.5,79.5 Z"/></g>
<g><path style="opacity:0.664" fill="#3d3d3d" d="M 46.5,76.5 C 47.8333,76.5 49.1667,76.5 50.5,76.5C 50.6984,78.5753 50.8651,80.5753 51,82.5C 46,85.1667 41,85.1667 36,82.5C 34.8228,78.5082 36.3228,76.8416 40.5,77.5C 40.2627,78.791 40.596,79.791 41.5,80.5C 42.8333,81.8333 44.1667,81.8333 45.5,80.5C 46.4345,79.4324 46.7678,78.099 46.5,76.5 Z"/></g>
</svg>
