<?xml version="1.0" encoding="UTF-8"?>
<!DOCTYPE svg PUBLIC "-//W3C//DTD SVG 1.1//EN" "http://www.w3.org/Graphics/SVG/1.1/DTD/svg11.dtd">
<svg xmlns="http://www.w3.org/2000/svg" version="1.1" width="96px" height="96px" style="shape-rendering:geometricPrecision; text-rendering:geometricPrecision; image-rendering:optimizeQuality; fill-rule:evenodd; clip-rule:evenodd" xmlns:xlink="http://www.w3.org/1999/xlink">
<g><path style="opacity:0.78" fill="#1c1c1c" d="M 7.5,-0.5 C 34.5,-0.5 61.5,-0.5 88.5,-0.5C 91.4323,0.799728 93.7656,2.79973 95.5,5.5C 95.5,33.1667 95.5,60.8333 95.5,88.5C 93.3599,91.9773 90.3599,94.3106 86.5,95.5C 60.8333,95.5 35.1667,95.5 9.5,95.5C 4.05776,93.7255 0.724425,90.0588 -0.5,84.5C -0.5,59.5 -0.5,34.5 -0.5,9.5C 0.734096,5.03744 3.40076,1.70411 7.5,-0.5 Z"/></g>
<g><path style="opacity:1" fill="#fafafa" d="M 7.5,1.5 C 34.1687,1.33336 60.8354,1.50003 87.5,2C 89.6238,3.12173 91.4571,4.62173 93,6.5C 93.6667,33.5 93.6667,60.5 93,87.5C 92.5348,88.9308 91.7014,90.0975 90.5,91C 62.9199,92.6491 35.2533,92.9825 7.5,92C 6.06919,91.5348 4.90252,90.7014 4,89.5C 2.35088,61.9199 2.01755,34.2533 3,6.5C 4.70733,4.96252 6.20733,3.29585 7.5,1.5 Z"/></g>
<g><path style="opacity:1" fill="#0f0f0f" d="M 46.5,6.5 C 54.525,7.00581 56.8583,10.8391 53.5,18C 45.9911,20.852 42.4911,18.352 43,10.5C 44.3756,9.29493 45.5423,7.9616 46.5,6.5 Z"/></g>
<g><path style="opacity:1" fill="#040404" d="M 30.5,17.5 C 32.5273,17.3379 34.5273,17.5045 36.5,18C 37.1283,24.5673 36.2949,31.0673 34,37.5C 31.8788,39.4574 29.3788,39.9574 26.5,39C 26.2872,31.6572 27.6205,24.4905 30.5,17.5 Z"/></g>
<g><path style="opacity:1" fill="#040404" d="M 51.5,40.5 C 51.719,39.325 51.3857,38.325 50.5,37.5C 49.2121,39.2985 49.2121,40.9652 50.5,42.5C 53.8252,56.7901 56.6586,71.1234 59,85.5C 56.3134,88.2039 53.8134,88.0372 51.5,85C 48.9219,74.5207 46.4219,64.0207 44,53.5C 40.6333,63.7955 37.8,74.2955 35.5,85C 33.1866,88.0372 30.6866,88.2039 28,85.5C 27.6689,81.4726 28.0023,77.4726 29,73.5C 33.4906,56.5377 37.8239,39.5377 42,22.5C 45.0426,20.0922 48.2093,19.9255 51.5,22C 53.6799,26.1964 55.1799,30.6964 56,35.5C 59.8001,36.6234 63.4668,37.9568 67,39.5C 67.8601,42.4782 66.6934,43.8116 63.5,43.5C 59.3872,42.8051 55.3872,41.8051 51.5,40.5 Z"/></g>
<g><path style="opacity:1" fill="#121313" d="M 73.5,27.5 C 74.7251,28.1522 75.3917,29.3189 75.5,31C 72.4617,50.0817 68.6283,68.9151 64,87.5C 63.3076,86.9747 62.8076,86.3081 62.5,85.5C 66.3808,66.2166 70.0474,46.8833 73.5,27.5 Z"/></g>
<g><path style="opacity:1" fill="#96979a" d="M 51.5,40.5 C 50.6618,40.8417 50.3284,41.5084 50.5,42.5C 49.2121,40.9652 49.2121,39.2985 50.5,37.5C 51.3857,38.325 51.719,39.325 51.5,40.5 Z"/></g>
</svg>
