<?xml version="1.0" encoding="UTF-8"?>
<!DOCTYPE svg PUBLIC "-//W3C//DTD SVG 1.1//EN" "http://www.w3.org/Graphics/SVG/1.1/DTD/svg11.dtd">
<svg xmlns="http://www.w3.org/2000/svg" version="1.1" width="96px" height="96px" style="shape-rendering:geometricPrecision; text-rendering:geometricPrecision; image-rendering:optimizeQuality; fill-rule:evenodd; clip-rule:evenodd" xmlns:xlink="http://www.w3.org/1999/xlink">
<g><path style="opacity:0.798" fill="#010101" d="M 8.5,-0.5 C 34.5,-0.5 60.5,-0.5 86.5,-0.5C 90.0967,1.42632 93.0967,4.09299 95.5,7.5C 95.5,34.1667 95.5,60.8333 95.5,87.5C 93.9098,90.7608 91.5765,93.4274 88.5,95.5C 61.1667,95.5 33.8333,95.5 6.5,95.5C 3.42355,93.4274 1.09021,90.7608 -0.5,87.5C -0.5,60.8333 -0.5,34.1667 -0.5,7.5C 1.58053,3.75025 4.58053,1.08358 8.5,-0.5 Z"/></g>
<g><path style="opacity:1" fill="#f8f8f8" d="M 8.5,1.5 C 34.5021,1.33336 60.5021,1.50003 86.5,2C 88.6238,3.12173 90.4571,4.62173 92,6.5C 93.6484,33.0798 93.9818,59.7464 93,86.5C 92.2078,88.5873 91.0412,90.4207 89.5,92C 62.2534,93.6489 34.92,93.9822 7.5,93C 5,91.8333 3.16667,90 2,87.5C 1.33333,61.1667 1.33333,34.8333 2,8.5C 3.69406,5.64238 5.86073,3.30904 8.5,1.5 Z"/></g>
<g><path style="opacity:1" fill="#0b0b0b" d="M 37.5,8.5 C 44.9905,8.32326 46.9905,11.4899 43.5,18C 38.3076,19.8719 35.3076,18.2052 34.5,13C 34.5572,10.7911 35.5572,9.29108 37.5,8.5 Z"/></g>
<g><path style="opacity:1" fill="#070707" d="M 17.5,57.5 C 18.6497,52.6842 18.8163,47.6842 18,42.5C 17.2828,43.0442 16.7828,43.7109 16.5,44.5C 15.5546,49.4053 15.2213,54.4053 15.5,59.5C 13.5,59.5 11.5,59.5 9.5,59.5C 9.33391,53.8236 9.50058,48.1569 10,42.5C 11.1667,41.3333 12.3333,40.1667 13.5,39C 20.4921,38.5004 27.4921,38.3337 34.5,38.5C 34.3341,33.4889 34.5007,28.4889 35,23.5C 37.332,20.2091 40.1653,19.7091 43.5,22C 45.229,23.7889 45.8957,25.9556 45.5,28.5C 48.5219,28.804 51.5219,29.304 54.5,30C 55.8333,31.3333 55.8333,32.6667 54.5,34C 51.5706,34.7772 48.7372,34.6105 46,33.5C 45.5065,35.1341 45.3398,36.8008 45.5,38.5C 48.1873,38.6641 50.854,38.4974 53.5,38C 61.0314,30.803 68.1981,23.303 75,15.5C 75.3333,17.5 75.6667,19.5 76,21.5C 79.6667,24.1667 83.3333,26.8333 87,29.5C 88.0641,33.4153 86.5641,35.582 82.5,36C 79.6061,40.8147 75.2727,43.3147 69.5,43.5C 63.0425,55.9749 60.5425,69.3082 62,83.5C 59.6667,86.1667 57.3333,86.1667 55,83.5C 54.5003,75.1733 54.3336,66.84 54.5,58.5C 48.4908,58.3338 42.4908,58.5005 36.5,59C 34.1207,61.0254 33.2873,63.5254 34,66.5C 37.9053,72.201 39.7386,78.3676 39.5,85C 37.5594,85.7429 35.7261,85.5762 34,84.5C 30.7166,76.935 27.7166,69.2684 25,61.5C 24.0853,62.3279 23.4186,63.3279 23,64.5C 22.6667,70.8333 22.3333,77.1667 22,83.5C 20.33,85.6983 18.33,86.0317 16,84.5C 15.3333,76.5 15.3333,68.5 16,60.5C 17.0386,59.7562 17.5386,58.7562 17.5,57.5 Z"/></g>
<g><path style="opacity:1" fill="#d9dadb" d="M 74.5,33.5 C 80.418,33.5016 81.418,35.335 77.5,39C 75.5497,40.4961 73.5497,40.6627 71.5,39.5C 72.5133,37.4734 73.5133,35.4734 74.5,33.5 Z"/></g>
<g><path style="opacity:1" fill="#949699" d="M 17.5,57.5 C 17.8182,52.9677 17.4849,48.6344 16.5,44.5C 16.7828,43.7109 17.2828,43.0442 18,42.5C 18.8163,47.6842 18.6497,52.6842 17.5,57.5 Z"/></g>
</svg>
