<?xml version="1.0" encoding="UTF-8"?>
<!DOCTYPE svg PUBLIC "-//W3C//DTD SVG 1.1//EN" "http://www.w3.org/Graphics/SVG/1.1/DTD/svg11.dtd">
<svg xmlns="http://www.w3.org/2000/svg" version="1.1" width="96px" height="96px" style="shape-rendering:geometricPrecision; text-rendering:geometricPrecision; image-rendering:optimizeQuality; fill-rule:evenodd; clip-rule:evenodd" xmlns:xlink="http://www.w3.org/1999/xlink">
<g><path style="opacity:0.779" fill="#161717" d="M 7.5,-0.5 C 34.5,-0.5 61.5,-0.5 88.5,-0.5C 91.5,1.16667 93.8333,3.5 95.5,6.5C 95.5,33.8333 95.5,61.1667 95.5,88.5C 93.4509,91.5497 90.7843,93.883 87.5,95.5C 61.1667,95.5 34.8333,95.5 8.5,95.5C 3.66258,93.3299 0.662583,89.6632 -0.5,84.5C -0.5,59.8333 -0.5,35.1667 -0.5,10.5C 0.447877,5.61189 3.11454,1.94523 7.5,-0.5 Z"/></g>
<g><path style="opacity:1" fill="#fbfbfb" d="M 8.5,1.5 C 34.5021,1.33336 60.5021,1.50003 86.5,2C 89.196,2.68979 91.3626,4.18979 93,6.5C 93.6667,33.5 93.6667,60.5 93,87.5C 91.7494,90.3807 89.5827,92.214 86.5,93C 60.5,93.6667 34.5,93.6667 8.5,93C 6.71398,92.2155 5.21398,91.0488 4,89.5C 2.35088,61.9199 2.01755,34.2533 3,6.5C 4.72969,4.59809 6.56303,2.93142 8.5,1.5 Z"/></g>
<g><path style="opacity:1" fill="#090909" d="M 70.5,16.5 C 79.8483,16.0169 84.3483,20.3502 84,29.5C 79.057,37.3239 73.057,38.3239 66,32.5C 62.9745,25.7419 64.4745,20.4085 70.5,16.5 Z"/></g>
<g><path style="opacity:1" fill="#000000" d="M 40.5,28.5 C 47.5,28.5 54.5,28.5 61.5,28.5C 61.5,29.5 61.5,30.5 61.5,31.5C 54.5,31.5 47.5,31.5 40.5,31.5C 40.5,30.5 40.5,29.5 40.5,28.5 Z"/></g>
<g><path style="opacity:1" fill="#0a0a0a" d="M 7.5,33.5 C 26.1233,34.3081 44.79,34.8081 63.5,35C 64.5,36 65.5,37 66.5,38C 73.5789,38.1145 80.5789,38.7811 87.5,40C 88.4882,51.7527 88.8215,63.5861 88.5,75.5C 80.1667,75.5 71.8333,75.5 63.5,75.5C 63.8303,68.4684 63.497,61.4684 62.5,54.5C 59.3353,56.6033 56.002,57.77 52.5,58C 46.9081,53.6196 41.4081,49.1196 36,44.5C 35.51,43.2068 35.3433,41.8734 35.5,40.5C 26.5147,38.2801 17.1814,37.2801 7.5,37.5C 7.5,36.1667 7.5,34.8333 7.5,33.5 Z"/></g>
<g><path style="opacity:1" fill="#f1f2f2" d="M 46.5,42.5 C 50.3507,41.1905 54.3507,41.1905 58.5,42.5C 58.9767,43.4776 59.6433,44.3109 60.5,45C 58.4117,46.0296 56.245,46.8629 54,47.5C 51.5742,45.7051 49.0742,44.0384 46.5,42.5 Z"/></g>
</svg>
