<?xml version="1.0" encoding="UTF-8"?>
<!DOCTYPE svg PUBLIC "-//W3C//DTD SVG 1.1//EN" "http://www.w3.org/Graphics/SVG/1.1/DTD/svg11.dtd">
<svg xmlns="http://www.w3.org/2000/svg" version="1.1" width="96px" height="96px" style="shape-rendering:geometricPrecision; text-rendering:geometricPrecision; image-rendering:optimizeQuality; fill-rule:evenodd; clip-rule:evenodd" xmlns:xlink="http://www.w3.org/1999/xlink">
<g><path style="opacity:0.802" fill="#020202" d="M 6.5,-0.5 C 33.8333,-0.5 61.1667,-0.5 88.5,-0.5C 89.8333,0.933498 91.3333,2.26683 93,3.5C 93.7568,5.31456 94.5902,6.98123 95.5,8.5C 95.5,34.1667 95.5,59.8333 95.5,85.5C 93.8333,90.5 90.5,93.8333 85.5,95.5C 59.8333,95.5 34.1667,95.5 8.5,95.5C 6.98123,94.5902 5.31456,93.7568 3.5,93C 2.26683,91.3333 0.933498,89.8333 -0.5,88.5C -0.5,61.1667 -0.5,33.8333 -0.5,6.5C 1.5,3.83333 3.83333,1.5 6.5,-0.5 Z"/></g>
<g><path style="opacity:1" fill="#f5f5f5" d="M 7.5,1.5 C 34.1687,1.33336 60.8354,1.50003 87.5,2C 89.9167,3.66261 91.75,5.82927 93,8.5C 93.6667,34.1667 93.6667,59.8333 93,85.5C 91.8333,89.3333 89.3333,91.8333 85.5,93C 59.8333,93.6667 34.1667,93.6667 8.5,93C 5.82927,91.75 3.66261,89.9167 2,87.5C 1.33333,60.8333 1.33333,34.1667 2,7.5C 3.35968,4.97739 5.19301,2.97739 7.5,1.5 Z"/></g>
<g><path style="opacity:1" fill="#09090a" d="M 44.5,7.5 C 63.8707,7.60746 77.3707,16.6075 85,34.5C 89.4695,51.563 85.3028,66.063 72.5,78C 51.1936,91.4213 32.027,88.9213 15,70.5C 4.81464,54.3648 5.14798,38.3648 16,22.5C 23.7135,13.8953 33.2135,8.8953 44.5,7.5 Z"/></g>
<g><path style="opacity:1" fill="#f9f9f9" d="M 39.5,13.5 C 59.5397,11.3932 73.0397,19.7266 80,38.5C 82.1667,68.3333 68.3333,82.1667 38.5,80C 15.9316,70.6943 8.76491,54.5277 17,31.5C 22.6154,23.0417 30.1154,17.0417 39.5,13.5 Z"/></g>
<g><path style="opacity:1" fill="#09090a" d="M 39.5,37.5 C 38.596,38.209 38.2627,39.209 38.5,40.5C 36.1667,40.5 33.8333,40.5 31.5,40.5C 31.5,39.5 31.5,38.5 31.5,37.5C 33.2709,24.9448 40.2709,20.4448 52.5,24C 61.4007,27.8888 63.9007,34.3888 60,43.5C 57.5122,45.7433 54.8456,47.7433 52,49.5C 50.6842,52.6883 50.1842,56.0217 50.5,59.5C 47.8333,59.5 45.1667,59.5 42.5,59.5C 42.3343,55.1539 42.501,50.8206 43,46.5C 45.2336,44.3002 47.7336,42.4669 50.5,41C 55.3138,35.2693 53.9804,31.7693 46.5,30.5C 41.8221,30.5112 39.4887,32.8446 39.5,37.5 Z"/></g>
<g><path style="opacity:1" fill="#6e7072" d="M 31.5,37.5 C 31.5,38.5 31.5,39.5 31.5,40.5C 33.8333,40.5 36.1667,40.5 38.5,40.5C 38.2627,39.209 38.596,38.209 39.5,37.5C 39.5,38.8333 39.5,40.1667 39.5,41.5C 36.5,41.5 33.5,41.5 30.5,41.5C 30.2322,39.901 30.5655,38.5676 31.5,37.5 Z"/></g>
<g><path style="opacity:1" fill="#6f7173" d="M 42.5,62.5 C 45.5,62.5 48.5,62.5 51.5,62.5C 51.5,65.5 51.5,68.5 51.5,71.5C 48.5,71.5 45.5,71.5 42.5,71.5C 42.5,68.5 42.5,65.5 42.5,62.5 Z"/></g>
<g><path style="opacity:1" fill="#000000" d="M 43.5,63.5 C 45.8333,63.5 48.1667,63.5 50.5,63.5C 50.5,65.8333 50.5,68.1667 50.5,70.5C 48.1667,70.5 45.8333,70.5 43.5,70.5C 43.5,68.1667 43.5,65.8333 43.5,63.5 Z"/></g>
</svg>
