<?xml version="1.0" encoding="UTF-8"?>
<!DOCTYPE svg PUBLIC "-//W3C//DTD SVG 1.1//EN" "http://www.w3.org/Graphics/SVG/1.1/DTD/svg11.dtd">
<svg xmlns="http://www.w3.org/2000/svg" version="1.1" width="96px" height="96px" style="shape-rendering:geometricPrecision; text-rendering:geometricPrecision; image-rendering:optimizeQuality; fill-rule:evenodd; clip-rule:evenodd" xmlns:xlink="http://www.w3.org/1999/xlink">
<g><path style="opacity:0.801" fill="#0e0e0e" d="M 9.5,-0.5 C 34.8333,-0.5 60.1667,-0.5 85.5,-0.5C 89.9626,0.734096 93.2959,3.40076 95.5,7.5C 95.5,34.5 95.5,61.5 95.5,88.5C 94.4415,89.6002 93.6082,90.9336 93,92.5C 91.3484,93.3994 89.8484,94.3994 88.5,95.5C 61.1667,95.5 33.8333,95.5 6.5,95.5C 3.02275,93.3599 0.689416,90.3599 -0.5,86.5C -0.5,60.8333 -0.5,35.1667 -0.5,9.5C 1.16667,4.5 4.5,1.16667 9.5,-0.5 Z"/></g>
<g><path style="opacity:1" fill="#f8f8f8" d="M 7.5,2.5 C 34.5021,2.33336 61.5021,2.50003 88.5,3C 90,4.5 91.5,6 93,7.5C 93.6667,34.1667 93.6667,60.8333 93,87.5C 92.2155,89.286 91.0488,90.786 89.5,92C 62.2534,93.6489 34.92,93.9822 7.5,93C 4.61931,91.7494 2.78597,89.5827 2,86.5C 1.33333,60.8333 1.33333,35.1667 2,9.5C 2.96679,6.37935 4.80012,4.04602 7.5,2.5 Z"/></g>
<g><path style="opacity:1" fill="#09090a" d="M 40.5,6.5 C 44.8751,6.34694 48.7084,7.68027 52,10.5C 51.3809,13.3942 50.7143,16.3942 50,19.5C 45.9751,23.6206 42.1418,23.4539 38.5,19C 37.2068,18.51 35.8734,18.3433 34.5,18.5C 33.8709,13.0911 35.8709,9.09108 40.5,6.5 Z"/></g>
<g><path style="opacity:1" fill="#090909" d="M 34.5,21.5 C 36.1992,21.3398 37.8659,21.5065 39.5,22C 42.7433,25.8211 45.7433,29.8211 48.5,34C 51.5,34.3333 54.5,34.6667 57.5,35C 59.3937,36.0793 59.727,37.4126 58.5,39C 53.8333,39.6667 49.1667,39.6667 44.5,39C 43.5214,36.8627 42.1881,35.0294 40.5,33.5C 38.2651,36.2911 36.2651,39.2911 34.5,42.5C 37.8619,45.0264 41.3619,47.3598 45,49.5C 45.6667,57.1667 45.6667,64.8333 45,72.5C 43,73.8333 41,73.8333 39,72.5C 38.8299,66.8042 38.3299,61.1376 37.5,55.5C 32.5,52.6667 27.5,49.8333 22.5,47C 21.1698,44.1227 21.3364,41.2893 23,38.5C 26.8434,32.8046 30.6767,27.1379 34.5,21.5 Z"/></g>
<g><path style="opacity:1" fill="#111112" d="M 58.5,40.5 C 61.5455,40.3418 64.3788,41.0085 67,42.5C 69.1667,46.8333 71.3333,51.1667 73.5,55.5C 72.8244,57.3535 71.8244,57.6869 70.5,56.5C 68.5468,52.0909 66.2134,47.9242 63.5,44C 61.4233,43.8078 59.4233,43.3078 57.5,42.5C 57.8627,41.8165 58.1961,41.1499 58.5,40.5 Z"/></g>
<g><path style="opacity:1" fill="#101010" d="M 71.5,44.5 C 75.5443,43.9579 79.211,44.7912 82.5,47C 79.1115,45.8735 75.9448,46.3735 73,48.5C 71.8118,47.4366 71.3118,46.1033 71.5,44.5 Z"/></g>
<g><path style="opacity:1" fill="#080808" d="M 51.5,71.5 C 49.5411,65.2504 48.8745,58.5837 49.5,51.5C 53.6454,49.9485 57.9787,48.6151 62.5,47.5C 64.4521,49.228 65.7854,51.3947 66.5,54C 62.0228,60.3083 57.0228,66.1416 51.5,71.5 Z"/></g>
<g><path style="opacity:1" fill="#171718" d="M 10.5,47.5 C 12.8568,47.3367 15.1902,47.5034 17.5,48C 23.1667,51.1667 28.8333,54.3333 34.5,57.5C 35.6139,58.723 35.7805,60.0563 35,61.5C 28.9145,57.8735 22.7479,54.3735 16.5,51C 13.9528,50.3405 11.4528,50.5071 9,51.5C 8.5,51.1667 8,50.8333 7.5,50.5C 8.33977,49.265 9.33977,48.265 10.5,47.5 Z"/></g>
<g><path style="opacity:1" fill="#666769" d="M 49.5,51.5 C 48.8745,58.5837 49.5411,65.2504 51.5,71.5C 50.791,72.404 49.791,72.7373 48.5,72.5C 48.1755,65.3134 48.5088,58.3134 49.5,51.5 Z"/></g>
<g><path style="opacity:1" fill="#0d0d0d" d="M 16.5,58.5 C 24.5556,57.2956 30.389,60.2956 34,67.5C 35.286,81.2141 29.1193,87.0474 15.5,85C 8.14975,80.2827 5.98308,73.7827 9,65.5C 10.7424,62.2543 13.2424,59.921 16.5,58.5 Z"/></g>
<g><path style="opacity:1" fill="#0e0e0e" d="M 72.5,58.5 C 85.7252,57.556 91.5585,63.556 90,76.5C 85.017,85.4922 77.8503,87.6589 68.5,83C 60.8217,73.2341 62.1551,65.0675 72.5,58.5 Z"/></g>
<g><path style="opacity:1" fill="#f1f1f1" d="M 17.5,62.5 C 28.8465,62.8797 32.3465,68.213 28,78.5C 21.5967,83.1569 16.2634,82.1569 12,75.5C 10.5708,69.7001 12.4041,65.3668 17.5,62.5 Z"/></g>
<g><path style="opacity:1" fill="#f1f1f1" d="M 73.5,62.5 C 83.0398,61.8703 87.2065,66.2036 86,75.5C 80,83.5 74,83.5 68,75.5C 66.5708,69.7001 68.4041,65.3668 73.5,62.5 Z"/></g>
</svg>
