<?xml version="1.0" encoding="UTF-8"?>
<!DOCTYPE svg PUBLIC "-//W3C//DTD SVG 1.1//EN" "http://www.w3.org/Graphics/SVG/1.1/DTD/svg11.dtd">
<svg xmlns="http://www.w3.org/2000/svg" version="1.1" width="96px" height="96px" style="shape-rendering:geometricPrecision; text-rendering:geometricPrecision; image-rendering:optimizeQuality; fill-rule:evenodd; clip-rule:evenodd" xmlns:xlink="http://www.w3.org/1999/xlink">
<g><path style="opacity:0.779" fill="#161617" d="M 9.5,-0.5 C 34.8333,-0.5 60.1667,-0.5 85.5,-0.5C 90.1045,1.1053 93.4378,4.1053 95.5,8.5C 95.5,34.8333 95.5,61.1667 95.5,87.5C 93.883,90.7843 91.5497,93.4509 88.5,95.5C 61.1667,95.5 33.8333,95.5 6.5,95.5C 3.83333,93.5 1.5,91.1667 -0.5,88.5C -0.5,61.5 -0.5,34.5 -0.5,7.5C 1.70411,3.40076 5.03744,0.734096 9.5,-0.5 Z"/></g>
<g><path style="opacity:1" fill="#fbfbfb" d="M 6.5,2.5 C 33.5021,2.33336 60.5021,2.50003 87.5,3C 89.286,3.78451 90.786,4.95118 92,6.5C 93.6484,33.0798 93.9818,59.7464 93,86.5C 92.2078,88.5873 91.0412,90.4207 89.5,92C 61.9199,93.6491 34.2533,93.9825 6.5,93C 5.33333,91.8333 4.16667,90.6667 3,89.5C 1.3511,62.2534 1.01777,34.92 2,7.5C 3.70733,5.96252 5.20733,4.29585 6.5,2.5 Z"/></g>
<g><path style="opacity:1" fill="#6d6f71" d="M 58.5,15.5 C 48.1667,15.5 37.8333,15.5 27.5,15.5C 27.5,36.8333 27.5,58.1667 27.5,79.5C 31.5,79.5 35.5,79.5 39.5,79.5C 35.3656,80.4849 31.0323,80.8182 26.5,80.5C 26.5,58.5 26.5,36.5 26.5,14.5C 37.3464,14.1722 48.0131,14.5056 58.5,15.5 Z"/></g>
<g><path style="opacity:1" fill="#040404" d="M 58.5,15.5 C 74.2021,21.5804 79.0355,32.5804 73,48.5C 69.3585,53.5777 64.5252,57.0777 58.5,59C 52.1754,59.4995 45.8421,59.6662 39.5,59.5C 39.5,66.1667 39.5,72.8333 39.5,79.5C 35.5,79.5 31.5,79.5 27.5,79.5C 27.5,58.1667 27.5,36.8333 27.5,15.5C 37.8333,15.5 48.1667,15.5 58.5,15.5 Z"/></g>
<g><path style="opacity:1" fill="#fafafa" d="M 39.5,27.5 C 45.8421,27.3338 52.1754,27.5005 58.5,28C 64.7853,33.2911 65.1187,38.9578 59.5,45C 52.9236,46.3774 46.2569,46.8774 39.5,46.5C 39.5,40.1667 39.5,33.8333 39.5,27.5 Z"/></g>
</svg>
