<?xml version="1.0" encoding="UTF-8"?>
<!DOCTYPE svg PUBLIC "-//W3C//DTD SVG 1.1//EN" "http://www.w3.org/Graphics/SVG/1.1/DTD/svg11.dtd">
<svg xmlns="http://www.w3.org/2000/svg" version="1.1" width="96px" height="96px" style="shape-rendering:geometricPrecision; text-rendering:geometricPrecision; image-rendering:optimizeQuality; fill-rule:evenodd; clip-rule:evenodd" xmlns:xlink="http://www.w3.org/1999/xlink">
<g><path style="opacity:0.77" fill="#020202" d="M 7.5,-0.5 C 34.1667,-0.5 60.8333,-0.5 87.5,-0.5C 91.1667,1.16667 93.8333,3.83333 95.5,7.5C 95.5,34.1667 95.5,60.8333 95.5,87.5C 93.8333,91.1667 91.1667,93.8333 87.5,95.5C 60.8333,95.5 34.1667,95.5 7.5,95.5C 3.83333,93.8333 1.16667,91.1667 -0.5,87.5C -0.5,60.8333 -0.5,34.1667 -0.5,7.5C 1.16667,3.83333 3.83333,1.16667 7.5,-0.5 Z"/></g>
<g><path style="opacity:1" fill="#f9f9fa" d="M 7.5,1.5 C 33.8354,1.33336 60.1688,1.50003 86.5,2C 89.5827,2.78597 91.7494,4.61931 93,7.5C 93.6667,33.8333 93.6667,60.1667 93,86.5C 92.1667,90 90,92.1667 86.5,93C 60.1667,93.6667 33.8333,93.6667 7.5,93C 6,91.5 4.5,90 3,88.5C 1.35156,61.9202 1.01823,35.2536 2,8.5C 3.66647,6.00432 5.49981,3.67098 7.5,1.5 Z"/></g>
<g><path style="opacity:1" fill="#bdbec0" d="M 72.5,27.5 C 72.5,25.1667 72.5,22.8333 72.5,20.5C 55.8333,20.5 39.1667,20.5 22.5,20.5C 22.5,22.8333 22.5,25.1667 22.5,27.5C 21.5269,25.0521 21.1936,22.3854 21.5,19.5C 38.8333,19.5 56.1667,19.5 73.5,19.5C 73.8064,22.3854 73.4731,25.0521 72.5,27.5 Z"/></g>
<g><path style="opacity:1" fill="#030303" d="M 72.5,27.5 C 68.4454,27.1758 64.4454,27.5091 60.5,28.5C 63.0287,34.086 65.362,39.7527 67.5,45.5C 73.7985,46.4963 80.1318,46.8297 86.5,46.5C 86.5,48.8333 86.5,51.1667 86.5,53.5C 81.5,53.5 76.5,53.5 71.5,53.5C 73.8662,60.7638 76.5329,67.9305 79.5,75C 76.5184,75.498 73.5184,75.6646 70.5,75.5C 68.1309,68.4213 65.4643,61.4213 62.5,54.5C 52.5,53.1667 42.5,53.1667 32.5,54.5C 29.4304,61.3795 26.7638,68.3795 24.5,75.5C 21.4281,75.8174 18.4281,75.4841 15.5,74.5C 18.4643,67.5787 21.1309,60.5787 23.5,53.5C 18.5,53.5 13.5,53.5 8.5,53.5C 8.5,51.1667 8.5,48.8333 8.5,46.5C 14.8333,46.5 21.1667,46.5 27.5,46.5C 29.5333,40.2354 31.8666,34.0687 34.5,28C 30.5138,27.5012 26.5138,27.3345 22.5,27.5C 22.5,25.1667 22.5,22.8333 22.5,20.5C 39.1667,20.5 55.8333,20.5 72.5,20.5C 72.5,22.8333 72.5,25.1667 72.5,27.5 Z"/></g>
<g><path style="opacity:1" fill="#f6f7f7" d="M 63.5,46.5 C 54.6506,46.8264 45.9839,46.493 37.5,45.5C 39.5484,40.4014 41.8817,35.4014 44.5,30.5C 48.1667,29.1667 51.8333,29.1667 55.5,30.5C 58.1932,35.8864 60.8599,41.2198 63.5,46.5 Z"/></g>
<g><path style="opacity:1" fill="#6d6f71" d="M 37.5,45.5 C 45.9839,46.493 54.6506,46.8264 63.5,46.5C 54.6582,47.8218 45.6582,47.8218 36.5,46.5C 36.6236,45.8933 36.9569,45.56 37.5,45.5 Z"/></g>
</svg>
