<?xml version="1.0" encoding="UTF-8"?>
<!DOCTYPE svg PUBLIC "-//W3C//DTD SVG 1.1//EN" "http://www.w3.org/Graphics/SVG/1.1/DTD/svg11.dtd">
<svg xmlns="http://www.w3.org/2000/svg" version="1.1" width="96px" height="96px" style="shape-rendering:geometricPrecision; text-rendering:geometricPrecision; image-rendering:optimizeQuality; fill-rule:evenodd; clip-rule:evenodd" xmlns:xlink="http://www.w3.org/1999/xlink">
<g><path style="opacity:0.777" fill="#1c1c1c" d="M 6.5,-0.5 C 34.1667,-0.5 61.8333,-0.5 89.5,-0.5C 91.8333,1.16667 93.8333,3.16667 95.5,5.5C 95.5,33.1667 95.5,60.8333 95.5,88.5C 93.3599,91.9773 90.3599,94.3106 86.5,95.5C 60.8333,95.5 35.1667,95.5 9.5,95.5C 4.05776,93.7255 0.724425,90.0588 -0.5,84.5C -0.5,59.5 -0.5,34.5 -0.5,9.5C 0.833984,5.50958 3.16732,2.17625 6.5,-0.5 Z"/></g>
<g><path style="opacity:1" fill="#fcfcfc" d="M 7.5,1.5 C 34.1687,1.33336 60.8354,1.50003 87.5,2C 89.6238,3.12173 91.4571,4.62173 93,6.5C 93.6667,33.5 93.6667,60.5 93,87.5C 92.044,88.5786 91.2106,89.7453 90.5,91C 62.9199,92.6491 35.2533,92.9825 7.5,92C 6.06919,91.5348 4.90252,90.7014 4,89.5C 2.35088,61.9199 2.01755,34.2533 3,6.5C 4.70733,4.96252 6.20733,3.29585 7.5,1.5 Z"/></g>
<g><path style="opacity:1" fill="#060606" d="M 13.5,11.5 C 14.8734,11.3433 16.2068,11.51 17.5,12C 24.0144,18.6814 30.6811,25.1814 37.5,31.5C 38.329,26.5329 38.829,21.5329 39,16.5C 40.916,13.967 42.916,13.967 45,16.5C 45.6667,24.8333 45.6667,33.1667 45,41.5C 44.6924,42.3081 44.1924,42.9747 43.5,43.5C 34.8818,44.6374 26.2151,44.8041 17.5,44C 14.8333,42 14.8333,40 17.5,38C 22.5,37.6667 27.5,37.3333 32.5,37C 26,30.5 19.5,24 13,17.5C 12.3224,15.4024 12.4891,13.4024 13.5,11.5 Z"/></g>
<g><path style="opacity:1" fill="#090909" d="M 69.5,73.5 C 69.44,72.9569 69.1067,72.6236 68.5,72.5C 67.5108,76.1073 67.1774,79.774 67.5,83.5C 66.0679,85.6469 64.2345,85.9802 62,84.5C 61.6667,80.5 61.3333,76.5 61,72.5C 58.5,75 56,77.5 53.5,80C 49.5126,80.339 48.0126,78.5057 49,74.5C 51.1667,72.3333 53.3333,70.1667 55.5,68C 51.8333,67.6667 48.1667,67.3333 44.5,67C 41.8333,65 41.8333,63 44.5,61C 48.1667,60.6667 51.8333,60.3333 55.5,60C 53.3333,57.8333 51.1667,55.6667 49,53.5C 47.4167,48.8996 48.9167,47.0663 53.5,48C 55.3702,50.0396 57.3702,51.8729 59.5,53.5C 59.56,54.0431 59.8933,54.3764 60.5,54.5C 61.487,51.2317 61.8204,47.8984 61.5,44.5C 63.2818,42.3131 65.4485,41.9797 68,43.5C 68.3333,47.1667 68.6667,50.8333 69,54.5C 71.1667,52.3333 73.3333,50.1667 75.5,48C 79.5057,47.0126 81.339,48.5126 81,52.5C 78.5,55 76,57.5 73.5,60C 77.5408,60.1735 81.5408,60.6735 85.5,61.5C 87.1142,64.1571 86.4475,65.9905 83.5,67C 80.1667,67.3333 76.8333,67.6667 73.5,68C 75.6667,70.1667 77.8333,72.3333 80,74.5C 81.5833,79.1004 80.0833,80.9337 75.5,80C 73.2941,77.9633 71.2941,75.7966 69.5,73.5 Z"/></g>
<g><path style="opacity:1" fill="#929396" d="M 61.5,44.5 C 61.8204,47.8984 61.487,51.2317 60.5,54.5C 59.8933,54.3764 59.56,54.0431 59.5,53.5C 60.1667,50.5 60.8333,47.5 61.5,44.5 Z"/></g>
<g><path style="opacity:1" fill="#606163" d="M 69.5,73.5 C 68.8333,76.8333 68.1667,80.1667 67.5,83.5C 67.1774,79.774 67.5108,76.1073 68.5,72.5C 69.1067,72.6236 69.44,72.9569 69.5,73.5 Z"/></g>
</svg>
