<?xml version="1.0" encoding="UTF-8"?>
<!DOCTYPE svg PUBLIC "-//W3C//DTD SVG 1.1//EN" "http://www.w3.org/Graphics/SVG/1.1/DTD/svg11.dtd">
<svg xmlns="http://www.w3.org/2000/svg" version="1.1" width="128px" height="174px" style="shape-rendering:geometricPrecision; text-rendering:geometricPrecision; image-rendering:optimizeQuality; fill-rule:evenodd; clip-rule:evenodd" xmlns:xlink="http://www.w3.org/1999/xlink">
<g><path style="opacity:1" fill="#8a2aba" d="M 51.5,-0.5 C 59.5,-0.5 67.5,-0.5 75.5,-0.5C 102.729,6.39568 120.062,23.3957 127.5,50.5C 127.5,58.1667 127.5,65.8333 127.5,73.5C 125.088,82.6701 121.254,91.3368 116,99.5C 105,113.833 94,128.167 83,142.5C 75.8037,152.227 69.637,162.56 64.5,173.5C 63.8333,173.5 63.1667,173.5 62.5,173.5C 57.363,162.56 51.1963,152.227 44,142.5C 33,128.167 22,113.833 11,99.5C 5.74569,91.3368 1.91236,82.6701 -0.5,73.5C -0.5,65.8333 -0.5,58.1667 -0.5,50.5C 6.93754,23.3957 24.2709,6.39568 51.5,-0.5 Z"/></g>
<g><path style="opacity:1" fill="#a83fdc" d="M 53.5,3.5 C 89.7321,0.937289 112.899,16.9373 123,51.5C 125.401,66.9634 122.401,81.2967 114,94.5C 103.819,108.86 93.1519,122.86 82,136.5C 75.5849,145.662 69.4183,154.995 63.5,164.5C 57.5817,154.995 51.4151,145.662 45,136.5C 33.8481,122.86 23.1815,108.86 13,94.5C -4.16776,62.6714 1.33224,35.5047 29.5,13C 37.0694,8.36863 45.0694,5.20196 53.5,3.5 Z"/></g>
<g><path style="opacity:1" fill="#f6c9fe" d="M 56.5,36.5 C 83.7331,35.5521 94.2331,48.2188 88,74.5C 80.0271,85.9729 71.8604,97.3063 63.5,108.5C 57.1522,99.1408 50.3189,90.1408 43,81.5C 33.5735,67.567 34.4068,54.4003 45.5,42C 48.9905,39.588 52.6571,37.7547 56.5,36.5 Z"/></g>
</svg>
