<?xml version="1.0" encoding="UTF-8"?>
<!DOCTYPE svg PUBLIC "-//W3C//DTD SVG 1.1//EN" "http://www.w3.org/Graphics/SVG/1.1/DTD/svg11.dtd">
<svg xmlns="http://www.w3.org/2000/svg" version="1.1" width="96px" height="96px" style="shape-rendering:geometricPrecision; text-rendering:geometricPrecision; image-rendering:optimizeQuality; fill-rule:evenodd; clip-rule:evenodd" xmlns:xlink="http://www.w3.org/1999/xlink">
<g><path style="opacity:0.798" fill="#0d0d0e" d="M 6.5,-0.5 C 33.8333,-0.5 61.1667,-0.5 88.5,-0.5C 91.5765,1.57257 93.9098,4.23924 95.5,7.5C 95.5,34.1667 95.5,60.8333 95.5,87.5C 93.4195,91.2497 90.4195,93.9164 86.5,95.5C 60.5,95.5 34.5,95.5 8.5,95.5C 4.90326,93.5737 1.90326,90.907 -0.5,87.5C -0.5,60.8333 -0.5,34.1667 -0.5,7.5C 1.09021,4.23924 3.42355,1.57257 6.5,-0.5 Z"/></g>
<g><path style="opacity:1" fill="#fcfcfc" d="M 7.5,1.5 C 33.8354,1.33336 60.1688,1.50003 86.5,2C 88.8477,2.34588 90.6811,3.51255 92,5.5C 93.6487,32.4132 93.982,59.4132 93,86.5C 91.8783,88.6238 90.3783,90.4571 88.5,92C 61.1667,92.6667 33.8333,92.6667 6.5,92C 5.33333,90.8333 4.16667,89.6667 3,88.5C 1.35133,61.5868 1.018,34.5868 2,7.5C 3.35968,4.97739 5.19301,2.97739 7.5,1.5 Z"/></g>
<g><path style="opacity:1" fill="#c4c5c7" d="M 51.5,9.5 C 51.6665,18.8393 51.4998,28.1726 51,37.5C 50.2828,36.9558 49.7828,36.2891 49.5,35.5C 50.1667,26.8333 50.8333,18.1667 51.5,9.5 Z"/></g>
<g><path style="opacity:1" fill="#040405" d="M 51.5,9.5 C 55.1817,9.3347 58.8484,9.50137 62.5,10C 65.365,12.2863 68.6983,13.1197 72.5,12.5C 72.5,17.1667 72.5,21.8333 72.5,26.5C 66.5,25.5 60.5,24.5 54.5,23.5C 54.334,28.8437 54.5006,34.1771 55,39.5C 63.7476,45.4575 72.5809,51.2909 81.5,57C 79.1902,57.4966 76.8568,57.6633 74.5,57.5C 73.507,65.9839 73.1736,74.6506 73.5,83.5C 67.1667,83.5 60.8333,83.5 54.5,83.5C 54.5,76.5 54.5,69.5 54.5,62.5C 49.8333,62.5 45.1667,62.5 40.5,62.5C 40.5,69.8333 40.5,77.1667 40.5,84.5C 33.8333,84.5 27.1667,84.5 20.5,84.5C 20.5,75.5 20.5,66.5 20.5,57.5C 18.1432,57.6633 15.8098,57.4966 13.5,57C 24.1667,50 34.8333,43 45.5,36C 46.7932,35.51 48.1266,35.3433 49.5,35.5C 49.7828,36.2891 50.2828,36.9558 51,37.5C 51.4998,28.1726 51.6665,18.8393 51.5,9.5 Z"/></g>
<g><path style="opacity:1" fill="#bbbcbe" d="M 54.5,83.5 C 54.5,83.8333 54.5,84.1667 54.5,84.5C 53.5088,77.6866 53.1755,70.6866 53.5,63.5C 49.5,63.5 45.5,63.5 41.5,63.5C 41.8245,70.6866 41.4912,77.6866 40.5,84.5C 40.5,77.1667 40.5,69.8333 40.5,62.5C 45.1667,62.5 49.8333,62.5 54.5,62.5C 54.5,69.5 54.5,76.5 54.5,83.5 Z"/></g>
<g><path style="opacity:1" fill="#818385" d="M 74.5,57.5 C 74.5,66.5 74.5,75.5 74.5,84.5C 67.8333,84.5 61.1667,84.5 54.5,84.5C 54.5,84.1667 54.5,83.8333 54.5,83.5C 60.8333,83.5 67.1667,83.5 73.5,83.5C 73.1736,74.6506 73.507,65.9839 74.5,57.5 Z"/></g>
</svg>
