<?xml version="1.0" encoding="UTF-8"?>
<!DOCTYPE svg PUBLIC "-//W3C//DTD SVG 1.1//EN" "http://www.w3.org/Graphics/SVG/1.1/DTD/svg11.dtd">
<svg xmlns="http://www.w3.org/2000/svg" version="1.1" width="128px" height="174px" style="shape-rendering:geometricPrecision; text-rendering:geometricPrecision; image-rendering:optimizeQuality; fill-rule:evenodd; clip-rule:evenodd" xmlns:xlink="http://www.w3.org/1999/xlink">
<g><path style="opacity:1" fill="#c8100e" d="M 51.5,-0.5 C 59.5,-0.5 67.5,-0.5 75.5,-0.5C 102.729,6.39568 120.062,23.3957 127.5,50.5C 127.5,58.1667 127.5,65.8333 127.5,73.5C 125.088,82.6701 121.254,91.3368 116,99.5C 105,113.833 94,128.167 83,142.5C 75.8037,152.227 69.637,162.56 64.5,173.5C 63.8333,173.5 63.1667,173.5 62.5,173.5C 57.363,162.56 51.1963,152.227 44,142.5C 33,128.167 22,113.833 11,99.5C 5.74569,91.3368 1.91236,82.6701 -0.5,73.5C -0.5,65.8333 -0.5,58.1667 -0.5,50.5C 6.93754,23.3957 24.2709,6.39568 51.5,-0.5 Z"/></g>
<g><path style="opacity:1" fill="#ea2821" d="M 51.5,3.5 C 82.9782,0.315539 105.812,12.6489 120,40.5C 126.163,59.4059 124.163,77.4059 114,94.5C 103.819,108.86 93.1519,122.86 82,136.5C 75.5849,145.662 69.4183,154.995 63.5,164.5C 57.5817,154.995 51.4151,145.662 45,136.5C 33.8481,122.86 23.1815,108.86 13,94.5C -5.57844,57.5764 2.92156,28.7431 38.5,8C 42.8927,6.32866 47.226,4.82866 51.5,3.5 Z"/></g>
<g><path style="opacity:1" fill="#fec7c7" d="M 56.5,36.5 C 76.4172,34.2745 88.0839,42.9412 91.5,62.5C 90.6625,69.5056 88.1625,75.8389 84,81.5C 76.6697,90.1793 69.8363,99.1793 63.5,108.5C 56.6085,98.0995 49.1085,88.0995 41,78.5C 32.3461,63.4371 34.8461,50.6037 48.5,40C 51.1579,38.522 53.8245,37.3554 56.5,36.5 Z"/></g>
</svg>
