<?xml version="1.0" encoding="UTF-8"?>
<!DOCTYPE svg PUBLIC "-//W3C//DTD SVG 1.1//EN" "http://www.w3.org/Graphics/SVG/1.1/DTD/svg11.dtd">
<svg xmlns="http://www.w3.org/2000/svg" version="1.1" width="96px" height="96px" style="shape-rendering:geometricPrecision; text-rendering:geometricPrecision; image-rendering:optimizeQuality; fill-rule:evenodd; clip-rule:evenodd" xmlns:xlink="http://www.w3.org/1999/xlink">
<g><path style="opacity:0.781" fill="#161617" d="M 6.5,-0.5 C 33.5,-0.5 60.5,-0.5 87.5,-0.5C 91.8987,1.98463 94.5653,5.6513 95.5,10.5C 95.5,35.1667 95.5,59.8333 95.5,84.5C 94.366,89.6393 91.366,93.3059 86.5,95.5C 60.1667,95.5 33.8333,95.5 7.5,95.5C 4.21573,93.883 1.54906,91.5497 -0.5,88.5C -0.5,61.1667 -0.5,33.8333 -0.5,6.5C 1.16667,3.5 3.5,1.16667 6.5,-0.5 Z"/></g>
<g><path style="opacity:1" fill="#fafafa" d="M 6.5,1.5 C 33.1687,1.33336 59.8354,1.50003 86.5,2C 88.6238,3.12173 90.4571,4.62173 92,6.5C 92.6667,33.5 92.6667,60.5 92,87.5C 90.7494,90.3807 88.5827,92.214 85.5,93C 59.5,93.6667 33.5,93.6667 7.5,93C 5.71398,92.2155 4.21398,91.0488 3,89.5C 1.35088,61.9199 1.01755,34.2533 2,6.5C 3.70733,4.96252 5.20733,3.29585 6.5,1.5 Z"/></g>
<g><path style="opacity:1" fill="#6d6e71" d="M 34.5,15.5 C 34.5,14.1667 34.5,12.8333 34.5,11.5C 30.8333,11.5 27.1667,11.5 23.5,11.5C 23.5,12.8333 23.5,14.1667 23.5,15.5C 22.5489,14.0813 22.2155,12.4147 22.5,10.5C 26.8333,10.5 31.1667,10.5 35.5,10.5C 35.7845,12.4147 35.4511,14.0813 34.5,15.5 Z"/></g>
<g><path style="opacity:1" fill="#000000" d="M 34.5,15.5 C 30.8333,15.5 27.1667,15.5 23.5,15.5C 23.5,14.1667 23.5,12.8333 23.5,11.5C 27.1667,11.5 30.8333,11.5 34.5,11.5C 34.5,12.8333 34.5,14.1667 34.5,15.5 Z"/></g>
<g><path style="opacity:1" fill="#050506" d="M 18.5,18.5 C 24.8421,18.3338 31.1754,18.5005 37.5,19C 40,20.1667 41.8333,22 43,24.5C 43.8206,43.8769 43.6539,63.2102 42.5,82.5C 32.2725,83.8182 22.1058,83.8182 12,82.5C 11.3333,63.8333 11.3333,45.1667 12,26.5C 14.4145,23.986 16.5812,21.3194 18.5,18.5 Z"/></g>
<g><path style="opacity:1" fill="#f7f7f8" d="M 20.5,21.5 C 21.8164,24.0866 22.483,27.0866 22.5,30.5C 22.3333,33.5 22.1667,36.5 22,39.5C 19.954,41.3761 18.1207,43.3761 16.5,45.5C 15.914,45.2907 15.414,44.9574 15,44.5C 14.3333,38.8333 14.3333,33.1667 15,27.5C 16.6993,25.3039 18.5327,23.3039 20.5,21.5 Z"/></g>
<g><path style="opacity:1" fill="#97999b" d="M 74.5,38.5 C 75.5676,37.5655 76.901,37.2322 78.5,37.5C 78.7845,39.4147 78.4511,41.0813 77.5,42.5C 77.5,41.1667 77.5,39.8333 77.5,38.5C 76.5,38.5 75.5,38.5 74.5,38.5 Z"/></g>
<g><path style="opacity:1" fill="#0e0e0f" d="M 74.5,38.5 C 75.5,38.5 76.5,38.5 77.5,38.5C 77.5,39.8333 77.5,41.1667 77.5,42.5C 75.3661,49.2445 70.6994,52.5778 63.5,52.5C 63.4492,44.8867 67.1158,40.2201 74.5,38.5 Z"/></g>
<g><path style="opacity:1" fill="#040404" d="M 56.5,55.5 C 60.4249,55.112 64.0915,55.7787 67.5,57.5C 72.4627,54.7927 77.2961,55.126 82,58.5C 85.0134,67.8286 82.8468,75.9952 75.5,83C 72.5337,83.8952 69.8671,83.3952 67.5,81.5C 63.0534,84.5643 59.2201,83.8977 56,79.5C 51.9333,74.1667 50.2667,68.1667 51,61.5C 52.3597,58.9774 54.193,56.9774 56.5,55.5 Z"/></g>
</svg>
