<?xml version="1.0" encoding="UTF-8"?>
<!DOCTYPE svg PUBLIC "-//W3C//DTD SVG 1.1//EN" "http://www.w3.org/Graphics/SVG/1.1/DTD/svg11.dtd">
<svg xmlns="http://www.w3.org/2000/svg" version="1.1" width="96px" height="96px" style="shape-rendering:geometricPrecision; text-rendering:geometricPrecision; image-rendering:optimizeQuality; fill-rule:evenodd; clip-rule:evenodd" xmlns:xlink="http://www.w3.org/1999/xlink">
<g><path style="opacity:0.8" fill="#0e0e0e" d="M 9.5,-0.5 C 35.1667,-0.5 60.8333,-0.5 86.5,-0.5C 90.3599,0.689416 93.3599,3.02275 95.5,6.5C 95.5,33.8333 95.5,61.1667 95.5,88.5C 94.4415,89.6002 93.6082,90.9336 93,92.5C 91.3484,93.3994 89.8484,94.3994 88.5,95.5C 61.1667,95.5 33.8333,95.5 6.5,95.5C 5.16668,94.0665 3.66668,92.7332 2,91.5C 1.24316,89.6854 0.409824,88.0188 -0.5,86.5C -0.5,60.8333 -0.5,35.1667 -0.5,9.5C 1.16667,4.5 4.5,1.16667 9.5,-0.5 Z"/></g>
<g><path style="opacity:1" fill="#fafafa" d="M 9.5,1.5 C 35.1688,1.33336 60.8355,1.50003 86.5,2C 89.1707,3.24999 91.3374,5.08333 93,7.5C 93.6667,34.1667 93.6667,60.8333 93,87.5C 92.2155,89.286 91.0488,90.786 89.5,92C 62.2534,93.6489 34.92,93.9822 7.5,93C 5.66667,91.8333 4.16667,90.3333 3,88.5C 2.33333,61.5 2.33333,34.5 3,7.5C 4.43611,4.55813 6.60277,2.55813 9.5,1.5 Z"/></g>
<g><path style="opacity:1" fill="#080808" d="M 43.5,13.5 C 53.2644,15.7984 62.0978,20.1317 70,26.5C 71.2507,32.7248 71.9173,39.0582 72,45.5C 75.9474,48.9806 80.2807,51.9806 85,54.5C 85.5,58 84,59.5 80.5,59C 74.5768,56.1242 69.0768,52.6242 64,48.5C 63.6667,45.1667 63.3333,41.8333 63,38.5C 59.5133,35.1772 55.68,33.1772 51.5,32.5C 52.938,35.5175 53.938,38.6841 54.5,42C 54.2196,43.395 53.5529,44.5617 52.5,45.5C 46.6079,47.9452 40.6079,50.1118 34.5,52C 29.9322,53.6505 27.2656,52.1505 26.5,47.5C 26.8757,45.6171 27.8757,44.1171 29.5,43C 33.2765,42.4079 36.9431,41.4079 40.5,40C 41.5156,39.4806 42.1822,38.6473 42.5,37.5C 41.3697,32.1104 40.0364,26.7771 38.5,21.5C 38.6667,20.5 38.8333,19.5 39,18.5C 40.7073,16.9625 42.2073,15.2959 43.5,13.5 Z"/></g>
<g><path style="opacity:1" fill="#0d0d0d" d="M 76.5,26.5 C 84.525,27.0058 86.8583,30.8391 83.5,38C 77.3285,40.8561 73.6618,38.8561 72.5,32C 73.6502,30.019 74.9835,28.1857 76.5,26.5 Z"/></g>
<g><path style="opacity:1" fill="#191919" d="M 9.5,44.5 C 31.2233,55.8652 52.5566,68.0319 73.5,81C 76.6917,83.7811 79.8584,83.9478 83,81.5C 84.2295,82.2752 84.5628,83.2752 84,84.5C 81.7569,86.282 79.2569,86.782 76.5,86C 54.7606,72.6016 32.7606,59.6016 10.5,47C 9.74756,46.3292 9.41423,45.4959 9.5,44.5 Z"/></g>
</svg>
