<?xml version="1.0" encoding="UTF-8"?>
<!DOCTYPE svg PUBLIC "-//W3C//DTD SVG 1.1//EN" "http://www.w3.org/Graphics/SVG/1.1/DTD/svg11.dtd">
<svg xmlns="http://www.w3.org/2000/svg" version="1.1" width="96px" height="96px" style="shape-rendering:geometricPrecision; text-rendering:geometricPrecision; image-rendering:optimizeQuality; fill-rule:evenodd; clip-rule:evenodd" xmlns:xlink="http://www.w3.org/1999/xlink">
<g><path style="opacity:0.775" fill="#1c1c1c" d="M 9.5,-0.5 C 34.8333,-0.5 60.1667,-0.5 85.5,-0.5C 89.8397,0.341147 93.173,2.67448 95.5,6.5C 95.5,34.1667 95.5,61.8333 95.5,89.5C 93.8333,91.8333 91.8333,93.8333 89.5,95.5C 61.8333,95.5 34.1667,95.5 6.5,95.5C 3.02275,93.3599 0.689416,90.3599 -0.5,86.5C -0.5,60.8333 -0.5,35.1667 -0.5,9.5C 1.16667,4.5 4.5,1.16667 9.5,-0.5 Z"/></g>
<g><path style="opacity:1" fill="#fcfcfc" d="M 7.5,2.5 C 34.5021,2.33336 61.5021,2.50003 88.5,3C 90.3333,4.16667 91.8333,5.66667 93,7.5C 93.6667,34.1667 93.6667,60.8333 93,87.5C 92.2155,89.286 91.0488,90.786 89.5,92C 62.2534,93.6489 34.92,93.9822 7.5,93C 5.66667,91.8333 4.16667,90.3333 3,88.5C 2.33333,61.5 2.33333,34.5 3,7.5C 4.02496,5.31305 5.52496,3.64638 7.5,2.5 Z"/></g>
<g><path style="opacity:1" fill="#0a0a0a" d="M 38.5,11.5 C 45.3875,11.5532 47.8875,14.8866 46,21.5C 38.2798,26.7695 34.6131,24.7695 35,15.5C 35.6897,13.6498 36.8564,12.3164 38.5,11.5 Z"/></g>
<g><path style="opacity:1" fill="#070707" d="M 43.5,30.5 C 43.5,33.5 43.5,36.5 43.5,39.5C 46.8333,39.5 50.1667,39.5 53.5,39.5C 56.1667,41.1667 56.1667,42.8333 53.5,44.5C 50.1667,44.5 46.8333,44.5 43.5,44.5C 43.0773,46.7812 43.744,48.4479 45.5,49.5C 48.011,50.3944 50.511,51.3944 53,52.5C 55.5022,50.0317 57.6688,47.1984 59.5,44C 56.5511,41.3096 55.5511,38.1429 56.5,34.5C 60.0168,36.8583 62.6835,40.0249 64.5,44C 69.1667,45 73.8333,46 78.5,47C 81.2055,50.242 83.5388,53.742 85.5,57.5C 79.6744,61.9132 73.6744,66.0799 67.5,70C 49.1667,70.6667 30.8333,70.6667 12.5,70C 11.4464,68.6124 11.2797,67.1124 12,65.5C 14.3742,61.2505 16.8742,57.0838 19.5,53C 23.8711,52.8275 28.2044,52.3275 32.5,51.5C 31.3666,43.8829 31.1999,36.2163 32,28.5C 34.8408,26.4963 38.0074,25.9963 41.5,27C 42.8228,27.8159 43.4894,28.9826 43.5,30.5 Z"/></g>
<g><path style="opacity:1" fill="#717274" d="M 43.5,30.5 C 44.4731,32.9479 44.8064,35.6146 44.5,38.5C 47.7131,38.19 50.7131,38.5233 53.5,39.5C 50.1667,39.5 46.8333,39.5 43.5,39.5C 43.5,36.5 43.5,33.5 43.5,30.5 Z"/></g>
<g><path style="opacity:1" fill="#8f9194" d="M 53.5,44.5 C 50.7131,45.4767 47.7131,45.81 44.5,45.5C 44.4326,46.9587 44.7659,48.2921 45.5,49.5C 43.744,48.4479 43.0773,46.7812 43.5,44.5C 46.8333,44.5 50.1667,44.5 53.5,44.5 Z"/></g>
<g><path style="opacity:1" fill="#141515" d="M 89.5,68.5 C 90.0835,74.4892 87.0835,78.3225 80.5,80C 68.8333,80.6667 57.1667,80.6667 45.5,80C 46.2931,78.9148 46.9598,77.7481 47.5,76.5C 58.4849,75.6676 69.4849,75.1676 80.5,75C 83.921,73.3015 86.921,71.1348 89.5,68.5 Z"/></g>
<g><path style="opacity:1" fill="#636466" d="M 7.5,76.5 C 17.6742,75.1768 28.0075,75.1768 38.5,76.5C 38.3764,77.1067 38.0431,77.44 37.5,77.5C 27.6806,76.506 17.6806,76.1726 7.5,76.5 Z"/></g>
<g><path style="opacity:1" fill="#010101" d="M 7.5,76.5 C 17.6806,76.1726 27.6806,76.506 37.5,77.5C 37.1961,78.1499 36.8627,78.8165 36.5,79.5C 26.1828,80.6656 15.8494,80.8323 5.5,80C 6.82277,79.1841 7.48944,78.0174 7.5,76.5 Z"/></g>
</svg>
