<?xml version="1.0" encoding="UTF-8"?>
<!DOCTYPE svg PUBLIC "-//W3C//DTD SVG 1.1//EN" "http://www.w3.org/Graphics/SVG/1.1/DTD/svg11.dtd">
<svg xmlns="http://www.w3.org/2000/svg" version="1.1" width="96px" height="96px" style="shape-rendering:geometricPrecision; text-rendering:geometricPrecision; image-rendering:optimizeQuality; fill-rule:evenodd; clip-rule:evenodd" xmlns:xlink="http://www.w3.org/1999/xlink">
<g><path style="opacity:0.822" fill="#010101" d="M 6.5,-0.5 C 33.8333,-0.5 61.1667,-0.5 88.5,-0.5C 91.1667,1.5 93.5,3.83333 95.5,6.5C 95.5,33.5 95.5,60.5 95.5,87.5C 93.7425,91.5922 90.7425,94.2589 86.5,95.5C 60.5,95.5 34.5,95.5 8.5,95.5C 4.5,93.5 1.5,90.5 -0.5,86.5C -0.5,60.1667 -0.5,33.8333 -0.5,7.5C 1.11698,4.21573 3.45031,1.54906 6.5,-0.5 Z"/></g>
<g><path style="opacity:1" fill="#f8f8f8" d="M 7.5,1.5 C 34.1687,1.33336 60.8354,1.50003 87.5,2C 89.286,2.78451 90.786,3.95118 92,5.5C 93.6487,32.4132 93.982,59.4132 93,86.5C 91.8783,88.6238 90.3783,90.4571 88.5,92C 61.9202,93.6484 35.2536,93.9818 8.5,93C 6.37623,91.8783 4.5429,90.3783 3,88.5C 1.35133,61.5868 1.018,34.5868 2,7.5C 3.35968,4.97739 5.19301,2.97739 7.5,1.5 Z"/></g>
<g><path style="opacity:1" fill="#030303" d="M 58.5,7.5 C 67.0244,7.34483 69.3578,11.0115 65.5,18.5C 57.8776,21.0416 54.7109,18.3749 56,10.5C 57.045,9.62656 57.8783,8.62656 58.5,7.5 Z"/></g>
<g><path style="opacity:1" fill="#0b0b0b" d="M 68.5,55.5 C 67.88,61.9262 68.5467,67.9262 70.5,73.5C 76.7656,76.9765 77.099,81.1431 71.5,86C 69.5,86.6667 67.5,86.6667 65.5,86C 58.9927,83.7985 52.326,82.2985 45.5,81.5C 45.5,80.1667 45.5,78.8333 45.5,77.5C 50.5346,76.7117 55.5346,75.7117 60.5,74.5C 61.6623,69.533 61.8289,64.533 61,59.5C 57.9845,56.3172 54.8178,53.3172 51.5,50.5C 50.0179,54.3437 49.1845,58.3437 49,62.5C 45.9754,66.0239 43.1421,69.6906 40.5,73.5C 44.003,81.5079 41.3363,85.3412 32.5,85C 26.1667,81.8333 19.8333,78.6667 13.5,75.5C 12.7025,75.0431 12.3691,74.3764 12.5,73.5C 18.9338,72.8695 25.2671,72.2029 31.5,71.5C 34.3172,68.5743 37.1506,65.5743 40,62.5C 40.6852,50.5824 43.5185,39.249 48.5,28.5C 45.4922,28.7437 42.6588,30.077 40,32.5C 38.3554,35.6215 36.8554,38.7882 35.5,42C 32,42.5 30.5,41 31,37.5C 32.6667,34.1667 34.3333,30.8333 36,27.5C 40.5843,24.7917 45.0843,21.9584 49.5,19C 54.2641,19.4703 58.9307,20.8036 63.5,23C 65.1218,27.4161 66.6218,31.9161 68,36.5C 71.0353,38.7358 74.3686,40.4024 78,41.5C 78.9859,43.9248 78.3193,45.5915 76,46.5C 72.1108,45.1386 68.2775,43.6386 64.5,42C 62.9633,39.7204 61.7967,37.2204 61,34.5C 60.6667,34.8333 60.3333,35.1667 60,35.5C 59.1509,38.2548 58.4843,40.9214 58,43.5C 61.3362,47.6678 64.8362,51.6678 68.5,55.5 Z"/></g>
<g><path style="opacity:1" fill="#8f9194" d="M 68.5,55.5 C 69.2049,61.3992 69.8716,67.3992 70.5,73.5C 68.5467,67.9262 67.88,61.9262 68.5,55.5 Z"/></g>
<g><path style="opacity:1" fill="#828486" d="M 31.5,71.5 C 25.2671,72.2029 18.9338,72.8695 12.5,73.5C 18.412,71.5437 24.7453,70.8771 31.5,71.5 Z"/></g>
<g><path style="opacity:1" fill="#6b6c6e" d="M 30.5,75.5 C 27.2869,75.19 24.2869,75.5233 21.5,76.5C 20.7109,76.2172 20.0442,75.7172 19.5,75C 23.3575,74.1901 27.0242,74.3567 30.5,75.5 Z"/></g>
<g><path style="opacity:1" fill="#d1d1d2" d="M 68.5,75.5 C 72.8292,76.982 73.4959,79.482 70.5,83C 64.4461,82.6577 58.4461,81.6577 52.5,80C 54.7758,78.6359 57.2758,77.8025 60,77.5C 62.6789,78.8945 65.5123,79.5612 68.5,79.5C 68.5,78.1667 68.5,76.8333 68.5,75.5 Z"/></g>
<g><path style="opacity:1" fill="#e0e1e1" d="M 21.5,76.5 C 24.2869,75.5233 27.2869,75.19 30.5,75.5C 32.1019,79.1396 34.4352,79.4729 37.5,76.5C 40.3082,79.4145 39.6415,81.4145 35.5,82.5C 30.8125,80.488 26.1458,78.488 21.5,76.5 Z"/></g>
</svg>
