<?xml version="1.0" encoding="UTF-8"?>
<!DOCTYPE svg PUBLIC "-//W3C//DTD SVG 1.1//EN" "http://www.w3.org/Graphics/SVG/1.1/DTD/svg11.dtd">
<svg xmlns="http://www.w3.org/2000/svg" version="1.1" width="96px" height="96px" style="shape-rendering:geometricPrecision; text-rendering:geometricPrecision; image-rendering:optimizeQuality; fill-rule:evenodd; clip-rule:evenodd" xmlns:xlink="http://www.w3.org/1999/xlink">
<g><path style="opacity:0.796" fill="#020202" d="M 7.5,-0.5 C 34.1667,-0.5 60.8333,-0.5 87.5,-0.5C 91.1667,1.16667 93.8333,3.83333 95.5,7.5C 95.5,34.1667 95.5,60.8333 95.5,87.5C 93.8333,91.1667 91.1667,93.8333 87.5,95.5C 60.8333,95.5 34.1667,95.5 7.5,95.5C 3.83333,93.8333 1.16667,91.1667 -0.5,87.5C -0.5,60.8333 -0.5,34.1667 -0.5,7.5C 1.19208,3.80788 3.85875,1.14121 7.5,-0.5 Z"/></g>
<g><path style="opacity:1" fill="#f7f7f7" d="M 7.5,1.5 C 34.1687,1.33336 60.8354,1.50003 87.5,2C 90,3.16667 91.8333,5 93,7.5C 93.6667,33.8333 93.6667,60.1667 93,86.5C 91.8783,88.6238 90.3783,90.4571 88.5,92C 61.9202,93.6484 35.2536,93.9818 8.5,93C 6.37623,91.8783 4.5429,90.3783 3,88.5C 1.35133,61.5868 1.018,34.5868 2,7.5C 3.35968,4.97739 5.19301,2.97739 7.5,1.5 Z"/></g>
<g><path style="opacity:1" fill="#171718" d="M 18.5,6.5 C 20.255,8.76118 21.4216,11.4278 22,14.5C 30.7575,16.8822 30.5908,18.5489 21.5,19.5C 20.5489,28.5908 18.8822,28.7575 16.5,20C 13.6728,19.2985 11.0062,18.2985 8.5,17C 15.1079,16.5598 18.4412,13.0598 18.5,6.5 Z"/></g>
<g><path style="opacity:1" fill="#040405" d="M 71.5,10.5 C 75.5376,17.5894 79.2043,24.9227 82.5,32.5C 79.8422,33.8289 77.1756,35.1622 74.5,36.5C 73.5,35.8333 72.5,35.1667 71.5,34.5C 62.6074,38.4069 53.7741,42.4069 45,46.5C 44.5814,45.3279 43.9147,44.3279 43,43.5C 35.3485,46.8247 27.6819,50.158 20,53.5C 18.8315,52.9915 17.9981,52.1581 17.5,51C 10.5884,51.6697 9.92173,49.8364 15.5,45.5C 14.3554,44.109 14.3554,42.7757 15.5,41.5C 22.5479,38.7031 29.5479,35.7031 36.5,32.5C 37.2436,31.0095 37.9103,29.5095 38.5,28C 46.6773,24.216 55.0106,20.716 63.5,17.5C 64.9912,13.7641 67.6578,11.4307 71.5,10.5 Z"/></g>
<g><path style="opacity:1" fill="#090a0a" d="M 52.5,51.5 C 52.6715,53.4918 52.0049,55.1585 50.5,56.5C 50.6236,57.1067 50.9569,57.44 51.5,57.5C 56.7415,66.3117 61.7415,75.3117 66.5,84.5C 65.1667,85.8333 63.8333,85.8333 62.5,84.5C 57.5324,75.7026 52.3657,67.0359 47,58.5C 46.5002,67.4938 46.3336,76.4938 46.5,85.5C 45.1667,85.5 43.8333,85.5 42.5,85.5C 42.6664,76.4938 42.4998,67.4938 42,58.5C 37,67.1667 32,75.8333 27,84.5C 25.5064,85.7472 24.0064,85.7472 22.5,84.5C 27.7779,75.6068 32.7779,66.6068 37.5,57.5C 38.0431,57.44 38.3764,57.1067 38.5,56.5C 36.9951,55.1585 36.3285,53.4918 36.5,51.5C 39.5415,51.4487 42.2082,50.4487 44.5,48.5C 46.7918,50.4487 49.4585,51.4487 52.5,51.5 Z"/></g>
<g><path style="opacity:1" fill="#999b9e" d="M 36.5,51.5 C 36.3285,53.4918 36.9951,55.1585 38.5,56.5C 38.3764,57.1067 38.0431,57.44 37.5,57.5C 35.49,55.6834 35.1566,53.6834 36.5,51.5 Z"/></g>
<g><path style="opacity:1" fill="#96989b" d="M 52.5,51.5 C 53.8434,53.6834 53.51,55.6834 51.5,57.5C 50.9569,57.44 50.6236,57.1067 50.5,56.5C 52.0049,55.1585 52.6715,53.4918 52.5,51.5 Z"/></g>
<g><path style="opacity:1" fill="#080808" d="M 81.5,67.5 C 80.4324,68.4345 79.099,68.7678 77.5,68.5C 72.2982,64.9918 71.1316,60.3251 74,54.5C 75.7373,52.3754 77.904,51.542 80.5,52C 75.0267,57.5865 75.36,62.7531 81.5,67.5 Z"/></g>
<g><path style="opacity:1" fill="#717274" d="M 81.5,67.5 C 82.3764,67.3691 83.0431,67.7025 83.5,68.5C 81.3635,69.7928 79.3635,69.7928 77.5,68.5C 79.099,68.7678 80.4324,68.4345 81.5,67.5 Z"/></g>
</svg>
