<?xml version="1.0" encoding="UTF-8"?>
<!DOCTYPE svg PUBLIC "-//W3C//DTD SVG 1.1//EN" "http://www.w3.org/Graphics/SVG/1.1/DTD/svg11.dtd">
<svg xmlns="http://www.w3.org/2000/svg" version="1.1" width="96px" height="96px" style="shape-rendering:geometricPrecision; text-rendering:geometricPrecision; image-rendering:optimizeQuality; fill-rule:evenodd; clip-rule:evenodd" xmlns:xlink="http://www.w3.org/1999/xlink">
<g><path style="opacity:0.797" fill="#010101" d="M 7.5,-0.5 C 34.5,-0.5 61.5,-0.5 88.5,-0.5C 91.1667,1.5 93.5,3.83333 95.5,6.5C 95.5,33.5 95.5,60.5 95.5,87.5C 93.7425,91.5922 90.7425,94.2589 86.5,95.5C 60.5,95.5 34.5,95.5 8.5,95.5C 4.16667,93.8333 1.16667,90.8333 -0.5,86.5C -0.5,60.1667 -0.5,33.8333 -0.5,7.5C 1.19208,3.80788 3.85875,1.14121 7.5,-0.5 Z"/></g>
<g><path style="opacity:1" fill="#f8f8f8" d="M 7.5,1.5 C 34.1687,1.33336 60.8354,1.50003 87.5,2C 89.286,2.78451 90.786,3.95118 92,5.5C 93.6487,32.4132 93.982,59.4132 93,86.5C 91.8783,88.6238 90.3783,90.4571 88.5,92C 61.9202,93.6484 35.2536,93.9818 8.5,93C 6.37623,91.8783 4.5429,90.3783 3,88.5C 1.35156,61.9202 1.01823,35.2536 2,8.5C 2.96679,5.37935 4.80012,3.04602 7.5,1.5 Z"/></g>
<g><path style="opacity:1" fill="#090909" d="M 69.5,24.5 C 75.168,23.6712 77.668,26.0045 77,31.5C 76.1667,32.3333 75.3333,33.1667 74.5,34C 68.8333,35 63.1667,36 57.5,37C 56.9781,37.5613 56.6448,38.228 56.5,39C 61.2864,47.4039 65.9531,55.9039 70.5,64.5C 69.3333,64.8333 68.1667,65.1667 67,65.5C 64.154,64.3556 61.154,63.6889 58,63.5C 54.5992,63.8693 51.2659,64.536 48,65.5C 44.8679,64.6849 41.7013,64.0182 38.5,63.5C 35.2987,64.0182 32.1321,64.6849 29,65.5C 26.8546,65.604 25.0212,64.9373 23.5,63.5C 31.5853,58.7069 39.7519,54.0402 48,49.5C 48.6667,48.5 48.6667,47.5 48,46.5C 45.3035,42.4404 43.1368,38.107 41.5,33.5C 41.5288,31.9707 42.1955,30.804 43.5,30C 52.3112,28.2026 60.9778,26.3693 69.5,24.5 Z"/></g>
<g><path style="opacity:1" fill="#0a0a0b" d="M 71.5,40.5 C 81.1786,39.6781 85.012,44.0114 83,53.5C 80.4586,58.0685 76.6253,59.5685 71.5,58C 66.8451,55.1034 65.3451,50.9367 67,45.5C 68.025,43.313 69.525,41.6464 71.5,40.5 Z"/></g>
<g><path style="opacity:1" fill="#090909" d="M 82.5,70.5 C 83.209,71.404 84.209,71.7373 85.5,71.5C 85.5,73.5 85.5,75.5 85.5,77.5C 84.5,77.5 83.5,77.5 82.5,77.5C 58.4997,78.611 34.4997,78.611 10.5,77.5C 10.5,75.5 10.5,73.5 10.5,71.5C 13.4175,70.5462 16.4175,69.8795 19.5,69.5C 22.8745,69.9581 26.2079,70.6248 29.5,71.5C 35.8053,68.9099 42.1386,68.9099 48.5,71.5C 54.7424,68.9619 61.0757,68.9619 67.5,71.5C 72.3296,69.3357 77.3296,69.0024 82.5,70.5 Z"/></g>
<g><path style="opacity:1" fill="#8f9193" d="M 82.5,70.5 C 83.8333,70.5 85.1667,70.5 86.5,70.5C 86.5,73.1667 86.5,75.8333 86.5,78.5C 84.901,78.7678 83.5676,78.4345 82.5,77.5C 83.5,77.5 84.5,77.5 85.5,77.5C 85.5,75.5 85.5,73.5 85.5,71.5C 84.209,71.7373 83.209,71.404 82.5,70.5 Z"/></g>
</svg>
