<?xml version="1.0" encoding="UTF-8"?>
<!DOCTYPE svg PUBLIC "-//W3C//DTD SVG 1.1//EN" "http://www.w3.org/Graphics/SVG/1.1/DTD/svg11.dtd">
<svg xmlns="http://www.w3.org/2000/svg" version="1.1" width="96px" height="96px" style="shape-rendering:geometricPrecision; text-rendering:geometricPrecision; image-rendering:optimizeQuality; fill-rule:evenodd; clip-rule:evenodd" xmlns:xlink="http://www.w3.org/1999/xlink">
<g><path style="opacity:0.797" fill="#010101" d="M 8.5,-0.5 C 34.5,-0.5 60.5,-0.5 86.5,-0.5C 90.5259,1.01289 93.5259,3.67955 95.5,7.5C 95.5,34.1667 95.5,60.8333 95.5,87.5C 93.9098,90.7608 91.5765,93.4274 88.5,95.5C 61.1667,95.5 33.8333,95.5 6.5,95.5C 3.45031,93.4509 1.11698,90.7843 -0.5,87.5C -0.5,60.8333 -0.5,34.1667 -0.5,7.5C 1.58053,3.75025 4.58053,1.08358 8.5,-0.5 Z"/></g>
<g><path style="opacity:1" fill="#fafafa" d="M 8.5,1.5 C 34.5021,1.33336 60.5021,1.50003 86.5,2C 88.96,3.4578 91.1266,5.29113 93,7.5C 93.6667,33.8333 93.6667,60.1667 93,86.5C 92.214,89.5827 90.3807,91.7494 87.5,93C 60.8333,93.6667 34.1667,93.6667 7.5,93C 5,91.8333 3.16667,90 2,87.5C 1.33333,61.1667 1.33333,34.8333 2,8.5C 3.69406,5.64238 5.86073,3.30904 8.5,1.5 Z"/></g>
<g><path style="opacity:1" fill="#020202" d="M 45.5,7.5 C 45.8005,15.5856 45.4672,23.5856 44.5,31.5C 43.2101,32.0577 42.3768,33.0577 42,34.5C 40.0875,43.4891 40.0875,52.4891 42,61.5C 42.2004,63.3197 43.0337,64.653 44.5,65.5C 45.812,73.2653 45.812,80.9319 44.5,88.5C 39.9593,86.7983 36.4593,83.7983 34,79.5C 25.1556,57.9784 25.489,36.6451 35,15.5C 37.8308,11.8209 41.3308,9.15427 45.5,7.5 Z"/></g>
<g><path style="opacity:1" fill="#949699" d="M 45.5,7.5 C 46.1656,11.3188 46.4989,15.3188 46.5,19.5C 46.4907,23.893 45.824,27.893 44.5,31.5C 45.4672,23.5856 45.8005,15.5856 45.5,7.5 Z"/></g>
<g><path style="opacity:1" fill="#6c6d6f" d="M 50.5,7.5 C 50.5,15.1667 50.5,22.8333 50.5,30.5C 52.8333,30.5 55.1667,30.5 57.5,30.5C 55.0521,31.4731 52.3854,31.8064 49.5,31.5C 49.1743,23.3159 49.5076,15.3159 50.5,7.5 Z"/></g>
<g><path style="opacity:1" fill="#010101" d="M 50.5,7.5 C 53.1667,7.5 55.8333,7.5 58.5,7.5C 58.8254,15.3516 58.492,23.0182 57.5,30.5C 55.1667,30.5 52.8333,30.5 50.5,30.5C 50.5,22.8333 50.5,15.1667 50.5,7.5 Z"/></g>
<g><path style="opacity:1" fill="#96989b" d="M 44.5,65.5 C 45.824,69.107 46.4907,73.107 46.5,77.5C 46.1667,81.5 45.8333,85.5 45.5,89.5C 44.8933,89.3764 44.56,89.0431 44.5,88.5C 45.812,80.9319 45.812,73.2653 44.5,65.5 Z"/></g>
<g><path style="opacity:1" fill="#737477" d="M 57.5,66.5 C 55.1667,66.5 52.8333,66.5 50.5,66.5C 50.5,73.8333 50.5,81.1667 50.5,88.5C 52.8333,88.5 55.1667,88.5 57.5,88.5C 55.0521,89.4731 52.3854,89.8064 49.5,89.5C 49.5,81.5 49.5,73.5 49.5,65.5C 52.3854,65.1936 55.0521,65.5269 57.5,66.5 Z"/></g>
<g><path style="opacity:1" fill="#000000" d="M 57.5,66.5 C 58.8333,73.8333 58.8333,81.1667 57.5,88.5C 55.1667,88.5 52.8333,88.5 50.5,88.5C 50.5,81.1667 50.5,73.8333 50.5,66.5C 52.8333,66.5 55.1667,66.5 57.5,66.5 Z"/></g>
</svg>
