<?xml version="1.0" encoding="UTF-8"?>
<!DOCTYPE svg PUBLIC "-//W3C//DTD SVG 1.1//EN" "http://www.w3.org/Graphics/SVG/1.1/DTD/svg11.dtd">
<svg xmlns="http://www.w3.org/2000/svg" version="1.1" width="96px" height="96px" style="shape-rendering:geometricPrecision; text-rendering:geometricPrecision; image-rendering:optimizeQuality; fill-rule:evenodd; clip-rule:evenodd" xmlns:xlink="http://www.w3.org/1999/xlink">
<g><path style="opacity:0.8" fill="#0e0e0e" d="M 8.5,-0.5 C 34.8333,-0.5 61.1667,-0.5 87.5,-0.5C 90.7843,1.11698 93.4509,3.45031 95.5,6.5C 95.5,33.8333 95.5,61.1667 95.5,88.5C 93.5,91.1667 91.1667,93.5 88.5,95.5C 61.5,95.5 34.5,95.5 7.5,95.5C 3.67955,93.5259 1.01289,90.5259 -0.5,86.5C -0.5,60.8333 -0.5,35.1667 -0.5,9.5C 1.1053,4.89551 4.1053,1.56217 8.5,-0.5 Z"/></g>
<g><path style="opacity:1" fill="#f9f9fa" d="M 8.5,1.5 C 34.5021,1.33336 60.5021,1.50003 86.5,2C 89.5827,2.78597 91.7494,4.61931 93,7.5C 93.6667,34.1667 93.6667,60.8333 93,87.5C 92.2155,89.286 91.0488,90.786 89.5,92C 62.2534,93.6489 34.92,93.9822 7.5,93C 6,91.5 4.5,90 3,88.5C 2.33333,61.1667 2.33333,33.8333 3,6.5C 4.72969,4.59809 6.56303,2.93142 8.5,1.5 Z"/></g>
<g><path style="opacity:1" fill="#070707" d="M 61.5,9.5 C 69.1601,7.99574 72.3268,10.9957 71,18.5C 67.6847,22.1053 64.018,22.4386 60,19.5C 57.6326,15.6579 58.1326,12.3245 61.5,9.5 Z"/></g>
<g><path style="opacity:1" fill="#020202" d="M 67.5,84.5 C 67.5,74.1667 67.5,63.8333 67.5,53.5C 65.901,53.2322 64.5676,53.5655 63.5,54.5C 63.6665,64.8387 63.4998,75.172 63,85.5C 60.2916,88.3885 58.1249,88.0552 56.5,84.5C 56.8328,67.4869 56.4995,50.4869 55.5,33.5C 54.8933,33.6236 54.56,33.9569 54.5,34.5C 53.0553,37.1182 51.3887,39.6182 49.5,42C 44.5,42.6667 39.5,42.6667 34.5,42C 33.1667,40.6667 33.1667,39.3333 34.5,38C 38.5,37.6667 42.5,37.3333 46.5,37C 49.4504,32.3815 52.7838,28.0482 56.5,24C 63.5,23.3333 70.5,23.3333 77.5,24C 80.4281,25.2598 82.2614,27.4265 83,30.5C 83.6667,37.8333 83.6667,45.1667 83,52.5C 82.0475,54.5922 80.7141,54.9255 79,53.5C 78.5004,46.5079 78.3337,39.5079 78.5,32.5C 77.1667,32.5 75.8333,32.5 74.5,32.5C 74.6666,50.1698 74.4999,67.8365 74,85.5C 71.1611,88.4294 68.9944,88.096 67.5,84.5 Z"/></g>
<g><path style="opacity:1" fill="#919396" d="M 54.5,34.5 C 54.56,33.9569 54.8933,33.6236 55.5,33.5C 56.4995,50.4869 56.8328,67.4869 56.5,84.5C 55.8333,67.8333 55.1667,51.1667 54.5,34.5 Z"/></g>
<g><path style="opacity:1" fill="#222223" d="M 26.5,42.5 C 31.0759,44.3649 31.4092,46.6982 27.5,49.5C 23.9667,47.5798 23.6334,45.2465 26.5,42.5 Z"/></g>
<g><path style="opacity:1" fill="#0b0b0b" d="M 29.5,51.5 C 34.1972,52.8743 34.5305,54.8743 30.5,57.5C 27.025,55.9158 26.6917,53.9158 29.5,51.5 Z"/></g>
<g><path style="opacity:1" fill="#8e9093" d="M 18.5,55.5 C 17.1667,55.5 15.8333,55.5 14.5,55.5C 14.5,56.5 14.5,57.5 14.5,58.5C 13.5655,57.4324 13.2322,56.099 13.5,54.5C 15.4147,54.2155 17.0813,54.5489 18.5,55.5 Z"/></g>
<g><path style="opacity:1" fill="#919396" d="M 63.5,54.5 C 64.5676,53.5655 65.901,53.2322 67.5,53.5C 67.5,63.8333 67.5,74.1667 67.5,84.5C 66.506,74.6806 66.1726,64.6806 66.5,54.5C 65.5,54.5 64.5,54.5 63.5,54.5 Z"/></g>
<g><path style="opacity:1" fill="#0b0b0b" d="M 18.5,55.5 C 20.3849,64.4724 22.0516,73.4724 23.5,82.5C 27.5,82.5 31.5,82.5 35.5,82.5C 36.5184,73.3678 38.1851,64.3678 40.5,55.5C 41.8333,55.5 43.1667,55.5 44.5,55.5C 42.5757,65.4552 40.909,75.4552 39.5,85.5C 32.9221,86.4601 26.2554,86.7934 19.5,86.5C 18.0186,77.1288 16.3519,67.7955 14.5,58.5C 14.5,57.5 14.5,56.5 14.5,55.5C 15.8333,55.5 17.1667,55.5 18.5,55.5 Z"/></g>
<g><path style="opacity:1" fill="#151515" d="M 26.5,60.5 C 28.1667,60.5 29.8333,60.5 31.5,60.5C 31.5,62.1667 31.5,63.8333 31.5,65.5C 29.8333,65.5 28.1667,65.5 26.5,65.5C 26.5,63.8333 26.5,62.1667 26.5,60.5 Z"/></g>
<g><path style="opacity:1" fill="#646567" d="M 39.5,85.5 C 36.572,86.8197 33.2386,87.4864 29.5,87.5C 25.9825,87.4984 22.6491,87.1651 19.5,86.5C 26.2554,86.7934 32.9221,86.4601 39.5,85.5 Z"/></g>
</svg>
