<?xml version="1.0" encoding="UTF-8"?>
<!DOCTYPE svg PUBLIC "-//W3C//DTD SVG 1.1//EN" "http://www.w3.org/Graphics/SVG/1.1/DTD/svg11.dtd">
<svg xmlns="http://www.w3.org/2000/svg" version="1.1" width="96px" height="96px" style="shape-rendering:geometricPrecision; text-rendering:geometricPrecision; image-rendering:optimizeQuality; fill-rule:evenodd; clip-rule:evenodd" xmlns:xlink="http://www.w3.org/1999/xlink">
<g><path style="opacity:0.796" fill="#010101" d="M 7.5,-0.5 C 34.1667,-0.5 60.8333,-0.5 87.5,-0.5C 91.1667,1.16667 93.8333,3.83333 95.5,7.5C 95.5,34.1667 95.5,60.8333 95.5,87.5C 93.8333,91.1667 91.1667,93.8333 87.5,95.5C 60.8333,95.5 34.1667,95.5 7.5,95.5C 3.83333,93.8333 1.16667,91.1667 -0.5,87.5C -0.5,60.8333 -0.5,34.1667 -0.5,7.5C 1.16667,3.83333 3.83333,1.16667 7.5,-0.5 Z"/></g>
<g><path style="opacity:1" fill="#f9f9f9" d="M 7.5,1.5 C 34.1687,1.33336 60.8354,1.50003 87.5,2C 90,3.16667 91.8333,5 93,7.5C 93.6667,34.1667 93.6667,60.8333 93,87.5C 91.7494,90.3807 89.5827,92.214 86.5,93C 60.1667,93.6667 33.8333,93.6667 7.5,93C 4.61931,91.7494 2.78597,89.5827 2,86.5C 1.33333,60.1667 1.33333,33.8333 2,7.5C 3.35968,4.97739 5.19301,2.97739 7.5,1.5 Z"/></g>
<g><path style="opacity:1" fill="#111111" d="M 44.5,7.5 C 54.766,7.26153 57.0993,11.4282 51.5,20C 44.3333,20.8333 41.1667,17.6667 42,10.5C 43.045,9.62656 43.8783,8.62656 44.5,7.5 Z"/></g>
<g><path style="opacity:1" fill="#070707" d="M 45.5,21.5 C 47.1992,21.3398 48.8659,21.5065 50.5,22C 54.6121,26.3911 58.1121,31.2245 61,36.5C 65.1326,38.8096 68.9659,41.4763 72.5,44.5C 71.7884,46.0459 70.6217,47.0459 69,47.5C 62.836,45.2677 57.836,41.601 54,36.5C 52.4548,41.0466 52.1215,45.7133 53,50.5C 56.8596,61.2964 60.0263,72.2964 62.5,83.5C 62.4302,84.7716 62.0968,85.9383 61.5,87C 59.2305,87.7581 57.0639,87.5914 55,86.5C 52.3333,77.8333 49.6667,69.1667 47,60.5C 44.8022,69.5692 41.4688,78.2358 37,86.5C 30.6667,89.1667 28.3333,87.1667 30,80.5C 32,76.5 34,72.5 36,68.5C 38.0702,57.9165 39.0702,47.2498 39,36.5C 38,37.5 37,38.5 36,39.5C 35.5785,43.8721 34.9119,48.2054 34,52.5C 30.0877,53.9269 28.5877,52.4269 29.5,48C 29.9589,43.8284 30.4589,39.6618 31,35.5C 35.7287,30.6025 40.562,25.9359 45.5,21.5 Z"/></g>
</svg>
