<?xml version="1.0" encoding="UTF-8"?>
<!DOCTYPE svg PUBLIC "-//W3C//DTD SVG 1.1//EN" "http://www.w3.org/Graphics/SVG/1.1/DTD/svg11.dtd">
<svg xmlns="http://www.w3.org/2000/svg" version="1.1" width="96px" height="96px" style="shape-rendering:geometricPrecision; text-rendering:geometricPrecision; image-rendering:optimizeQuality; fill-rule:evenodd; clip-rule:evenodd" xmlns:xlink="http://www.w3.org/1999/xlink">
<g><path style="opacity:0.779" fill="#161617" d="M 6.5,-0.5 C 33.5,-0.5 60.5,-0.5 87.5,-0.5C 91.5992,1.70411 94.2659,5.03744 95.5,9.5C 95.5,34.8333 95.5,60.1667 95.5,85.5C 93.9217,90.08 90.9217,93.4134 86.5,95.5C 60.1667,95.5 33.8333,95.5 7.5,95.5C 4.21573,93.883 1.54906,91.5497 -0.5,88.5C -0.5,61.1667 -0.5,33.8333 -0.5,6.5C 1.5,3.83333 3.83333,1.5 6.5,-0.5 Z"/></g>
<g><path style="opacity:1" fill="#f9f9fa" d="M 6.5,1.5 C 33.1687,1.33336 59.8354,1.50003 86.5,2C 88.6238,3.12173 90.4571,4.62173 92,6.5C 92.6667,33.5 92.6667,60.5 92,87.5C 90.7494,90.3807 88.5827,92.214 85.5,93C 59.8333,93.6667 34.1667,93.6667 8.5,93C 6.15226,92.6541 4.31892,91.4875 3,89.5C 1.35088,61.9199 1.01755,34.2533 2,6.5C 3.70733,4.96252 5.20733,3.29585 6.5,1.5 Z"/></g>
<g><path style="opacity:1" fill="#727375" d="M 45.5,14.5 C 45.5,35.5 45.5,56.5 45.5,77.5C 46.8333,77.5 48.1667,77.5 49.5,77.5C 49.5,56.5 49.5,35.5 49.5,14.5C 50.4973,35.6601 50.8306,56.9935 50.5,78.5C 48.5,78.5 46.5,78.5 44.5,78.5C 44.1694,56.9935 44.5027,35.6601 45.5,14.5 Z"/></g>
<g><path style="opacity:1" fill="#000000" d="M 45.5,14.5 C 46.8333,14.5 48.1667,14.5 49.5,14.5C 49.5,35.5 49.5,56.5 49.5,77.5C 48.1667,77.5 46.8333,77.5 45.5,77.5C 45.5,56.5 45.5,35.5 45.5,14.5 Z"/></g>
<g><path style="opacity:1" fill="#040505" d="M 25.5,24.5 C 23.5,24.5 21.5,24.5 19.5,24.5C 18.8826,24.3893 18.3826,24.056 18,23.5C 16.5,17 19,14.5 25.5,16C 28.0613,18.8233 28.0613,21.6567 25.5,24.5 Z"/></g>
<g><path style="opacity:1" fill="#0b0b0b" d="M 74.5,24.5 C 72.8333,24.5 71.1667,24.5 69.5,24.5C 65.8074,18.4072 67.4741,15.2405 74.5,15C 78.4007,18.2076 78.4007,21.3743 74.5,24.5 Z"/></g>
<g><path style="opacity:1" fill="#b5b6b8" d="M 19.5,24.5 C 21.5,24.5 23.5,24.5 25.5,24.5C 26.5,25.1667 27.5,25.8333 28.5,26.5C 24.1667,26.5 19.8333,26.5 15.5,26.5C 16.8333,25.8333 18.1667,25.1667 19.5,24.5 Z"/></g>
<g><path style="opacity:1" fill="#939497" d="M 69.5,24.5 C 71.1667,24.5 72.8333,24.5 74.5,24.5C 76.5,25.1667 78.5,25.8333 80.5,26.5C 74.8333,26.5 69.1667,26.5 63.5,26.5C 65.5,25.8333 67.5,25.1667 69.5,24.5 Z"/></g>
<g><path style="opacity:1" fill="#0c0d0d" d="M 15.5,26.5 C 19.8333,26.5 24.1667,26.5 28.5,26.5C 30.7346,27.2279 32.5679,28.5612 34,30.5C 34.7293,35.021 36.0626,39.3543 38,43.5C 39.2381,46.9257 38.0714,48.5923 34.5,48.5C 33.4568,43.2717 31.7901,38.2717 29.5,33.5C 29.1667,34.1667 28.8333,34.8333 28.5,35.5C 30.5013,42.5108 32.5013,49.5108 34.5,56.5C 32.604,57.4656 30.604,57.7989 28.5,57.5C 28.5,64.1667 28.5,70.8333 28.5,77.5C 26.8333,77.5 25.1667,77.5 23.5,77.5C 23.83,70.8002 23.4967,64.1335 22.5,57.5C 21.6694,63.8072 21.1694,70.1406 21,76.5C 19.3845,77.8009 17.8845,77.8009 16.5,76.5C 16.5,69.8333 16.5,63.1667 16.5,56.5C 14.2646,56.7947 12.2646,56.4614 10.5,55.5C 12.6988,48.2347 14.6988,40.9014 16.5,33.5C 15.5,33.5 14.5,33.5 13.5,33.5C 12.7324,38.5131 11.399,43.3464 9.5,48C 8.55198,48.4828 7.55198,48.6495 6.5,48.5C 7.25867,41.5411 9.09201,34.8744 12,28.5C 13.1127,27.695 14.2794,27.0283 15.5,26.5 Z"/></g>
<g><path style="opacity:1" fill="#040404" d="M 63.5,26.5 C 69.1667,26.5 74.8333,26.5 80.5,26.5C 82.371,26.8588 83.871,27.8588 85,29.5C 85.4996,36.4921 85.6663,43.4921 85.5,50.5C 84.1779,50.67 83.0113,50.3366 82,49.5C 81.8295,44.1358 81.3295,38.8025 80.5,33.5C 79.6672,47.8217 79.1672,62.1551 79,76.5C 77.3333,77.8333 75.6667,77.8333 74,76.5C 73.5003,68.1733 73.3336,59.84 73.5,51.5C 72.791,50.596 71.791,50.2627 70.5,50.5C 70.5,59.1667 70.5,67.8333 70.5,76.5C 69.1155,77.8009 67.6155,77.8009 66,76.5C 65.5001,62.1705 65.3334,47.8372 65.5,33.5C 64.5,33.5 63.5,33.5 62.5,33.5C 62.5,39.1667 62.5,44.8333 62.5,50.5C 61.1667,50.5 59.8333,50.5 58.5,50.5C 58.3337,43.825 58.5004,37.1583 59,30.5C 60.0487,28.6156 61.5487,27.2823 63.5,26.5 Z"/></g>
<g><path style="opacity:1" fill="#656668" d="M 73.5,51.5 C 71.8452,59.6168 70.8452,67.9501 70.5,76.5C 70.5,67.8333 70.5,59.1667 70.5,50.5C 71.791,50.2627 72.791,50.596 73.5,51.5 Z"/></g>
<g><path style="opacity:1" fill="#b1b2b4" d="M 10.5,55.5 C 12.2646,56.4614 14.2646,56.7947 16.5,56.5C 16.5,63.1667 16.5,69.8333 16.5,76.5C 15.5098,70.3554 15.1765,64.0221 15.5,57.5C 13.396,57.7989 11.396,57.4656 9.5,56.5C 9.62358,55.8933 9.95691,55.56 10.5,55.5 Z"/></g>
</svg>
