<?xml version="1.0" encoding="UTF-8"?>
<!DOCTYPE svg PUBLIC "-//W3C//DTD SVG 1.1//EN" "http://www.w3.org/Graphics/SVG/1.1/DTD/svg11.dtd">
<svg xmlns="http://www.w3.org/2000/svg" version="1.1" width="96px" height="96px" style="shape-rendering:geometricPrecision; text-rendering:geometricPrecision; image-rendering:optimizeQuality; fill-rule:evenodd; clip-rule:evenodd" xmlns:xlink="http://www.w3.org/1999/xlink">
<g><path style="opacity:0.799" fill="#0e0e0e" d="M 8.5,-0.5 C 34.1667,-0.5 59.8333,-0.5 85.5,-0.5C 90.0719,1.0694 93.4053,4.0694 95.5,8.5C 95.5,34.8333 95.5,61.1667 95.5,87.5C 93.883,90.7843 91.5497,93.4509 88.5,95.5C 61.1667,95.5 33.8333,95.5 6.5,95.5C 3.83333,93.5 1.5,91.1667 -0.5,88.5C -0.5,61.5 -0.5,34.5 -0.5,7.5C 1.47409,3.67955 4.47409,1.01289 8.5,-0.5 Z"/></g>
<g><path style="opacity:1" fill="#fafafa" d="M 6.5,2.5 C 33.5021,2.33336 60.5021,2.50003 87.5,3C 89.286,3.78451 90.786,4.95118 92,6.5C 93.6484,33.0798 93.9818,59.7464 93,86.5C 92.2078,88.5873 91.0412,90.4207 89.5,92C 62.2534,93.6489 34.92,93.9822 7.5,93C 5.71398,92.2155 4.21398,91.0488 3,89.5C 1.35133,62.5868 1.018,35.5868 2,8.5C 3.33203,6.34004 4.83203,4.34004 6.5,2.5 Z"/></g>
<g><path style="opacity:1" fill="#0b0c0c" d="M 37.5,8.5 C 41.4545,8.06301 44.6212,9.39634 47,12.5C 50.6528,11.8079 54.1528,10.8079 57.5,9.5C 63.9997,11.0054 64.9997,14.1721 60.5,19C 56.1144,18.8293 51.781,17.9959 47.5,16.5C 44.107,18.0626 42.7737,20.7292 43.5,24.5C 41.5,24.5 39.5,24.5 37.5,24.5C 37.7444,20.3805 35.9111,17.7138 32,16.5C 28.379,17.1132 24.879,18.1132 21.5,19.5C 15.4043,16.6973 15.0709,13.3639 20.5,9.5C 24.4893,10.4984 28.4893,11.4984 32.5,12.5C 34.5773,11.6772 36.244,10.3439 37.5,8.5 Z"/></g>
<g><path style="opacity:1" fill="#000000" d="M 79.5,54.5 C 79.5,56.1667 79.5,57.8333 79.5,59.5C 74.1667,59.5 68.8333,59.5 63.5,59.5C 63.5,57.8333 63.5,56.1667 63.5,54.5C 64.4511,53.0813 64.7845,51.4147 64.5,49.5C 47.8333,49.5 31.1667,49.5 14.5,49.5C 14.5,44.8333 14.5,40.1667 14.5,35.5C 18.8333,35.5 23.1667,35.5 27.5,35.5C 27.2865,33.8561 27.6198,32.3561 28.5,31C 36.6544,26.1821 44.6544,26.3488 52.5,31.5C 53.4287,32.6888 53.762,34.0222 53.5,35.5C 60.7038,34.945 67.7038,35.7783 74.5,38C 75.6667,39.1667 76.8333,40.3333 78,41.5C 78.1753,46.0195 78.6753,50.3528 79.5,54.5 Z"/></g>
<g><path style="opacity:1" fill="#636466" d="M 63.5,54.5 C 63.5,56.1667 63.5,57.8333 63.5,59.5C 68.8333,59.5 74.1667,59.5 79.5,59.5C 79.5,57.8333 79.5,56.1667 79.5,54.5C 80.4614,56.2646 80.7947,58.2646 80.5,60.5C 74.5,60.5 68.5,60.5 62.5,60.5C 62.2053,58.2646 62.5386,56.2646 63.5,54.5 Z"/></g>
<g><path style="opacity:1" fill="#090909" d="M 70.5,63.5 C 71.3764,63.3691 72.0431,63.7025 72.5,64.5C 76.2767,70.3238 78.11,76.6572 78,83.5C 71.452,89.6609 66.952,88.4943 64.5,80C 66.3556,74.4539 68.3556,68.9539 70.5,63.5 Z"/></g>
</svg>
