<?xml version="1.0" encoding="UTF-8"?>
<!DOCTYPE svg PUBLIC "-//W3C//DTD SVG 1.1//EN" "http://www.w3.org/Graphics/SVG/1.1/DTD/svg11.dtd">
<svg xmlns="http://www.w3.org/2000/svg" version="1.1" width="96px" height="96px" style="shape-rendering:geometricPrecision; text-rendering:geometricPrecision; image-rendering:optimizeQuality; fill-rule:evenodd; clip-rule:evenodd" xmlns:xlink="http://www.w3.org/1999/xlink">
<g><path style="opacity:0.779" fill="#161617" d="M 9.5,-0.5 C 34.5,-0.5 59.5,-0.5 84.5,-0.5C 90.0588,0.724425 93.7255,4.05776 95.5,9.5C 95.5,35.1667 95.5,60.8333 95.5,86.5C 94.3106,90.3599 91.9773,93.3599 88.5,95.5C 60.8333,95.5 33.1667,95.5 5.5,95.5C 2.79973,93.7656 0.799728,91.4323 -0.5,88.5C -0.5,61.5 -0.5,34.5 -0.5,7.5C 1.70411,3.40076 5.03744,0.734096 9.5,-0.5 Z"/></g>
<g><path style="opacity:1" fill="#fafafb" d="M 6.5,2.5 C 33.5021,2.33336 60.5021,2.50003 87.5,3C 90.3807,4.2506 92.214,6.41727 93,9.5C 93.6667,35.1667 93.6667,60.8333 93,86.5C 92.2078,88.5873 91.0412,90.4207 89.5,92C 61.9199,93.6491 34.2533,93.9825 6.5,93C 5.33333,91.8333 4.16667,90.6667 3,89.5C 1.35946,62.2287 1.02612,34.8953 2,7.5C 3.70733,5.96252 5.20733,4.29585 6.5,2.5 Z"/></g>
<g><path style="opacity:1" fill="#0d0e0e" d="M 37.5,10.5 C 44.3143,10.49 46.8143,13.8233 45,20.5C 41.4123,24.3927 37.7456,24.3927 34,20.5C 32.7563,16.191 33.9229,12.8577 37.5,10.5 Z"/></g>
<g><path style="opacity:1" fill="#09090a" d="M 59.5,41.5 C 55.1667,41.5 50.8333,41.5 46.5,41.5C 46.2155,43.4147 46.5489,45.0813 47.5,46.5C 53.1764,46.3339 58.8431,46.5006 64.5,47C 68.7294,52.9013 72.5627,59.0679 76,65.5C 78.0693,66.2638 80.236,66.7638 82.5,67C 84.5268,68.3957 84.8602,70.0624 83.5,72C 79.5,72.6667 75.5,72.6667 71.5,72C 68.5,67 65.5,62 62.5,57C 54.5,56.6667 46.5,56.3333 38.5,56C 37.3333,54.8333 36.1667,53.6667 35,52.5C 34.3333,44.1667 34.3333,35.8333 35,27.5C 38.9786,23.3562 42.6453,23.6896 46,28.5C 46.4966,30.8098 46.6633,33.1432 46.5,35.5C 50.8461,35.3343 55.1794,35.501 59.5,36C 62.1239,37.9688 62.1239,39.8022 59.5,41.5 Z"/></g>
<g><path style="opacity:1" fill="#0a0a0b" d="M 29.5,39.5 C 30.6935,39.9704 31.3601,40.9704 31.5,42.5C 29.9591,45.9087 28.1258,49.242 26,52.5C 23.0192,69.5211 30.1859,78.0211 47.5,78C 54.5445,75.7897 59.5445,71.2897 62.5,64.5C 63.7515,66.0009 64.7515,67.6675 65.5,69.5C 58.6672,80.9518 48.6672,85.1185 35.5,82C 19.8969,73.7344 16.0635,61.5677 24,45.5C 26.0396,43.6298 27.8729,41.6298 29.5,39.5 Z"/></g>
<g><path style="opacity:1" fill="#898b8e" d="M 59.5,41.5 C 55.7016,42.4834 51.7016,42.8168 47.5,42.5C 47.5,43.8333 47.5,45.1667 47.5,46.5C 46.5489,45.0813 46.2155,43.4147 46.5,41.5C 50.8333,41.5 55.1667,41.5 59.5,41.5 Z"/></g>
</svg>
