<?xml version="1.0" encoding="UTF-8"?>
<!DOCTYPE svg PUBLIC "-//W3C//DTD SVG 1.1//EN" "http://www.w3.org/Graphics/SVG/1.1/DTD/svg11.dtd">
<svg xmlns="http://www.w3.org/2000/svg" version="1.1" width="96px" height="96px" style="shape-rendering:geometricPrecision; text-rendering:geometricPrecision; image-rendering:optimizeQuality; fill-rule:evenodd; clip-rule:evenodd" xmlns:xlink="http://www.w3.org/1999/xlink">
<g><path style="opacity:0.796" fill="#010101" d="M 7.5,-0.5 C 34.1667,-0.5 60.8333,-0.5 87.5,-0.5C 90.7608,1.09021 93.4274,3.42355 95.5,6.5C 95.5,33.8333 95.5,61.1667 95.5,88.5C 93.4509,91.5497 90.7843,93.883 87.5,95.5C 60.8333,95.5 34.1667,95.5 7.5,95.5C 3.75025,93.4195 1.08358,90.4195 -0.5,86.5C -0.5,60.5 -0.5,34.5 -0.5,8.5C 1.01289,4.47409 3.67955,1.47409 7.5,-0.5 Z"/></g>
<g><path style="opacity:1" fill="#f9f9f9" d="M 8.5,1.5 C 34.5021,1.33336 60.5021,1.50003 86.5,2C 88.5873,2.79217 90.4207,3.95884 92,5.5C 93.6489,32.7466 93.9822,60.08 93,87.5C 91.8333,90 90,91.8333 87.5,93C 61.1667,93.6667 34.8333,93.6667 8.5,93C 6.37623,91.8783 4.5429,90.3783 3,88.5C 1.35156,61.9202 1.01823,35.2536 2,8.5C 3.69406,5.64238 5.86073,3.30904 8.5,1.5 Z"/></g>
<g><path style="opacity:1" fill="#070707" d="M 37.5,20.5 C 55.738,18.1262 71.4046,23.1262 84.5,35.5C 82.5171,36.982 80.6837,38.6487 79,40.5C 58.1397,23.2012 37.3064,23.2012 16.5,40.5C 10.5069,37.7393 10.1736,34.5726 15.5,31C 22.3203,26.2369 29.6536,22.7369 37.5,20.5 Z"/></g>
<g><path style="opacity:1" fill="#070708" d="M 42.5,36.5 C 49.7475,36.1828 56.7475,37.3495 63.5,40C 67.4086,41.7819 70.742,44.2819 73.5,47.5C 72.1667,49.5 70.5,51.1667 68.5,52.5C 60.2283,44.9478 50.5616,42.4478 39.5,45C 34.9515,46.8578 30.7848,49.3578 27,52.5C 24.771,50.6379 23.1044,48.6379 22,46.5C 27.9339,41.1153 34.7673,37.782 42.5,36.5 Z"/></g>
<g><path style="opacity:1" fill="#0e0e0f" d="M 42.5,52.5 C 50.6102,51.7321 57.6102,54.0655 63.5,59.5C 62.1667,61.5 60.5,63.1667 58.5,64.5C 51.4309,59.2345 44.4309,59.2345 37.5,64.5C 32.3432,62.3152 31.6765,59.4819 35.5,56C 37.9252,54.7874 40.2585,53.6207 42.5,52.5 Z"/></g>
<g><path style="opacity:1" fill="#101010" d="M 45.5,68.5 C 52.0303,68.2435 54.197,71.2435 52,77.5C 48.7065,80.3112 45.7065,79.9779 43,76.5C 42.0182,73.2253 42.8515,70.5586 45.5,68.5 Z"/></g>
</svg>
