<?xml version="1.0" encoding="UTF-8"?>
<!DOCTYPE svg PUBLIC "-//W3C//DTD SVG 1.1//EN" "http://www.w3.org/Graphics/SVG/1.1/DTD/svg11.dtd">
<svg xmlns="http://www.w3.org/2000/svg" version="1.1" width="96px" height="96px" style="shape-rendering:geometricPrecision; text-rendering:geometricPrecision; image-rendering:optimizeQuality; fill-rule:evenodd; clip-rule:evenodd" xmlns:xlink="http://www.w3.org/1999/xlink">
<g><path style="opacity:0.746" fill="#222323" d="M 10.5,-0.5 C 35.5,-0.5 60.5,-0.5 85.5,-0.5C 89.8397,0.341147 93.173,2.67448 95.5,6.5C 95.5,34.1667 95.5,61.8333 95.5,89.5C 93.8333,91.8333 91.8333,93.8333 89.5,95.5C 61.8333,95.5 34.1667,95.5 6.5,95.5C 2.67448,93.173 0.341147,89.8397 -0.5,85.5C -0.5,60.5 -0.5,35.5 -0.5,10.5C 0.833333,4.5 4.5,0.833333 10.5,-0.5 Z"/></g>
<g><path style="opacity:1" fill="#fcfcfc" d="M 7.5,2.5 C 34.1687,2.33336 60.8354,2.50003 87.5,3C 89.9393,3.77385 91.7727,5.27385 93,7.5C 93.6667,34.5 93.6667,61.5 93,88.5C 91.8333,90.3333 90.3333,91.8333 88.5,93C 61.5,93.6667 34.5,93.6667 7.5,93C 5.66667,91.8333 4.16667,90.3333 3,88.5C 2.33333,61.5 2.33333,34.5 3,7.5C 4.05915,5.34079 5.55915,3.67413 7.5,2.5 Z"/></g>
<g><path style="opacity:1" fill="#a3a5a8" d="M 42.5,15.5 C 38.5,15.5 34.5,15.5 30.5,15.5C 30.5,18.1667 30.5,20.8333 30.5,23.5C 34.5,23.5 38.5,23.5 42.5,23.5C 38.3656,24.4849 34.0323,24.8182 29.5,24.5C 29.5,21.1667 29.5,17.8333 29.5,14.5C 34.0323,14.1818 38.3656,14.5151 42.5,15.5 Z"/></g>
<g><path style="opacity:1" fill="#000000" d="M 42.5,15.5 C 42.5,18.1667 42.5,20.8333 42.5,23.5C 38.5,23.5 34.5,23.5 30.5,23.5C 30.5,20.8333 30.5,18.1667 30.5,15.5C 34.5,15.5 38.5,15.5 42.5,15.5 Z"/></g>
<g><path style="opacity:1" fill="#8b8c8f" d="M 54.5,15.5 C 54.5,18.1667 54.5,20.8333 54.5,23.5C 58.1667,23.5 61.8333,23.5 65.5,23.5C 65.5,20.8333 65.5,18.1667 65.5,15.5C 66.4767,18.2869 66.81,21.2869 66.5,24.5C 62.1667,24.5 57.8333,24.5 53.5,24.5C 53.19,21.2869 53.5233,18.2869 54.5,15.5 Z"/></g>
<g><path style="opacity:1" fill="#000000" d="M 54.5,15.5 C 58.1667,15.5 61.8333,15.5 65.5,15.5C 65.5,18.1667 65.5,20.8333 65.5,23.5C 61.8333,23.5 58.1667,23.5 54.5,23.5C 54.5,20.8333 54.5,18.1667 54.5,15.5 Z"/></g>
<g><path style="opacity:1" fill="#060707" d="M 23.5,26.5 C 29.8333,26.5 36.1667,26.5 42.5,26.5C 42.6664,34.84 42.4997,43.1733 42,51.5C 40.9887,52.3366 39.8221,52.67 38.5,52.5C 38.6664,60.5069 38.4997,68.5069 38,76.5C 30.9213,77.4799 23.7546,77.8132 16.5,77.5C 16.3337,70.825 16.5004,64.1583 17,57.5C 19.6479,47.2452 21.8146,36.9119 23.5,26.5 Z"/></g>
<g><path style="opacity:1" fill="#696a6c" d="M 45.5,26.5 C 45.5,33.8333 45.5,41.1667 45.5,48.5C 47.1667,48.5 48.8333,48.5 50.5,48.5C 50.5,41.1667 50.5,33.8333 50.5,26.5C 51.492,33.9818 51.8254,41.6484 51.5,49.5C 49.1667,49.5 46.8333,49.5 44.5,49.5C 44.1746,41.6484 44.508,33.9818 45.5,26.5 Z"/></g>
<g><path style="opacity:1" fill="#000000" d="M 45.5,26.5 C 47.1667,26.5 48.8333,26.5 50.5,26.5C 50.5,33.8333 50.5,41.1667 50.5,48.5C 48.8333,48.5 47.1667,48.5 45.5,48.5C 45.5,41.1667 45.5,33.8333 45.5,26.5 Z"/></g>
<g><path style="opacity:1" fill="#070707" d="M 53.5,26.5 C 59.8333,26.5 66.1667,26.5 72.5,26.5C 73.8736,36.3293 76.0403,45.9959 79,55.5C 79.4997,62.8258 79.6663,70.1591 79.5,77.5C 72.2454,77.8132 65.0787,77.4799 58,76.5C 57.5003,68.5069 57.3336,60.5069 57.5,52.5C 56.1779,52.67 55.0113,52.3366 54,51.5C 53.5003,43.1733 53.3336,34.84 53.5,26.5 Z"/></g>
</svg>
