<?xml version="1.0" encoding="UTF-8"?>
<!DOCTYPE svg PUBLIC "-//W3C//DTD SVG 1.1//EN" "http://www.w3.org/Graphics/SVG/1.1/DTD/svg11.dtd">
<svg xmlns="http://www.w3.org/2000/svg" version="1.1" width="62px" height="84px" style="shape-rendering:geometricPrecision; text-rendering:geometricPrecision; image-rendering:optimizeQuality; fill-rule:evenodd; clip-rule:evenodd" xmlns:xlink="http://www.w3.org/1999/xlink">
<g><path style="opacity:0.635" fill="#d39e10" d="M 21.5,-0.5 C 27.5,-0.5 33.5,-0.5 39.5,-0.5C 46.6199,2.28709 52.6199,6.62042 57.5,12.5C 58.5969,15.6865 59.9303,18.6865 61.5,21.5C 61.5,27.1667 61.5,32.8333 61.5,38.5C 60.596,39.209 60.2627,40.209 60.5,41.5C 59.6618,41.8417 59.3284,42.5084 59.5,43.5C 58.1103,44.8993 57.1103,46.5659 56.5,48.5C 55.0937,48.9731 54.427,49.9731 54.5,51.5C 53.8333,51.5 53.5,51.8333 53.5,52.5C 51.7376,53.2623 50.7376,54.5956 50.5,56.5C 49.8333,56.5 49.5,56.8333 49.5,57.5C 48.0256,58.4363 47.0256,59.7697 46.5,61.5C 45.8333,61.5 45.5,61.8333 45.5,62.5C 44.0937,62.9731 43.427,63.9731 43.5,65.5C 42.8333,65.5 42.5,65.8333 42.5,66.5C 41.0937,66.9731 40.427,67.9731 40.5,69.5C 39.8333,69.5 39.5,69.8333 39.5,70.5C 38.6618,70.8417 38.3284,71.5084 38.5,72.5C 37.8333,72.5 37.5,72.8333 37.5,73.5C 36.6618,73.8417 36.3284,74.5084 36.5,75.5C 35.8333,75.5 35.5,75.8333 35.5,76.5C 34.6618,76.8417 34.3284,77.5084 34.5,78.5C 33.6618,78.8417 33.3284,79.5084 33.5,80.5C 32.6618,80.8417 32.3284,81.5084 32.5,82.5C 31.8333,82.5 31.5,82.8333 31.5,83.5C 30.8333,83.5 30.1667,83.5 29.5,83.5C 29.5,82.8333 29.1667,82.5 28.5,82.5C 28.6716,81.5084 28.3382,80.8417 27.5,80.5C 27.6716,79.5084 27.3382,78.8417 26.5,78.5C 26.6716,77.5084 26.3382,76.8417 25.5,76.5C 25.5,75.8333 25.1667,75.5 24.5,75.5C 24.6716,74.5084 24.3382,73.8417 23.5,73.5C 23.5,72.8333 23.1667,72.5 22.5,72.5C 22.6716,71.5084 22.3382,70.8417 21.5,70.5C 21.5,69.8333 21.1667,69.5 20.5,69.5C 20.573,67.9731 19.9063,66.9731 18.5,66.5C 18.5,65.8333 18.1667,65.5 17.5,65.5C 17.573,63.9731 16.9063,62.9731 15.5,62.5C 15.5,61.8333 15.1667,61.5 14.5,61.5C 13.9744,59.7697 12.9744,58.4363 11.5,57.5C 11.5,56.8333 11.1667,56.5 10.5,56.5C 10.2624,54.5956 9.26242,53.2623 7.5,52.5C 7.5,51.8333 7.16667,51.5 6.5,51.5C 6.57298,49.9731 5.90632,48.9731 4.5,48.5C 3.41613,45.9959 2.0828,43.6626 0.5,41.5C 0.737305,40.209 0.403972,39.209 -0.5,38.5C -0.5,32.8333 -0.5,27.1667 -0.5,21.5C 1.4539,16.935 3.9539,12.6017 7,8.5C 11.3435,4.58492 16.1768,1.58492 21.5,-0.5 Z"/></g>
<g><path style="opacity:1" fill="#fec426" d="M 23.5,1.5 C 48.2056,0.37309 60.0389,12.0398 59,36.5C 57.9413,39.6179 56.6079,42.6179 55,45.5C 46.6091,56.3827 38.4424,67.3827 30.5,78.5C 23.6085,68.0995 16.1085,58.0995 8,48.5C -1.90875,33.3634 -0.408752,19.5301 12.5,7C 16.2585,5.12073 19.9252,3.28739 23.5,1.5 Z"/></g>
<g><path style="opacity:0.008" fill="#7f8000" d="M 1.5,12.5 C 2.83333,13.1667 2.83333,13.1667 1.5,12.5 Z"/></g>
<g><path style="opacity:0.008" fill="#6f6e0d" d="M 59.5,13.5 C 58.8333,13.1667 58.1667,12.8333 57.5,12.5C 58.3013,10.2071 58.968,10.5404 59.5,13.5 Z"/></g>
<g><path style="opacity:0.004" fill="#ffc1f7" d="M 1.5,13.5 C 1.63101,14.2389 1.46434,14.9056 1,15.5C 0.308314,14.5632 0.474981,13.8966 1.5,13.5 Z"/></g>
<g><path style="opacity:0.004" fill="#ffc1f7" d="M 59.5,13.5 C 60.525,13.8966 60.6917,14.5632 60,15.5C 59.5357,14.9056 59.369,14.2389 59.5,13.5 Z"/></g>
<g><path style="opacity:0.008" fill="#7f8000" d="M -0.5,16.5 C 0.833333,17.1667 0.833333,17.1667 -0.5,16.5 Z"/></g>
<g><path style="opacity:0.008" fill="#7f8000" d="M 61.5,16.5 C 61.5,16.8333 61.5,17.1667 61.5,17.5C 60.8299,17.0187 60.8299,16.6853 61.5,16.5 Z"/></g>
<g><path style="opacity:1" fill="#fff1c2" d="M 24.5,17.5 C 38.3728,15.2141 44.5394,20.8807 43,34.5C 39.0282,40.6379 34.8616,46.6379 30.5,52.5C 26.1384,46.6379 21.9718,40.6379 18,34.5C 17.3333,31.1667 17.3333,27.8333 18,24.5C 19.6941,21.6424 21.8607,19.309 24.5,17.5 Z"/></g>
<g><path style="opacity:0.004" fill="#d2d200" d="M -0.5,41.5 C -0.166667,41.5 0.166667,41.5 0.5,41.5C 0.67158,42.4916 0.338246,43.1583 -0.5,43.5C -0.5,42.8333 -0.5,42.1667 -0.5,41.5 Z"/></g>
<g><path style="opacity:0.004" fill="#d2d200" d="M 60.5,41.5 C 60.8333,41.5 61.1667,41.5 61.5,41.5C 61.5,42.1667 61.5,42.8333 61.5,43.5C 61.1667,43.5 60.8333,43.5 60.5,43.5C 60.5,42.8333 60.5,42.1667 60.5,41.5 Z"/></g>
<g><path style="opacity:0.004" fill="#feff00" d="M 59.5,43.5 C 59.8333,43.5 60.1667,43.5 60.5,43.5C 60.1667,46.1667 59.8333,46.1667 59.5,43.5 Z"/></g>
<g><path style="opacity:0.008" fill="#ff8ffc" d="M 4.5,48.5 C 4.2533,50.9752 3.58664,50.9752 2.5,48.5C 2.96983,47.537 3.6365,47.537 4.5,48.5 Z"/></g>
<g><path style="opacity:0.008" fill="#ff8ffc" d="M 56.5,48.5 C 58.8919,47.6322 59.0586,48.2988 57,50.5C 56.5357,49.9056 56.369,49.2389 56.5,48.5 Z"/></g>
<g><path style="opacity:0.012" fill="#939212" d="M 6.5,51.5 C 7.16667,51.5 7.5,51.8333 7.5,52.5C 7.2533,54.9752 6.58664,54.9752 5.5,52.5C 5.62358,51.8933 5.95691,51.56 6.5,51.5 Z"/></g>
<g><path style="opacity:0.012" fill="#939212" d="M 54.5,51.5 C 55.7125,52.4971 55.5458,53.4971 54,54.5C 53.5357,53.9056 53.369,53.2389 53.5,52.5C 54.1667,52.5 54.5,52.1667 54.5,51.5 Z"/></g>
<g><path style="opacity:0.008" fill="#de7000" d="M 10.5,56.5 C 11.1667,56.5 11.5,56.8333 11.5,57.5C 10.7145,59.5924 9.7145,59.2591 8.5,56.5C 8.96983,55.537 9.6365,55.537 10.5,56.5 Z"/></g>
<g><path style="opacity:0.008" fill="#de7000" d="M 49.5,57.5 C 50.1667,57.5 50.5,57.1667 50.5,56.5C 52.1053,55.0313 52.6053,55.3646 52,57.5C 50.6081,59.8418 49.7748,59.8418 49.5,57.5 Z"/></g>
<g><path style="opacity:0.024" fill="#c8b100" d="M 14.5,61.5 C 15.1667,61.5 15.5,61.8333 15.5,62.5C 15.2533,64.9752 14.5866,64.9752 13.5,62.5C 13.6236,61.8933 13.9569,61.56 14.5,61.5 Z"/></g>
<g><path style="opacity:0.024" fill="#d7ae00" d="M 46.5,61.5 C 47.7125,62.4971 47.5458,63.4971 46,64.5C 45.5357,63.9056 45.369,63.2389 45.5,62.5C 46.1667,62.5 46.5,62.1667 46.5,61.5 Z"/></g>
<g><path style="opacity:0.02" fill="#d69000" d="M 17.5,65.5 C 18.1667,65.5 18.5,65.8333 18.5,66.5C 18.2533,68.9752 17.5866,68.9752 16.5,66.5C 16.6236,65.8933 16.9569,65.56 17.5,65.5 Z"/></g>
<g><path style="opacity:0.02" fill="#d38e00" d="M 43.5,65.5 C 44.7125,66.4971 44.5458,67.4971 43,68.5C 42.5357,67.9056 42.369,67.2389 42.5,66.5C 43.1667,66.5 43.5,66.1667 43.5,65.5 Z"/></g>
<g><path style="opacity:0.027" fill="#dbb614" d="M 20.5,69.5 C 21.1667,69.5 21.5,69.8333 21.5,70.5C 21.5,71.1667 21.5,71.8333 21.5,72.5C 19.6182,71.779 19.2848,70.779 20.5,69.5 Z"/></g>
<g><path style="opacity:0.027" fill="#dbb614" d="M 40.5,69.5 C 41.7152,70.779 41.3818,71.779 39.5,72.5C 39.5,71.8333 39.5,71.1667 39.5,70.5C 40.1667,70.5 40.5,70.1667 40.5,69.5 Z"/></g>
<g><path style="opacity:0.024" fill="#d8b103" d="M 21.5,72.5 C 21.8333,72.5 22.1667,72.5 22.5,72.5C 23.1667,72.5 23.5,72.8333 23.5,73.5C 23.5,74.1667 23.5,74.8333 23.5,75.5C 22.0937,75.0269 21.427,74.0269 21.5,72.5 Z"/></g>
<g><path style="opacity:0.024" fill="#d8b103" d="M 38.5,72.5 C 38.8333,72.5 39.1667,72.5 39.5,72.5C 39.573,74.0269 38.9063,75.0269 37.5,75.5C 37.5,74.8333 37.5,74.1667 37.5,73.5C 38.1667,73.5 38.5,73.1667 38.5,72.5 Z"/></g>
<g><path style="opacity:0.027" fill="#ac6b0e" d="M 23.5,75.5 C 23.8333,75.5 24.1667,75.5 24.5,75.5C 25.1667,75.5 25.5,75.8333 25.5,76.5C 25.5,77.1667 25.5,77.8333 25.5,78.5C 24.0937,78.0269 23.427,77.0269 23.5,75.5 Z"/></g>
<g><path style="opacity:0.027" fill="#ac6b0e" d="M 36.5,75.5 C 36.8333,75.5 37.1667,75.5 37.5,75.5C 37.573,77.0269 36.9063,78.0269 35.5,78.5C 35.5,77.8333 35.5,77.1667 35.5,76.5C 36.1667,76.5 36.5,76.1667 36.5,75.5 Z"/></g>
<g><path style="opacity:0.016" fill="#c68000" d="M 25.5,78.5 C 25.8333,78.5 26.1667,78.5 26.5,78.5C 26.5,79.1667 26.5,79.8333 26.5,80.5C 25.6618,80.1583 25.3284,79.4916 25.5,78.5 Z"/></g>
<g><path style="opacity:0.016" fill="#c68000" d="M 34.5,78.5 C 34.8333,78.5 35.1667,78.5 35.5,78.5C 35.6716,79.4916 35.3382,80.1583 34.5,80.5C 34.5,79.8333 34.5,79.1667 34.5,78.5 Z"/></g>
<g><path style="opacity:0.004" fill="#f1e200" d="M 26.5,80.5 C 26.8333,80.5 27.1667,80.5 27.5,80.5C 27.5,81.1667 27.5,81.8333 27.5,82.5C 26.6618,82.1583 26.3284,81.4916 26.5,80.5 Z"/></g>
<g><path style="opacity:0.004" fill="#f1e200" d="M 33.5,80.5 C 33.8333,80.5 34.1667,80.5 34.5,80.5C 34.6716,81.4916 34.3382,82.1583 33.5,82.5C 33.5,81.8333 33.5,81.1667 33.5,80.5 Z"/></g>
<g><path style="opacity:0.02" fill="#cb9900" d="M 27.5,82.5 C 27.8333,82.5 28.1667,82.5 28.5,82.5C 28.5,82.8333 28.5,83.1667 28.5,83.5C 28.1667,83.1667 27.8333,82.8333 27.5,82.5 Z"/></g>
<g><path style="opacity:0.02" fill="#cb9900" d="M 32.5,82.5 C 32.8333,82.5 33.1667,82.5 33.5,82.5C 33.5,82.8333 33.5,83.1667 33.5,83.5C 33.1667,83.1667 32.8333,82.8333 32.5,82.5 Z"/></g>
</svg>
