<?xml version="1.0" encoding="UTF-8"?>
<!DOCTYPE svg PUBLIC "-//W3C//DTD SVG 1.1//EN" "http://www.w3.org/Graphics/SVG/1.1/DTD/svg11.dtd">
<svg xmlns="http://www.w3.org/2000/svg" version="1.1" width="32px" height="32px" style="shape-rendering:geometricPrecision; text-rendering:geometricPrecision; image-rendering:optimizeQuality; fill-rule:evenodd; clip-rule:evenodd" xmlns:xlink="http://www.w3.org/1999/xlink">
<g><path style="opacity:1" fill="#f9f7f6" d="M -0.5,-0.5 C 10.1667,-0.5 20.8333,-0.5 31.5,-0.5C 31.5,10.1667 31.5,20.8333 31.5,31.5C 29.1667,31.5 26.8333,31.5 24.5,31.5C 25.3029,30.5768 25.4696,29.5768 25,28.5C 22.6647,26.5998 20.498,24.5998 18.5,22.5C 23.9277,18.9029 23.5944,15.7362 17.5,13C 16.2068,12.51 14.8734,12.3433 13.5,12.5C 13.7373,13.791 13.404,14.791 12.5,15.5C 11.0867,14.0652 9.42001,13.0652 7.5,12.5C 8.16667,12.5 8.83333,12.5 9.5,12.5C 11.4664,11.5588 13.4664,10.5588 15.5,9.5C 16.8518,10.5244 18.1851,11.5244 19.5,12.5C 20.7507,14.2199 22.2507,14.5532 24,13.5C 24.6667,10.8333 24.6667,8.16667 24,5.5C 23.3292,4.74756 22.4959,4.41423 21.5,4.5C 20.7703,2.95496 19.437,2.12162 17.5,2C 8.98584,0.347727 4.98584,3.84773 5.5,12.5C 3.95819,11.6993 2.29152,11.366 0.5,11.5C 1.70194,15.578 3.20194,19.578 5,23.5C 5.28961,21.9559 5.95627,20.6226 7,19.5C 11.6941,23.3654 16.1941,27.3654 20.5,31.5C 13.5,31.5 6.5,31.5 -0.5,31.5C -0.5,20.8333 -0.5,10.1667 -0.5,-0.5 Z"/></g>
<g><path style="opacity:1" fill="#fbab79" d="M 21.5,4.5 C 20.8826,4.61071 20.3826,4.94404 20,5.5C 12.5235,1.98742 8.3568,4.32075 7.5,12.5C 6.83333,12.5 6.16667,12.5 5.5,12.5C 4.98584,3.84773 8.98584,0.347727 17.5,2C 19.437,2.12162 20.7703,2.95496 21.5,4.5 Z"/></g>
<g><path style="opacity:1" fill="#fdceaf" d="M 21.5,4.5 C 22.4959,4.41423 23.3292,4.74756 24,5.5C 24.6667,8.16667 24.6667,10.8333 24,13.5C 22.2507,14.5532 20.7507,14.2199 19.5,12.5C 21.0936,8.55976 19.5936,6.55976 15,6.5C 10.914,6.41972 9.08069,8.41972 9.5,12.5C 8.83333,12.5 8.16667,12.5 7.5,12.5C 8.3568,4.32075 12.5235,1.98742 20,5.5C 20.3826,4.94404 20.8826,4.61071 21.5,4.5 Z"/></g>
<g><path style="opacity:1" fill="#f87738" d="M 19.5,12.5 C 18.1851,11.5244 16.8518,10.5244 15.5,9.5C 13.4664,10.5588 11.4664,11.5588 9.5,12.5C 9.08069,8.41972 10.914,6.41972 15,6.5C 19.5936,6.55976 21.0936,8.55976 19.5,12.5 Z"/></g>
<g><path style="opacity:1" fill="#2533f6" d="M 5.5,12.5 C 6.16667,12.5 6.83333,12.5 7.5,12.5C 9.42001,13.0652 11.0867,14.0652 12.5,15.5C 10.9719,15.5173 10.4719,16.184 11,17.5C 13.3818,19.3887 15.8818,21.0553 18.5,22.5C 20.498,24.5998 22.6647,26.5998 25,28.5C 25.4696,29.5768 25.3029,30.5768 24.5,31.5C 23.1667,31.5 21.8333,31.5 20.5,31.5C 16.1941,27.3654 11.6941,23.3654 7,19.5C 5.95627,20.6226 5.28961,21.9559 5,23.5C 3.20194,19.578 1.70194,15.578 0.5,11.5C 2.29152,11.366 3.95819,11.6993 5.5,12.5 Z"/></g>
<g><path style="opacity:1" fill="#55a07b" d="M 18.5,22.5 C 15.8818,21.0553 13.3818,19.3887 11,17.5C 10.4719,16.184 10.9719,15.5173 12.5,15.5C 13.404,14.791 13.7373,13.791 13.5,12.5C 14.8734,12.3433 16.2068,12.51 17.5,13C 23.5944,15.7362 23.9277,18.9029 18.5,22.5 Z"/></g>
</svg>
